<?xml version="1.0" encoding="utf-8" standalone="no"?>
<!DOCTYPE svg PUBLIC "-//W3C//DTD SVG 1.1//EN"
  "http://www.w3.org/Graphics/SVG/1.1/DTD/svg11.dtd">
<!-- Created with matplotlib (https://matplotlib.org/) -->
<svg height="345.6pt" version="1.1" viewBox="0 0 460.8 345.6" width="460.8pt" xmlns="http://www.w3.org/2000/svg" xmlns:xlink="http://www.w3.org/1999/xlink">
 <defs>
  <style type="text/css">
*{stroke-linecap:butt;stroke-linejoin:round;}
  </style>
 </defs>
 <g id="figure_1">
  <g id="patch_1">
   <path d="M 0 345.6 
L 460.8 345.6 
L 460.8 0 
L 0 0 
z
" style="fill:#ffffff;"/>
  </g>
  <g id="axes_1">
   <g id="patch_2">
    <path d="M 57.6 307.584 
L 414.72 307.584 
L 414.72 41.472 
L 57.6 41.472 
z
" style="fill:#ffffff;"/>
   </g>
   <g id="PolyCollection_1">
    <path clip-path="url(#p3be157200e)" d="M 73.832727 183.368348 
L 73.832727 307.584 
L 80.890435 307.584 
L 87.948142 307.584 
L 95.00585 307.584 
L 102.063557 307.584 
L 109.121265 307.584 
L 116.178972 307.584 
L 123.23668 307.584 
L 130.294387 307.584 
L 137.352095 307.584 
L 144.409802 307.584 
L 151.46751 307.584 
L 158.525217 307.584 
L 165.582925 307.584 
L 172.640632 307.584 
L 179.69834 307.584 
L 186.756047 307.584 
L 193.813755 307.584 
L 200.871462 307.584 
L 207.92917 307.584 
L 214.986877 307.584 
L 222.044585 307.584 
L 229.102292 307.584 
L 236.16 307.584 
L 243.217708 307.584 
L 250.275415 307.584 
L 257.333123 307.584 
L 264.39083 307.584 
L 271.448538 307.584 
L 278.506245 307.584 
L 285.563953 307.584 
L 292.62166 307.584 
L 299.679368 307.584 
L 306.737075 307.584 
L 313.794783 307.584 
L 320.85249 307.584 
L 327.910198 307.584 
L 334.967905 307.584 
L 342.025613 307.584 
L 349.08332 307.584 
L 356.141028 307.584 
L 363.198735 307.584 
L 370.256443 307.584 
L 377.31415 307.584 
L 384.371858 307.584 
L 391.429565 307.584 
L 398.487273 307.584 
L 398.487273 260.502261 
L 398.487273 260.502261 
L 391.429565 242.470957 
L 384.371858 273.52487 
L 377.31415 249.48313 
L 370.256443 280.537043 
L 363.198735 244.474435 
L 356.141028 257.497043 
L 349.08332 234.457043 
L 342.025613 275.528348 
L 334.967905 260.502261 
L 327.910198 257.497043 
L 320.85249 276.530087 
L 313.794783 277.531826 
L 306.737075 275.528348 
L 299.679368 253.490087 
L 292.62166 255.493565 
L 285.563953 264.509217 
L 278.506245 255.493565 
L 271.448538 246.477913 
L 264.39083 260.502261 
L 257.333123 270.519652 
L 250.275415 262.505739 
L 243.217708 262.505739 
L 236.16 270.519652 
L 229.102292 285.545739 
L 222.044585 280.537043 
L 214.986877 270.519652 
L 207.92917 268.516174 
L 200.871462 264.509217 
L 193.813755 269.517913 
L 186.756047 271.521391 
L 179.69834 272.52313 
L 172.640632 262.505739 
L 165.582925 264.509217 
L 158.525217 262.505739 
L 151.46751 278.533565 
L 144.409802 252.488348 
L 137.352095 258.498783 
L 130.294387 248.481391 
L 123.23668 276.530087 
L 116.178972 252.488348 
L 109.121265 219.430957 
L 102.063557 220.432696 
L 95.00585 180.36313 
L 87.948142 139.291826 
L 80.890435 207.410087 
L 73.832727 183.368348 
z
" style="fill:#1f77b4;"/>
   </g>
   <g id="PolyCollection_2">
    <path clip-path="url(#p3be157200e)" d="M 73.832727 150.310957 
L 73.832727 183.368348 
L 80.890435 207.410087 
L 87.948142 139.291826 
L 95.00585 180.36313 
L 102.063557 220.432696 
L 109.121265 219.430957 
L 116.178972 252.488348 
L 123.23668 276.530087 
L 130.294387 248.481391 
L 137.352095 258.498783 
L 144.409802 252.488348 
L 151.46751 278.533565 
L 158.525217 262.505739 
L 165.582925 264.509217 
L 172.640632 262.505739 
L 179.69834 272.52313 
L 186.756047 271.521391 
L 193.813755 269.517913 
L 200.871462 264.509217 
L 207.92917 268.516174 
L 214.986877 270.519652 
L 222.044585 280.537043 
L 229.102292 285.545739 
L 236.16 270.519652 
L 243.217708 262.505739 
L 250.275415 262.505739 
L 257.333123 270.519652 
L 264.39083 260.502261 
L 271.448538 246.477913 
L 278.506245 255.493565 
L 285.563953 264.509217 
L 292.62166 255.493565 
L 299.679368 253.490087 
L 306.737075 275.528348 
L 313.794783 277.531826 
L 320.85249 276.530087 
L 327.910198 257.497043 
L 334.967905 260.502261 
L 342.025613 275.528348 
L 349.08332 234.457043 
L 356.141028 257.497043 
L 363.198735 244.474435 
L 370.256443 280.537043 
L 377.31415 249.48313 
L 384.371858 273.52487 
L 391.429565 242.470957 
L 398.487273 260.502261 
L 398.487273 220.432696 
L 398.487273 220.432696 
L 391.429565 198.394435 
L 384.371858 231.451826 
L 377.31415 206.408348 
L 370.256443 239.465739 
L 363.198735 203.40313 
L 356.141028 219.430957 
L 349.08332 196.390957 
L 342.025613 237.462261 
L 334.967905 225.441391 
L 327.910198 217.427478 
L 320.85249 238.464 
L 313.794783 237.462261 
L 306.737075 234.457043 
L 299.679368 216.425739 
L 292.62166 217.427478 
L 285.563953 228.446609 
L 278.506245 220.432696 
L 271.448538 206.408348 
L 264.39083 230.450087 
L 257.333123 239.465739 
L 250.275415 232.453565 
L 243.217708 237.462261 
L 236.16 240.467478 
L 229.102292 254.491826 
L 222.044585 255.493565 
L 214.986877 240.467478 
L 207.92917 238.464 
L 200.871462 235.458783 
L 193.813755 242.470957 
L 186.756047 245.476174 
L 179.69834 249.48313 
L 172.640632 240.467478 
L 165.582925 235.458783 
L 158.525217 233.455304 
L 151.46751 249.48313 
L 144.409802 224.439652 
L 137.352095 231.451826 
L 130.294387 219.430957 
L 123.23668 245.476174 
L 116.178972 226.44313 
L 109.121265 186.373565 
L 102.063557 175.354435 
L 95.00585 146.304 
L 87.948142 123.264 
L 80.890435 166.338783 
L 73.832727 150.310957 
z
" style="fill:#ff7f0e;"/>
   </g>
   <g id="PolyCollection_3">
    <path clip-path="url(#p3be157200e)" d="M 73.832727 90.206609 
L 73.832727 150.310957 
L 80.890435 166.338783 
L 87.948142 123.264 
L 95.00585 146.304 
L 102.063557 175.354435 
L 109.121265 186.373565 
L 116.178972 226.44313 
L 123.23668 245.476174 
L 130.294387 219.430957 
L 137.352095 231.451826 
L 144.409802 224.439652 
L 151.46751 249.48313 
L 158.525217 233.455304 
L 165.582925 235.458783 
L 172.640632 240.467478 
L 179.69834 249.48313 
L 186.756047 245.476174 
L 193.813755 242.470957 
L 200.871462 235.458783 
L 207.92917 238.464 
L 214.986877 240.467478 
L 222.044585 255.493565 
L 229.102292 254.491826 
L 236.16 240.467478 
L 243.217708 237.462261 
L 250.275415 232.453565 
L 257.333123 239.465739 
L 264.39083 230.450087 
L 271.448538 206.408348 
L 278.506245 220.432696 
L 285.563953 228.446609 
L 292.62166 217.427478 
L 299.679368 216.425739 
L 306.737075 234.457043 
L 313.794783 237.462261 
L 320.85249 238.464 
L 327.910198 217.427478 
L 334.967905 225.441391 
L 342.025613 237.462261 
L 349.08332 196.390957 
L 356.141028 219.430957 
L 363.198735 203.40313 
L 370.256443 239.465739 
L 377.31415 206.408348 
L 384.371858 231.451826 
L 391.429565 198.394435 
L 398.487273 220.432696 
L 398.487273 174.352696 
L 398.487273 174.352696 
L 391.429565 174.352696 
L 384.371858 176.356174 
L 377.31415 174.352696 
L 370.256443 177.357913 
L 363.198735 175.354435 
L 356.141028 176.356174 
L 349.08332 175.354435 
L 342.025613 173.350957 
L 334.967905 174.352696 
L 327.910198 174.352696 
L 320.85249 173.350957 
L 313.794783 172.349217 
L 306.737075 174.352696 
L 299.679368 177.357913 
L 292.62166 173.350957 
L 285.563953 175.354435 
L 278.506245 176.356174 
L 271.448538 177.357913 
L 264.39083 206.408348 
L 257.333123 200.397913 
L 250.275415 193.385739 
L 243.217708 205.406609 
L 236.16 208.411826 
L 229.102292 209.413565 
L 222.044585 214.422261 
L 214.986877 207.410087 
L 207.92917 210.415304 
L 200.871462 209.413565 
L 193.813755 209.413565 
L 186.756047 208.411826 
L 179.69834 209.413565 
L 172.640632 207.410087 
L 165.582925 204.40487 
L 158.525217 201.399652 
L 151.46751 209.413565 
L 144.409802 204.40487 
L 137.352095 192.384 
L 130.294387 194.387478 
L 123.23668 219.430957 
L 116.178972 190.380522 
L 109.121265 151.312696 
L 102.063557 139.291826 
L 95.00585 110.241391 
L 87.948142 108.237913 
L 80.890435 155.319652 
L 73.832727 90.206609 
z
" style="fill:#2ca02c;"/>
   </g>
   <g id="PolyCollection_4">
    <path clip-path="url(#p3be157200e)" d="M 73.832727 59.152696 
L 73.832727 90.206609 
L 80.890435 155.319652 
L 87.948142 108.237913 
L 95.00585 110.241391 
L 102.063557 139.291826 
L 109.121265 151.312696 
L 116.178972 190.380522 
L 123.23668 219.430957 
L 130.294387 194.387478 
L 137.352095 192.384 
L 144.409802 204.40487 
L 151.46751 209.413565 
L 158.525217 201.399652 
L 165.582925 204.40487 
L 172.640632 207.410087 
L 179.69834 209.413565 
L 186.756047 208.411826 
L 193.813755 209.413565 
L 200.871462 209.413565 
L 207.92917 210.415304 
L 214.986877 207.410087 
L 222.044585 214.422261 
L 229.102292 209.413565 
L 236.16 208.411826 
L 243.217708 205.406609 
L 250.275415 193.385739 
L 257.333123 200.397913 
L 264.39083 206.408348 
L 271.448538 177.357913 
L 278.506245 176.356174 
L 285.563953 175.354435 
L 292.62166 173.350957 
L 299.679368 177.357913 
L 306.737075 174.352696 
L 313.794783 172.349217 
L 320.85249 173.350957 
L 327.910198 174.352696 
L 334.967905 174.352696 
L 342.025613 173.350957 
L 349.08332 175.354435 
L 356.141028 176.356174 
L 363.198735 175.354435 
L 370.256443 177.357913 
L 377.31415 174.352696 
L 384.371858 176.356174 
L 391.429565 174.352696 
L 398.487273 174.352696 
L 398.487273 174.352696 
L 398.487273 174.352696 
L 391.429565 174.352696 
L 384.371858 176.356174 
L 377.31415 174.352696 
L 370.256443 177.357913 
L 363.198735 175.354435 
L 356.141028 176.356174 
L 349.08332 175.354435 
L 342.025613 173.350957 
L 334.967905 174.352696 
L 327.910198 174.352696 
L 320.85249 173.350957 
L 313.794783 172.349217 
L 306.737075 174.352696 
L 299.679368 177.357913 
L 292.62166 173.350957 
L 285.563953 175.354435 
L 278.506245 176.356174 
L 271.448538 177.357913 
L 264.39083 179.361391 
L 257.333123 175.354435 
L 250.275415 169.344 
L 243.217708 180.36313 
L 236.16 183.368348 
L 229.102292 181.36487 
L 222.044585 187.375304 
L 214.986877 178.359652 
L 207.92917 182.366609 
L 200.871462 182.366609 
L 193.813755 181.36487 
L 186.756047 181.36487 
L 179.69834 181.36487 
L 172.640632 180.36313 
L 165.582925 178.359652 
L 158.525217 174.352696 
L 151.46751 182.366609 
L 144.409802 178.359652 
L 137.352095 169.344 
L 130.294387 171.347478 
L 123.23668 192.384 
L 116.178972 162.331826 
L 109.121265 127.270957 
L 102.063557 120.258783 
L 95.00585 107.236174 
L 87.948142 96.217043 
L 80.890435 78.185739 
L 73.832727 59.152696 
z
" style="fill:#d62728;"/>
   </g>
   <g id="PolyCollection_5">
    <path clip-path="url(#p3be157200e)" d="M 73.832727 57.149217 
L 73.832727 59.152696 
L 80.890435 78.185739 
L 87.948142 96.217043 
L 95.00585 107.236174 
L 102.063557 120.258783 
L 109.121265 127.270957 
L 116.178972 162.331826 
L 123.23668 192.384 
L 130.294387 171.347478 
L 137.352095 169.344 
L 144.409802 178.359652 
L 151.46751 182.366609 
L 158.525217 174.352696 
L 165.582925 178.359652 
L 172.640632 180.36313 
L 179.69834 181.36487 
L 186.756047 181.36487 
L 193.813755 181.36487 
L 200.871462 182.366609 
L 207.92917 182.366609 
L 214.986877 178.359652 
L 222.044585 187.375304 
L 229.102292 181.36487 
L 236.16 183.368348 
L 243.217708 180.36313 
L 250.275415 169.344 
L 257.333123 175.354435 
L 264.39083 179.361391 
L 271.448538 177.357913 
L 278.506245 176.356174 
L 285.563953 175.354435 
L 292.62166 173.350957 
L 299.679368 177.357913 
L 306.737075 174.352696 
L 313.794783 172.349217 
L 320.85249 173.350957 
L 327.910198 174.352696 
L 334.967905 174.352696 
L 342.025613 173.350957 
L 349.08332 175.354435 
L 356.141028 176.356174 
L 363.198735 175.354435 
L 370.256443 177.357913 
L 377.31415 174.352696 
L 384.371858 176.356174 
L 391.429565 174.352696 
L 398.487273 174.352696 
L 398.487273 152.314435 
L 398.487273 152.314435 
L 391.429565 173.350957 
L 384.371858 122.262261 
L 377.31415 112.24487 
L 370.256443 105.232696 
L 363.198735 139.291826 
L 356.141028 119.257043 
L 349.08332 121.260522 
L 342.025613 131.277913 
L 334.967905 130.276174 
L 327.910198 127.270957 
L 320.85249 124.265739 
L 313.794783 94.213565 
L 306.737075 111.24313 
L 299.679368 107.236174 
L 292.62166 139.291826 
L 285.563953 143.298783 
L 278.506245 136.286609 
L 271.448538 122.262261 
L 264.39083 144.300522 
L 257.333123 141.295304 
L 250.275415 135.28487 
L 243.217708 142.297043 
L 236.16 142.297043 
L 229.102292 155.319652 
L 222.044585 159.326609 
L 214.986877 153.316174 
L 207.92917 150.310957 
L 200.871462 151.312696 
L 193.813755 154.317913 
L 186.756047 156.321391 
L 179.69834 158.32487 
L 172.640632 154.317913 
L 165.582925 153.316174 
L 158.525217 154.317913 
L 151.46751 168.342261 
L 144.409802 153.316174 
L 137.352095 117.253565 
L 130.294387 137.288348 
L 123.23668 176.356174 
L 116.178972 142.297043 
L 109.121265 105.232696 
L 102.063557 91.208348 
L 95.00585 64.161391 
L 87.948142 57.149217 
L 80.890435 56.147478 
L 73.832727 57.149217 
z
" style="fill:#9467bd;"/>
   </g>
   <g id="PolyCollection_6">
    <path clip-path="url(#p3be157200e)" d="M 73.832727 57.149217 
L 73.832727 57.149217 
L 80.890435 56.147478 
L 87.948142 57.149217 
L 95.00585 64.161391 
L 102.063557 91.208348 
L 109.121265 105.232696 
L 116.178972 142.297043 
L 123.23668 176.356174 
L 130.294387 137.288348 
L 137.352095 117.253565 
L 144.409802 153.316174 
L 151.46751 168.342261 
L 158.525217 154.317913 
L 165.582925 153.316174 
L 172.640632 154.317913 
L 179.69834 158.32487 
L 186.756047 156.321391 
L 193.813755 154.317913 
L 200.871462 151.312696 
L 207.92917 150.310957 
L 214.986877 153.316174 
L 222.044585 159.326609 
L 229.102292 155.319652 
L 236.16 142.297043 
L 243.217708 142.297043 
L 250.275415 135.28487 
L 257.333123 141.295304 
L 264.39083 144.300522 
L 271.448538 122.262261 
L 278.506245 136.286609 
L 285.563953 143.298783 
L 292.62166 139.291826 
L 299.679368 107.236174 
L 306.737075 111.24313 
L 313.794783 94.213565 
L 320.85249 124.265739 
L 327.910198 127.270957 
L 334.967905 130.276174 
L 342.025613 131.277913 
L 349.08332 121.260522 
L 356.141028 119.257043 
L 363.198735 139.291826 
L 370.256443 105.232696 
L 377.31415 112.24487 
L 384.371858 122.262261 
L 391.429565 173.350957 
L 398.487273 152.314435 
L 398.487273 152.314435 
L 398.487273 152.314435 
L 391.429565 173.350957 
L 384.371858 122.262261 
L 377.31415 112.24487 
L 370.256443 105.232696 
L 363.198735 139.291826 
L 356.141028 119.257043 
L 349.08332 121.260522 
L 342.025613 131.277913 
L 334.967905 130.276174 
L 327.910198 127.270957 
L 320.85249 124.265739 
L 313.794783 94.213565 
L 306.737075 111.24313 
L 299.679368 107.236174 
L 292.62166 139.291826 
L 285.563953 143.298783 
L 278.506245 136.286609 
L 271.448538 122.262261 
L 264.39083 118.255304 
L 257.333123 109.239652 
L 250.275415 120.258783 
L 243.217708 114.248348 
L 236.16 124.265739 
L 229.102292 126.269217 
L 222.044585 128.272696 
L 214.986877 128.272696 
L 207.92917 124.265739 
L 200.871462 126.269217 
L 193.813755 124.265739 
L 186.756047 122.262261 
L 179.69834 124.265739 
L 172.640632 125.267478 
L 165.582925 128.272696 
L 158.525217 123.264 
L 151.46751 142.297043 
L 144.409802 132.279652 
L 137.352095 108.237913 
L 130.294387 125.267478 
L 123.23668 100.224 
L 116.178972 112.24487 
L 109.121265 99.222261 
L 102.063557 87.201391 
L 95.00585 63.159652 
L 87.948142 57.149217 
L 80.890435 56.147478 
L 73.832727 57.149217 
z
" style="fill:#8c564b;"/>
   </g>
   <g id="PolyCollection_7">
    <path clip-path="url(#p3be157200e)" d="M 73.832727 57.149217 
L 73.832727 57.149217 
L 80.890435 56.147478 
L 87.948142 57.149217 
L 95.00585 63.159652 
L 102.063557 87.201391 
L 109.121265 99.222261 
L 116.178972 112.24487 
L 123.23668 100.224 
L 130.294387 125.267478 
L 137.352095 108.237913 
L 144.409802 132.279652 
L 151.46751 142.297043 
L 158.525217 123.264 
L 165.582925 128.272696 
L 172.640632 125.267478 
L 179.69834 124.265739 
L 186.756047 122.262261 
L 193.813755 124.265739 
L 200.871462 126.269217 
L 207.92917 124.265739 
L 214.986877 128.272696 
L 222.044585 128.272696 
L 229.102292 126.269217 
L 236.16 124.265739 
L 243.217708 114.248348 
L 250.275415 120.258783 
L 257.333123 109.239652 
L 264.39083 118.255304 
L 271.448538 122.262261 
L 278.506245 136.286609 
L 285.563953 143.298783 
L 292.62166 139.291826 
L 299.679368 107.236174 
L 306.737075 111.24313 
L 313.794783 94.213565 
L 320.85249 124.265739 
L 327.910198 127.270957 
L 334.967905 130.276174 
L 342.025613 131.277913 
L 349.08332 121.260522 
L 356.141028 119.257043 
L 363.198735 139.291826 
L 370.256443 105.232696 
L 377.31415 112.24487 
L 384.371858 122.262261 
L 391.429565 173.350957 
L 398.487273 152.314435 
L 398.487273 86.199652 
L 398.487273 86.199652 
L 391.429565 84.196174 
L 384.371858 89.20487 
L 377.31415 87.201391 
L 370.256443 91.208348 
L 363.198735 89.20487 
L 356.141028 90.206609 
L 349.08332 90.206609 
L 342.025613 88.20313 
L 334.967905 90.206609 
L 327.910198 90.206609 
L 320.85249 91.208348 
L 313.794783 87.201391 
L 306.737075 91.208348 
L 299.679368 91.208348 
L 292.62166 89.20487 
L 285.563953 88.20313 
L 278.506245 91.208348 
L 271.448538 91.208348 
L 264.39083 84.196174 
L 257.333123 82.192696 
L 250.275415 80.189217 
L 243.217708 81.190957 
L 236.16 82.192696 
L 229.102292 83.194435 
L 222.044585 84.196174 
L 214.986877 83.194435 
L 207.92917 84.196174 
L 200.871462 85.197913 
L 193.813755 81.190957 
L 186.756047 87.201391 
L 179.69834 86.199652 
L 172.640632 81.190957 
L 165.582925 78.185739 
L 158.525217 82.192696 
L 151.46751 87.201391 
L 144.409802 87.201391 
L 137.352095 85.197913 
L 130.294387 85.197913 
L 123.23668 91.208348 
L 116.178972 91.208348 
L 109.121265 79.187478 
L 102.063557 62.157913 
L 95.00585 57.149217 
L 87.948142 57.149217 
L 80.890435 56.147478 
L 73.832727 57.149217 
z
" style="fill:#e377c2;"/>
   </g>
   <g id="PolyCollection_8">
    <path clip-path="url(#p3be157200e)" d="M 73.832727 57.149217 
L 73.832727 57.149217 
L 80.890435 56.147478 
L 87.948142 57.149217 
L 95.00585 57.149217 
L 102.063557 62.157913 
L 109.121265 79.187478 
L 116.178972 91.208348 
L 123.23668 91.208348 
L 130.294387 85.197913 
L 137.352095 85.197913 
L 144.409802 87.201391 
L 151.46751 87.201391 
L 158.525217 82.192696 
L 165.582925 78.185739 
L 172.640632 81.190957 
L 179.69834 86.199652 
L 186.756047 87.201391 
L 193.813755 81.190957 
L 200.871462 85.197913 
L 207.92917 84.196174 
L 214.986877 83.194435 
L 222.044585 84.196174 
L 229.102292 83.194435 
L 236.16 82.192696 
L 243.217708 81.190957 
L 250.275415 80.189217 
L 257.333123 82.192696 
L 264.39083 84.196174 
L 271.448538 91.208348 
L 278.506245 91.208348 
L 285.563953 88.20313 
L 292.62166 89.20487 
L 299.679368 91.208348 
L 306.737075 91.208348 
L 313.794783 87.201391 
L 320.85249 91.208348 
L 327.910198 90.206609 
L 334.967905 90.206609 
L 342.025613 88.20313 
L 349.08332 90.206609 
L 356.141028 90.206609 
L 363.198735 89.20487 
L 370.256443 91.208348 
L 377.31415 87.201391 
L 384.371858 89.20487 
L 391.429565 84.196174 
L 398.487273 86.199652 
L 398.487273 58.150957 
L 398.487273 58.150957 
L 391.429565 59.152696 
L 384.371858 58.150957 
L 377.31415 56.147478 
L 370.256443 57.149217 
L 363.198735 55.145739 
L 356.141028 57.149217 
L 349.08332 56.147478 
L 342.025613 56.147478 
L 334.967905 56.147478 
L 327.910198 57.149217 
L 320.85249 56.147478 
L 313.794783 57.149217 
L 306.737075 56.147478 
L 299.679368 58.150957 
L 292.62166 57.149217 
L 285.563953 58.150957 
L 278.506245 58.150957 
L 271.448538 58.150957 
L 264.39083 56.147478 
L 257.333123 55.145739 
L 250.275415 54.144 
L 243.217708 54.144 
L 236.16 57.149217 
L 229.102292 56.147478 
L 222.044585 57.149217 
L 214.986877 57.149217 
L 207.92917 55.145739 
L 200.871462 58.150957 
L 193.813755 57.149217 
L 186.756047 57.149217 
L 179.69834 58.150957 
L 172.640632 57.149217 
L 165.582925 56.147478 
L 158.525217 58.150957 
L 151.46751 57.149217 
L 144.409802 56.147478 
L 137.352095 56.147478 
L 130.294387 56.147478 
L 123.23668 57.149217 
L 116.178972 59.152696 
L 109.121265 58.150957 
L 102.063557 58.150957 
L 95.00585 57.149217 
L 87.948142 57.149217 
L 80.890435 56.147478 
L 73.832727 57.149217 
z
" style="fill:#7f7f7f;"/>
   </g>
   <g id="matplotlib.axis_1">
    <g id="xtick_1">
     <g id="line2d_1">
      <defs>
       <path d="M 0 0 
L 0 3.5 
" id="m6f030e5e1a" style="stroke:#000000;stroke-width:0.8;"/>
      </defs>
      <g>
       <use style="stroke:#000000;stroke-width:0.8;" x="73.832727" xlink:href="#m6f030e5e1a" y="307.584"/>
      </g>
     </g>
     <g id="text_1">
      <!-- 0 -->
      <defs>
       <path d="M 31.78125 66.40625 
Q 24.171875 66.40625 20.328125 58.90625 
Q 16.5 51.421875 16.5 36.375 
Q 16.5 21.390625 20.328125 13.890625 
Q 24.171875 6.390625 31.78125 6.390625 
Q 39.453125 6.390625 43.28125 13.890625 
Q 47.125 21.390625 47.125 36.375 
Q 47.125 51.421875 43.28125 58.90625 
Q 39.453125 66.40625 31.78125 66.40625 
z
M 31.78125 74.21875 
Q 44.046875 74.21875 50.515625 64.515625 
Q 56.984375 54.828125 56.984375 36.375 
Q 56.984375 17.96875 50.515625 8.265625 
Q 44.046875 -1.421875 31.78125 -1.421875 
Q 19.53125 -1.421875 13.0625 8.265625 
Q 6.59375 17.96875 6.59375 36.375 
Q 6.59375 54.828125 13.0625 64.515625 
Q 19.53125 74.21875 31.78125 74.21875 
z
" id="DejaVuSans-48"/>
      </defs>
      <g transform="translate(70.651477 322.182437)scale(0.1 -0.1)">
       <use xlink:href="#DejaVuSans-48"/>
      </g>
     </g>
    </g>
    <g id="xtick_2">
     <g id="line2d_2">
      <g>
       <use style="stroke:#000000;stroke-width:0.8;" x="144.409802" xlink:href="#m6f030e5e1a" y="307.584"/>
      </g>
     </g>
     <g id="text_2">
      <!-- 10 -->
      <defs>
       <path d="M 12.40625 8.296875 
L 28.515625 8.296875 
L 28.515625 63.921875 
L 10.984375 60.40625 
L 10.984375 69.390625 
L 28.421875 72.90625 
L 38.28125 72.90625 
L 38.28125 8.296875 
L 54.390625 8.296875 
L 54.390625 0 
L 12.40625 0 
z
" id="DejaVuSans-49"/>
      </defs>
      <g transform="translate(138.047302 322.182437)scale(0.1 -0.1)">
       <use xlink:href="#DejaVuSans-49"/>
       <use x="63.623047" xlink:href="#DejaVuSans-48"/>
      </g>
     </g>
    </g>
    <g id="xtick_3">
     <g id="line2d_3">
      <g>
       <use style="stroke:#000000;stroke-width:0.8;" x="214.986877" xlink:href="#m6f030e5e1a" y="307.584"/>
      </g>
     </g>
     <g id="text_3">
      <!-- 20 -->
      <defs>
       <path d="M 19.1875 8.296875 
L 53.609375 8.296875 
L 53.609375 0 
L 7.328125 0 
L 7.328125 8.296875 
Q 12.9375 14.109375 22.625 23.890625 
Q 32.328125 33.6875 34.8125 36.53125 
Q 39.546875 41.84375 41.421875 45.53125 
Q 43.3125 49.21875 43.3125 52.78125 
Q 43.3125 58.59375 39.234375 62.25 
Q 35.15625 65.921875 28.609375 65.921875 
Q 23.96875 65.921875 18.8125 64.3125 
Q 13.671875 62.703125 7.8125 59.421875 
L 7.8125 69.390625 
Q 13.765625 71.78125 18.9375 73 
Q 24.125 74.21875 28.421875 74.21875 
Q 39.75 74.21875 46.484375 68.546875 
Q 53.21875 62.890625 53.21875 53.421875 
Q 53.21875 48.921875 51.53125 44.890625 
Q 49.859375 40.875 45.40625 35.40625 
Q 44.1875 33.984375 37.640625 27.21875 
Q 31.109375 20.453125 19.1875 8.296875 
z
" id="DejaVuSans-50"/>
      </defs>
      <g transform="translate(208.624377 322.182437)scale(0.1 -0.1)">
       <use xlink:href="#DejaVuSans-50"/>
       <use x="63.623047" xlink:href="#DejaVuSans-48"/>
      </g>
     </g>
    </g>
    <g id="xtick_4">
     <g id="line2d_4">
      <g>
       <use style="stroke:#000000;stroke-width:0.8;" x="285.563953" xlink:href="#m6f030e5e1a" y="307.584"/>
      </g>
     </g>
     <g id="text_4">
      <!-- 30 -->
      <defs>
       <path d="M 40.578125 39.3125 
Q 47.65625 37.796875 51.625 33 
Q 55.609375 28.21875 55.609375 21.1875 
Q 55.609375 10.40625 48.1875 4.484375 
Q 40.765625 -1.421875 27.09375 -1.421875 
Q 22.515625 -1.421875 17.65625 -0.515625 
Q 12.796875 0.390625 7.625 2.203125 
L 7.625 11.71875 
Q 11.71875 9.328125 16.59375 8.109375 
Q 21.484375 6.890625 26.8125 6.890625 
Q 36.078125 6.890625 40.9375 10.546875 
Q 45.796875 14.203125 45.796875 21.1875 
Q 45.796875 27.640625 41.28125 31.265625 
Q 36.765625 34.90625 28.71875 34.90625 
L 20.21875 34.90625 
L 20.21875 43.015625 
L 29.109375 43.015625 
Q 36.375 43.015625 40.234375 45.921875 
Q 44.09375 48.828125 44.09375 54.296875 
Q 44.09375 59.90625 40.109375 62.90625 
Q 36.140625 65.921875 28.71875 65.921875 
Q 24.65625 65.921875 20.015625 65.03125 
Q 15.375 64.15625 9.8125 62.3125 
L 9.8125 71.09375 
Q 15.4375 72.65625 20.34375 73.4375 
Q 25.25 74.21875 29.59375 74.21875 
Q 40.828125 74.21875 47.359375 69.109375 
Q 53.90625 64.015625 53.90625 55.328125 
Q 53.90625 49.265625 50.4375 45.09375 
Q 46.96875 40.921875 40.578125 39.3125 
z
" id="DejaVuSans-51"/>
      </defs>
      <g transform="translate(279.201453 322.182437)scale(0.1 -0.1)">
       <use xlink:href="#DejaVuSans-51"/>
       <use x="63.623047" xlink:href="#DejaVuSans-48"/>
      </g>
     </g>
    </g>
    <g id="xtick_5">
     <g id="line2d_5">
      <g>
       <use style="stroke:#000000;stroke-width:0.8;" x="356.141028" xlink:href="#m6f030e5e1a" y="307.584"/>
      </g>
     </g>
     <g id="text_5">
      <!-- 40 -->
      <defs>
       <path d="M 37.796875 64.3125 
L 12.890625 25.390625 
L 37.796875 25.390625 
z
M 35.203125 72.90625 
L 47.609375 72.90625 
L 47.609375 25.390625 
L 58.015625 25.390625 
L 58.015625 17.1875 
L 47.609375 17.1875 
L 47.609375 0 
L 37.796875 0 
L 37.796875 17.1875 
L 4.890625 17.1875 
L 4.890625 26.703125 
z
" id="DejaVuSans-52"/>
      </defs>
      <g transform="translate(349.778528 322.182437)scale(0.1 -0.1)">
       <use xlink:href="#DejaVuSans-52"/>
       <use x="63.623047" xlink:href="#DejaVuSans-48"/>
      </g>
     </g>
    </g>
    <g id="text_6">
     <!-- Generations -->
     <defs>
      <path d="M 59.515625 10.40625 
L 59.515625 29.984375 
L 43.40625 29.984375 
L 43.40625 38.09375 
L 69.28125 38.09375 
L 69.28125 6.78125 
Q 63.578125 2.734375 56.6875 0.65625 
Q 49.8125 -1.421875 42 -1.421875 
Q 24.90625 -1.421875 15.25 8.5625 
Q 5.609375 18.5625 5.609375 36.375 
Q 5.609375 54.25 15.25 64.234375 
Q 24.90625 74.21875 42 74.21875 
Q 49.125 74.21875 55.546875 72.453125 
Q 61.96875 70.703125 67.390625 67.28125 
L 67.390625 56.78125 
Q 61.921875 61.421875 55.765625 63.765625 
Q 49.609375 66.109375 42.828125 66.109375 
Q 29.4375 66.109375 22.71875 58.640625 
Q 16.015625 51.171875 16.015625 36.375 
Q 16.015625 21.625 22.71875 14.15625 
Q 29.4375 6.6875 42.828125 6.6875 
Q 48.046875 6.6875 52.140625 7.59375 
Q 56.25 8.5 59.515625 10.40625 
z
" id="DejaVuSans-71"/>
      <path d="M 56.203125 29.59375 
L 56.203125 25.203125 
L 14.890625 25.203125 
Q 15.484375 15.921875 20.484375 11.0625 
Q 25.484375 6.203125 34.421875 6.203125 
Q 39.59375 6.203125 44.453125 7.46875 
Q 49.3125 8.734375 54.109375 11.28125 
L 54.109375 2.78125 
Q 49.265625 0.734375 44.1875 -0.34375 
Q 39.109375 -1.421875 33.890625 -1.421875 
Q 20.796875 -1.421875 13.15625 6.1875 
Q 5.515625 13.8125 5.515625 26.8125 
Q 5.515625 40.234375 12.765625 48.109375 
Q 20.015625 56 32.328125 56 
Q 43.359375 56 49.78125 48.890625 
Q 56.203125 41.796875 56.203125 29.59375 
z
M 47.21875 32.234375 
Q 47.125 39.59375 43.09375 43.984375 
Q 39.0625 48.390625 32.421875 48.390625 
Q 24.90625 48.390625 20.390625 44.140625 
Q 15.875 39.890625 15.1875 32.171875 
z
" id="DejaVuSans-101"/>
      <path d="M 54.890625 33.015625 
L 54.890625 0 
L 45.90625 0 
L 45.90625 32.71875 
Q 45.90625 40.484375 42.875 44.328125 
Q 39.84375 48.1875 33.796875 48.1875 
Q 26.515625 48.1875 22.3125 43.546875 
Q 18.109375 38.921875 18.109375 30.90625 
L 18.109375 0 
L 9.078125 0 
L 9.078125 54.6875 
L 18.109375 54.6875 
L 18.109375 46.1875 
Q 21.34375 51.125 25.703125 53.5625 
Q 30.078125 56 35.796875 56 
Q 45.21875 56 50.046875 50.171875 
Q 54.890625 44.34375 54.890625 33.015625 
z
" id="DejaVuSans-110"/>
      <path d="M 41.109375 46.296875 
Q 39.59375 47.171875 37.8125 47.578125 
Q 36.03125 48 33.890625 48 
Q 26.265625 48 22.1875 43.046875 
Q 18.109375 38.09375 18.109375 28.8125 
L 18.109375 0 
L 9.078125 0 
L 9.078125 54.6875 
L 18.109375 54.6875 
L 18.109375 46.1875 
Q 20.953125 51.171875 25.484375 53.578125 
Q 30.03125 56 36.53125 56 
Q 37.453125 56 38.578125 55.875 
Q 39.703125 55.765625 41.0625 55.515625 
z
" id="DejaVuSans-114"/>
      <path d="M 34.28125 27.484375 
Q 23.390625 27.484375 19.1875 25 
Q 14.984375 22.515625 14.984375 16.5 
Q 14.984375 11.71875 18.140625 8.90625 
Q 21.296875 6.109375 26.703125 6.109375 
Q 34.1875 6.109375 38.703125 11.40625 
Q 43.21875 16.703125 43.21875 25.484375 
L 43.21875 27.484375 
z
M 52.203125 31.203125 
L 52.203125 0 
L 43.21875 0 
L 43.21875 8.296875 
Q 40.140625 3.328125 35.546875 0.953125 
Q 30.953125 -1.421875 24.3125 -1.421875 
Q 15.921875 -1.421875 10.953125 3.296875 
Q 6 8.015625 6 15.921875 
Q 6 25.140625 12.171875 29.828125 
Q 18.359375 34.515625 30.609375 34.515625 
L 43.21875 34.515625 
L 43.21875 35.40625 
Q 43.21875 41.609375 39.140625 45 
Q 35.0625 48.390625 27.6875 48.390625 
Q 23 48.390625 18.546875 47.265625 
Q 14.109375 46.140625 10.015625 43.890625 
L 10.015625 52.203125 
Q 14.9375 54.109375 19.578125 55.046875 
Q 24.21875 56 28.609375 56 
Q 40.484375 56 46.34375 49.84375 
Q 52.203125 43.703125 52.203125 31.203125 
z
" id="DejaVuSans-97"/>
      <path d="M 18.3125 70.21875 
L 18.3125 54.6875 
L 36.8125 54.6875 
L 36.8125 47.703125 
L 18.3125 47.703125 
L 18.3125 18.015625 
Q 18.3125 11.328125 20.140625 9.421875 
Q 21.96875 7.515625 27.59375 7.515625 
L 36.8125 7.515625 
L 36.8125 0 
L 27.59375 0 
Q 17.1875 0 13.234375 3.875 
Q 9.28125 7.765625 9.28125 18.015625 
L 9.28125 47.703125 
L 2.6875 47.703125 
L 2.6875 54.6875 
L 9.28125 54.6875 
L 9.28125 70.21875 
z
" id="DejaVuSans-116"/>
      <path d="M 9.421875 54.6875 
L 18.40625 54.6875 
L 18.40625 0 
L 9.421875 0 
z
M 9.421875 75.984375 
L 18.40625 75.984375 
L 18.40625 64.59375 
L 9.421875 64.59375 
z
" id="DejaVuSans-105"/>
      <path d="M 30.609375 48.390625 
Q 23.390625 48.390625 19.1875 42.75 
Q 14.984375 37.109375 14.984375 27.296875 
Q 14.984375 17.484375 19.15625 11.84375 
Q 23.34375 6.203125 30.609375 6.203125 
Q 37.796875 6.203125 41.984375 11.859375 
Q 46.1875 17.53125 46.1875 27.296875 
Q 46.1875 37.015625 41.984375 42.703125 
Q 37.796875 48.390625 30.609375 48.390625 
z
M 30.609375 56 
Q 42.328125 56 49.015625 48.375 
Q 55.71875 40.765625 55.71875 27.296875 
Q 55.71875 13.875 49.015625 6.21875 
Q 42.328125 -1.421875 30.609375 -1.421875 
Q 18.84375 -1.421875 12.171875 6.21875 
Q 5.515625 13.875 5.515625 27.296875 
Q 5.515625 40.765625 12.171875 48.375 
Q 18.84375 56 30.609375 56 
z
" id="DejaVuSans-111"/>
      <path d="M 44.28125 53.078125 
L 44.28125 44.578125 
Q 40.484375 46.53125 36.375 47.5 
Q 32.28125 48.484375 27.875 48.484375 
Q 21.1875 48.484375 17.84375 46.4375 
Q 14.5 44.390625 14.5 40.28125 
Q 14.5 37.15625 16.890625 35.375 
Q 19.28125 33.59375 26.515625 31.984375 
L 29.59375 31.296875 
Q 39.15625 29.25 43.1875 25.515625 
Q 47.21875 21.78125 47.21875 15.09375 
Q 47.21875 7.46875 41.1875 3.015625 
Q 35.15625 -1.421875 24.609375 -1.421875 
Q 20.21875 -1.421875 15.453125 -0.5625 
Q 10.6875 0.296875 5.421875 2 
L 5.421875 11.28125 
Q 10.40625 8.6875 15.234375 7.390625 
Q 20.0625 6.109375 24.8125 6.109375 
Q 31.15625 6.109375 34.5625 8.28125 
Q 37.984375 10.453125 37.984375 14.40625 
Q 37.984375 18.0625 35.515625 20.015625 
Q 33.0625 21.96875 24.703125 23.78125 
L 21.578125 24.515625 
Q 13.234375 26.265625 9.515625 29.90625 
Q 5.8125 33.546875 5.8125 39.890625 
Q 5.8125 47.609375 11.28125 51.796875 
Q 16.75 56 26.8125 56 
Q 31.78125 56 36.171875 55.265625 
Q 40.578125 54.546875 44.28125 53.078125 
z
" id="DejaVuSans-115"/>
     </defs>
     <g transform="translate(205.662344 335.860562)scale(0.1 -0.1)">
      <use xlink:href="#DejaVuSans-71"/>
      <use x="77.490234" xlink:href="#DejaVuSans-101"/>
      <use x="139.013672" xlink:href="#DejaVuSans-110"/>
      <use x="202.392578" xlink:href="#DejaVuSans-101"/>
      <use x="263.916016" xlink:href="#DejaVuSans-114"/>
      <use x="305.029297" xlink:href="#DejaVuSans-97"/>
      <use x="366.308594" xlink:href="#DejaVuSans-116"/>
      <use x="405.517578" xlink:href="#DejaVuSans-105"/>
      <use x="433.300781" xlink:href="#DejaVuSans-111"/>
      <use x="494.482422" xlink:href="#DejaVuSans-110"/>
      <use x="557.861328" xlink:href="#DejaVuSans-115"/>
     </g>
    </g>
   </g>
   <g id="matplotlib.axis_2">
    <g id="ytick_1">
     <g id="line2d_6">
      <defs>
       <path d="M 0 0 
L -3.5 0 
" id="m20d0a9ae7d" style="stroke:#000000;stroke-width:0.8;"/>
      </defs>
      <g>
       <use style="stroke:#000000;stroke-width:0.8;" x="57.6" xlink:href="#m20d0a9ae7d" y="307.584"/>
      </g>
     </g>
     <g id="text_7">
      <!-- 0 -->
      <g transform="translate(44.2375 311.383219)scale(0.1 -0.1)">
       <use xlink:href="#DejaVuSans-48"/>
      </g>
     </g>
    </g>
    <g id="ytick_2">
     <g id="line2d_7">
      <g>
       <use style="stroke:#000000;stroke-width:0.8;" x="57.6" xlink:href="#m20d0a9ae7d" y="257.497043"/>
      </g>
     </g>
     <g id="text_8">
      <!-- 50 -->
      <defs>
       <path d="M 10.796875 72.90625 
L 49.515625 72.90625 
L 49.515625 64.59375 
L 19.828125 64.59375 
L 19.828125 46.734375 
Q 21.96875 47.46875 24.109375 47.828125 
Q 26.265625 48.1875 28.421875 48.1875 
Q 40.625 48.1875 47.75 41.5 
Q 54.890625 34.8125 54.890625 23.390625 
Q 54.890625 11.625 47.5625 5.09375 
Q 40.234375 -1.421875 26.90625 -1.421875 
Q 22.3125 -1.421875 17.546875 -0.640625 
Q 12.796875 0.140625 7.71875 1.703125 
L 7.71875 11.625 
Q 12.109375 9.234375 16.796875 8.0625 
Q 21.484375 6.890625 26.703125 6.890625 
Q 35.15625 6.890625 40.078125 11.328125 
Q 45.015625 15.765625 45.015625 23.390625 
Q 45.015625 31 40.078125 35.4375 
Q 35.15625 39.890625 26.703125 39.890625 
Q 22.75 39.890625 18.8125 39.015625 
Q 14.890625 38.140625 10.796875 36.28125 
z
" id="DejaVuSans-53"/>
      </defs>
      <g transform="translate(37.875 261.296262)scale(0.1 -0.1)">
       <use xlink:href="#DejaVuSans-53"/>
       <use x="63.623047" xlink:href="#DejaVuSans-48"/>
      </g>
     </g>
    </g>
    <g id="ytick_3">
     <g id="line2d_8">
      <g>
       <use style="stroke:#000000;stroke-width:0.8;" x="57.6" xlink:href="#m20d0a9ae7d" y="207.410087"/>
      </g>
     </g>
     <g id="text_9">
      <!-- 100 -->
      <g transform="translate(31.5125 211.209306)scale(0.1 -0.1)">
       <use xlink:href="#DejaVuSans-49"/>
       <use x="63.623047" xlink:href="#DejaVuSans-48"/>
       <use x="127.246094" xlink:href="#DejaVuSans-48"/>
      </g>
     </g>
    </g>
    <g id="ytick_4">
     <g id="line2d_9">
      <g>
       <use style="stroke:#000000;stroke-width:0.8;" x="57.6" xlink:href="#m20d0a9ae7d" y="157.32313"/>
      </g>
     </g>
     <g id="text_10">
      <!-- 150 -->
      <g transform="translate(31.5125 161.122349)scale(0.1 -0.1)">
       <use xlink:href="#DejaVuSans-49"/>
       <use x="63.623047" xlink:href="#DejaVuSans-53"/>
       <use x="127.246094" xlink:href="#DejaVuSans-48"/>
      </g>
     </g>
    </g>
    <g id="ytick_5">
     <g id="line2d_10">
      <g>
       <use style="stroke:#000000;stroke-width:0.8;" x="57.6" xlink:href="#m20d0a9ae7d" y="107.236174"/>
      </g>
     </g>
     <g id="text_11">
      <!-- 200 -->
      <g transform="translate(31.5125 111.035393)scale(0.1 -0.1)">
       <use xlink:href="#DejaVuSans-50"/>
       <use x="63.623047" xlink:href="#DejaVuSans-48"/>
       <use x="127.246094" xlink:href="#DejaVuSans-48"/>
      </g>
     </g>
    </g>
    <g id="ytick_6">
     <g id="line2d_11">
      <g>
       <use style="stroke:#000000;stroke-width:0.8;" x="57.6" xlink:href="#m20d0a9ae7d" y="57.149217"/>
      </g>
     </g>
     <g id="text_12">
      <!-- 250 -->
      <g transform="translate(31.5125 60.948436)scale(0.1 -0.1)">
       <use xlink:href="#DejaVuSans-50"/>
       <use x="63.623047" xlink:href="#DejaVuSans-53"/>
       <use x="127.246094" xlink:href="#DejaVuSans-48"/>
      </g>
     </g>
    </g>
    <g id="text_13">
     <!-- Size per Species -->
     <defs>
      <path d="M 53.515625 70.515625 
L 53.515625 60.890625 
Q 47.90625 63.578125 42.921875 64.890625 
Q 37.9375 66.21875 33.296875 66.21875 
Q 25.25 66.21875 20.875 63.09375 
Q 16.5 59.96875 16.5 54.203125 
Q 16.5 49.359375 19.40625 46.890625 
Q 22.3125 44.4375 30.421875 42.921875 
L 36.375 41.703125 
Q 47.40625 39.59375 52.65625 34.296875 
Q 57.90625 29 57.90625 20.125 
Q 57.90625 9.515625 50.796875 4.046875 
Q 43.703125 -1.421875 29.984375 -1.421875 
Q 24.8125 -1.421875 18.96875 -0.25 
Q 13.140625 0.921875 6.890625 3.21875 
L 6.890625 13.375 
Q 12.890625 10.015625 18.65625 8.296875 
Q 24.421875 6.59375 29.984375 6.59375 
Q 38.421875 6.59375 43.015625 9.90625 
Q 47.609375 13.234375 47.609375 19.390625 
Q 47.609375 24.75 44.3125 27.78125 
Q 41.015625 30.8125 33.5 32.328125 
L 27.484375 33.5 
Q 16.453125 35.6875 11.515625 40.375 
Q 6.59375 45.0625 6.59375 53.421875 
Q 6.59375 63.09375 13.40625 68.65625 
Q 20.21875 74.21875 32.171875 74.21875 
Q 37.3125 74.21875 42.625 73.28125 
Q 47.953125 72.359375 53.515625 70.515625 
z
" id="DejaVuSans-83"/>
      <path d="M 5.515625 54.6875 
L 48.1875 54.6875 
L 48.1875 46.484375 
L 14.40625 7.171875 
L 48.1875 7.171875 
L 48.1875 0 
L 4.296875 0 
L 4.296875 8.203125 
L 38.09375 47.515625 
L 5.515625 47.515625 
z
" id="DejaVuSans-122"/>
      <path id="DejaVuSans-32"/>
      <path d="M 18.109375 8.203125 
L 18.109375 -20.796875 
L 9.078125 -20.796875 
L 9.078125 54.6875 
L 18.109375 54.6875 
L 18.109375 46.390625 
Q 20.953125 51.265625 25.265625 53.625 
Q 29.59375 56 35.59375 56 
Q 45.5625 56 51.78125 48.09375 
Q 58.015625 40.1875 58.015625 27.296875 
Q 58.015625 14.40625 51.78125 6.484375 
Q 45.5625 -1.421875 35.59375 -1.421875 
Q 29.59375 -1.421875 25.265625 0.953125 
Q 20.953125 3.328125 18.109375 8.203125 
z
M 48.6875 27.296875 
Q 48.6875 37.203125 44.609375 42.84375 
Q 40.53125 48.484375 33.40625 48.484375 
Q 26.265625 48.484375 22.1875 42.84375 
Q 18.109375 37.203125 18.109375 27.296875 
Q 18.109375 17.390625 22.1875 11.75 
Q 26.265625 6.109375 33.40625 6.109375 
Q 40.53125 6.109375 44.609375 11.75 
Q 48.6875 17.390625 48.6875 27.296875 
z
" id="DejaVuSans-112"/>
      <path d="M 48.78125 52.59375 
L 48.78125 44.1875 
Q 44.96875 46.296875 41.140625 47.34375 
Q 37.3125 48.390625 33.40625 48.390625 
Q 24.65625 48.390625 19.8125 42.84375 
Q 14.984375 37.3125 14.984375 27.296875 
Q 14.984375 17.28125 19.8125 11.734375 
Q 24.65625 6.203125 33.40625 6.203125 
Q 37.3125 6.203125 41.140625 7.25 
Q 44.96875 8.296875 48.78125 10.40625 
L 48.78125 2.09375 
Q 45.015625 0.34375 40.984375 -0.53125 
Q 36.96875 -1.421875 32.421875 -1.421875 
Q 20.0625 -1.421875 12.78125 6.34375 
Q 5.515625 14.109375 5.515625 27.296875 
Q 5.515625 40.671875 12.859375 48.328125 
Q 20.21875 56 33.015625 56 
Q 37.15625 56 41.109375 55.140625 
Q 45.0625 54.296875 48.78125 52.59375 
z
" id="DejaVuSans-99"/>
     </defs>
     <g transform="translate(25.432812 215.520969)rotate(-90)scale(0.1 -0.1)">
      <use xlink:href="#DejaVuSans-83"/>
      <use x="63.476562" xlink:href="#DejaVuSans-105"/>
      <use x="91.259766" xlink:href="#DejaVuSans-122"/>
      <use x="143.75" xlink:href="#DejaVuSans-101"/>
      <use x="205.273438" xlink:href="#DejaVuSans-32"/>
      <use x="237.060547" xlink:href="#DejaVuSans-112"/>
      <use x="300.537109" xlink:href="#DejaVuSans-101"/>
      <use x="362.060547" xlink:href="#DejaVuSans-114"/>
      <use x="403.173828" xlink:href="#DejaVuSans-32"/>
      <use x="434.960938" xlink:href="#DejaVuSans-83"/>
      <use x="498.4375" xlink:href="#DejaVuSans-112"/>
      <use x="561.914062" xlink:href="#DejaVuSans-101"/>
      <use x="623.4375" xlink:href="#DejaVuSans-99"/>
      <use x="678.417969" xlink:href="#DejaVuSans-105"/>
      <use x="706.201172" xlink:href="#DejaVuSans-101"/>
      <use x="767.724609" xlink:href="#DejaVuSans-115"/>
     </g>
    </g>
   </g>
   <g id="patch_3">
    <path d="M 57.6 307.584 
L 57.6 41.472 
" style="fill:none;stroke:#000000;stroke-linecap:square;stroke-linejoin:miter;stroke-width:0.8;"/>
   </g>
   <g id="patch_4">
    <path d="M 414.72 307.584 
L 414.72 41.472 
" style="fill:none;stroke:#000000;stroke-linecap:square;stroke-linejoin:miter;stroke-width:0.8;"/>
   </g>
   <g id="patch_5">
    <path d="M 57.6 307.584 
L 414.72 307.584 
" style="fill:none;stroke:#000000;stroke-linecap:square;stroke-linejoin:miter;stroke-width:0.8;"/>
   </g>
   <g id="patch_6">
    <path d="M 57.6 41.472 
L 414.72 41.472 
" style="fill:none;stroke:#000000;stroke-linecap:square;stroke-linejoin:miter;stroke-width:0.8;"/>
   </g>
   <g id="text_14">
    <!-- Speciation -->
    <g transform="translate(204.714375 35.472)scale(0.12 -0.12)">
     <use xlink:href="#DejaVuSans-83"/>
     <use x="63.476562" xlink:href="#DejaVuSans-112"/>
     <use x="126.953125" xlink:href="#DejaVuSans-101"/>
     <use x="188.476562" xlink:href="#DejaVuSans-99"/>
     <use x="243.457031" xlink:href="#DejaVuSans-105"/>
     <use x="271.240234" xlink:href="#DejaVuSans-97"/>
     <use x="332.519531" xlink:href="#DejaVuSans-116"/>
     <use x="371.728516" xlink:href="#DejaVuSans-105"/>
     <use x="399.511719" xlink:href="#DejaVuSans-111"/>
     <use x="460.693359" xlink:href="#DejaVuSans-110"/>
    </g>
   </g>
  </g>
 </g>
 <defs>
  <clipPath id="p3be157200e">
   <rect height="266.112" width="357.12" x="57.6" y="41.472"/>
  </clipPath>
 </defs>
</svg>
