<?xml version="1.0" encoding="UTF-8" standalone="no"?>
<!DOCTYPE svg PUBLIC "-//W3C//DTD SVG 1.1//EN"
 "http://www.w3.org/Graphics/SVG/1.1/DTD/svg11.dtd">
<!-- Generated by graphviz version 2.40.1 (20161225.0304)
 -->
<!-- Title: %3 Pages: 1 -->
<svg width="245pt" height="177pt"
 viewBox="0.00 0.00 245.00 177.20" xmlns="http://www.w3.org/2000/svg" xmlns:xlink="http://www.w3.org/1999/xlink">
<g id="graph0" class="graph" transform="scale(1 1) rotate(0) translate(4 173.196)">
<title>%3</title>
<polygon fill="#ffffff" stroke="transparent" points="-4,4 -4,-173.196 241,-173.196 241,4 -4,4"/>
<!-- dx -->
<g id="node1" class="node">
<title>dx</title>
<polygon fill="#d3d3d3" stroke="#000000" points="133.5,-169.196 107.5,-169.196 107.5,-151.196 133.5,-151.196 133.5,-169.196"/>
<text text-anchor="middle" x="120.5" y="-157.996" font-family="Times,serif" font-size="9.00" fill="#000000">dx</text>
</g>
<!-- 0 -->
<g id="node5" class="node">
<title>0</title>
<ellipse fill="#add8e6" stroke="#000000" cx="70.5" cy="-90.4472" rx="14.7" ry="14.7"/>
<text text-anchor="middle" x="70.5" y="-88.2472" font-family="Times,serif" font-size="9.00" fill="#000000">0</text>
</g>
<!-- dx&#45;&gt;0 -->
<g id="edge5" class="edge">
<title>dx&#45;&gt;0</title>
<path fill="none" stroke="#ff0000" stroke-width=".433" d="M113.9634,-151.0775C106.6673,-140.8997 94.631,-124.1094 85.0724,-110.7754"/>
<polygon fill="#ff0000" stroke="#ff0000" stroke-width=".433" points="87.8945,-108.7047 79.2236,-102.6165 82.2053,-112.7831 87.8945,-108.7047"/>
</g>
<!-- 1 -->
<g id="node6" class="node">
<title>1</title>
<ellipse fill="#add8e6" stroke="#000000" cx="169.5" cy="-14.8492" rx="14.7" ry="14.7"/>
<text text-anchor="middle" x="169.5" y="-12.6492" font-family="Times,serif" font-size="9.00" fill="#000000">1</text>
</g>
<!-- dx&#45;&gt;1 -->
<g id="edge3" class="edge">
<title>dx&#45;&gt;1</title>
<path fill="none" stroke="#00ff00" stroke-width=".6348" stroke-dasharray="1,5" d="M120.6624,-150.9987C121.2455,-133.7013 123.8659,-95.3944 135.5,-65.6985 139.9034,-54.4588 147.0999,-43.175 153.7408,-34.1024"/>
<polygon fill="#00ff00" stroke="#00ff00" stroke-width=".6348" points="156.526,-36.222 159.8284,-26.155 150.9689,-31.9654 156.526,-36.222"/>
</g>
<!-- 1868 -->
<g id="node7" class="node">
<title>1868</title>
<ellipse fill="#ffffff" stroke="#000000" cx="169.5" cy="-90.4472" rx="25" ry="25"/>
<text text-anchor="middle" x="169.5" y="-88.2472" font-family="Times,serif" font-size="9.00" fill="#000000">1868</text>
</g>
<!-- dx&#45;&gt;1868 -->
<g id="edge6" class="edge">
<title>dx&#45;&gt;1868</title>
<path fill="none" stroke="#ff0000" stroke-width=".1743" d="M126.9059,-151.0775C132.6114,-142.9561 141.2749,-130.6241 149.3022,-119.1976"/>
<polygon fill="#ff0000" stroke="#ff0000" stroke-width=".1743" points="152.3726,-120.9156 155.2572,-110.721 146.6448,-116.8917 152.3726,-120.9156"/>
</g>
<!-- dz -->
<g id="node2" class="node">
<title>dz</title>
<polygon fill="#d3d3d3" stroke="#000000" points="237,-99.4472 212,-99.4472 212,-81.4472 237,-81.4472 237,-99.4472"/>
<text text-anchor="middle" x="224.5" y="-88.2472" font-family="Times,serif" font-size="9.00" fill="#000000">dz</text>
</g>
<!-- dz&#45;&gt;1 -->
<g id="edge4" class="edge">
<title>dz&#45;&gt;1</title>
<path fill="none" stroke="#ff0000" stroke-width=".6631" d="M217.7559,-81.1774C209.4593,-69.7737 195.1368,-50.0872 184.2441,-35.1152"/>
<polygon fill="#ff0000" stroke="#ff0000" stroke-width=".6631" points="187.0119,-32.9702 178.2986,-26.943 181.3515,-37.0884 187.0119,-32.9702"/>
</g>
<!-- theta -->
<g id="node3" class="node">
<title>theta</title>
<polygon fill="#d3d3d3" stroke="#000000" points="33,-169.196 0,-169.196 0,-151.196 33,-151.196 33,-169.196"/>
<text text-anchor="middle" x="16.5" y="-157.996" font-family="Times,serif" font-size="9.00" fill="#000000">theta</text>
</g>
<!-- theta&#45;&gt;0 -->
<g id="edge1" class="edge">
<title>theta&#45;&gt;0</title>
<path fill="none" stroke="#ff0000" stroke-width=".3536" d="M23.5596,-151.0775C31.4393,-140.8997 44.4385,-124.1094 54.7618,-110.7754"/>
<polygon fill="#ff0000" stroke="#ff0000" stroke-width=".3536" points="57.7242,-112.6663 61.0785,-102.6165 52.1891,-108.381 57.7242,-112.6663"/>
</g>
<!-- dtheta -->
<g id="node4" class="node">
<title>dtheta</title>
<polygon fill="#d3d3d3" stroke="#000000" points="89.5,-169.196 51.5,-169.196 51.5,-151.196 89.5,-151.196 89.5,-169.196"/>
<text text-anchor="middle" x="70.5" y="-157.996" font-family="Times,serif" font-size="9.00" fill="#000000">dtheta</text>
</g>
<!-- dtheta&#45;&gt;0 -->
<g id="edge2" class="edge">
<title>dtheta&#45;&gt;0</title>
<path fill="none" stroke="#ff0000" stroke-width=".9085" d="M70.5,-151.0775C70.5,-142.1097 70.5,-128.0079 70.5,-115.6603"/>
<polygon fill="#ff0000" stroke="#ff0000" stroke-width=".9085" points="74.0001,-115.4341 70.5,-105.4342 67.0001,-115.4342 74.0001,-115.4341"/>
</g>
<!-- 1868&#45;&gt;1 -->
<g id="edge7" class="edge">
<title>1868&#45;&gt;1</title>
<path fill="none" stroke="#ff0000" stroke-width=".2269" d="M169.5,-65.6936C169.5,-57.4298 169.5,-48.2178 169.5,-39.9294"/>
<polygon fill="#ff0000" stroke="#ff0000" stroke-width=".2269" points="173.0001,-39.7229 169.5,-29.7229 166.0001,-39.723 173.0001,-39.7229"/>
</g>
</g>
</svg>
