<?xml version="1.0" encoding="UTF-8" standalone="no"?>
<!DOCTYPE svg PUBLIC "-//W3C//DTD SVG 1.1//EN"
 "http://www.w3.org/Graphics/SVG/1.1/DTD/svg11.dtd">
<!-- Generated by graphviz version 2.40.1 (20161225.0304)
 -->
<!-- Title: %3 Pages: 1 -->
<svg width="185pt" height="92pt"
 viewBox="0.00 0.00 185.00 91.70" xmlns="http://www.w3.org/2000/svg" xmlns:xlink="http://www.w3.org/1999/xlink">
<g id="graph0" class="graph" transform="scale(1 1) rotate(0) translate(4 87.6985)">
<title>%3</title>
<polygon fill="#ffffff" stroke="transparent" points="-4,4 -4,-87.6985 181,-87.6985 181,4 -4,4"/>
<!-- dx -->
<g id="node1" class="node">
<title>dx</title>
<polygon fill="#d3d3d3" stroke="#000000" points="26,-83.6985 0,-83.6985 0,-65.6985 26,-65.6985 26,-83.6985"/>
<text text-anchor="middle" x="13" y="-72.4985" font-family="Times,serif" font-size="9.00" fill="#000000">dx</text>
</g>
<!-- 1 -->
<g id="node6" class="node">
<title>1</title>
<ellipse fill="#add8e6" stroke="#000000" cx="84" cy="-14.8492" rx="14.7" ry="14.7"/>
<text text-anchor="middle" x="84" y="-12.6492" font-family="Times,serif" font-size="9.00" fill="#000000">1</text>
</g>
<!-- dx&#45;&gt;1 -->
<g id="edge4" class="edge">
<title>dx&#45;&gt;1</title>
<path fill="none" stroke="#00ff00" stroke-width=".4492" d="M23.7834,-65.6087C34.603,-56.4883 51.5036,-42.242 64.6494,-31.1607"/>
<polygon fill="#00ff00" stroke="#00ff00" stroke-width=".4492" points="67.2541,-33.5427 72.6443,-24.4215 62.7425,-28.1906 67.2541,-33.5427"/>
</g>
<!-- dz -->
<g id="node2" class="node">
<title>dz</title>
<polygon fill="#d3d3d3" stroke="#000000" points="120.5,-83.6985 95.5,-83.6985 95.5,-65.6985 120.5,-65.6985 120.5,-83.6985"/>
<text text-anchor="middle" x="108" y="-72.4985" font-family="Times,serif" font-size="9.00" fill="#000000">dz</text>
</g>
<!-- 0 -->
<g id="node5" class="node">
<title>0</title>
<ellipse fill="#add8e6" stroke="#000000" cx="145" cy="-14.8492" rx="14.7" ry="14.7"/>
<text text-anchor="middle" x="145" y="-12.6492" font-family="Times,serif" font-size="9.00" fill="#000000">0</text>
</g>
<!-- dz&#45;&gt;0 -->
<g id="edge2" class="edge">
<title>dz&#45;&gt;0</title>
<path fill="none" stroke="#ff0000" stroke-width="1.1744" d="M113.6195,-65.6087C118.3867,-57.8975 125.4193,-46.522 131.6192,-36.4933"/>
<polygon fill="#ff0000" stroke="#ff0000" stroke-width="1.1744" points="134.7086,-38.152 136.9901,-27.8057 128.7545,-34.471 134.7086,-38.152"/>
</g>
<!-- dz&#45;&gt;1 -->
<g id="edge3" class="edge">
<title>dz&#45;&gt;1</title>
<path fill="none" stroke="#ff0000" stroke-width=".8185" d="M104.3549,-65.6087C101.4352,-58.3277 97.2054,-47.7799 93.3572,-38.1836"/>
<polygon fill="#ff0000" stroke="#ff0000" stroke-width=".8185" points="96.5266,-36.6832 89.556,-28.7044 90.0295,-39.2887 96.5266,-36.6832"/>
</g>
<!-- theta -->
<g id="node3" class="node">
<title>theta</title>
<polygon fill="#d3d3d3" stroke="#000000" points="77.5,-83.6985 44.5,-83.6985 44.5,-65.6985 77.5,-65.6985 77.5,-83.6985"/>
<text text-anchor="middle" x="61" y="-72.4985" font-family="Times,serif" font-size="9.00" fill="#000000">theta</text>
</g>
<!-- theta&#45;&gt;1 -->
<g id="edge6" class="edge">
<title>theta&#45;&gt;1</title>
<path fill="none" stroke="#ff0000" stroke-width=".1748" d="M64.4932,-65.6087C67.254,-58.4248 71.2369,-48.0606 74.8849,-38.5679"/>
<polygon fill="#ff0000" stroke="#ff0000" stroke-width=".1748" points="78.1798,-39.7509 78.5001,-29.1609 71.6457,-37.2398 78.1798,-39.7509"/>
</g>
<!-- dtheta -->
<g id="node4" class="node">
<title>dtheta</title>
<polygon fill="#d3d3d3" stroke="#000000" points="177,-83.6985 139,-83.6985 139,-65.6985 177,-65.6985 177,-83.6985"/>
<text text-anchor="middle" x="158" y="-72.4985" font-family="Times,serif" font-size="9.00" fill="#000000">dtheta</text>
</g>
<!-- dtheta&#45;&gt;0 -->
<g id="edge1" class="edge">
<title>dtheta&#45;&gt;0</title>
<path fill="none" stroke="#ff0000" stroke-width=".1991" d="M156.0256,-65.6087C154.5186,-58.6711 152.3675,-48.7675 150.3647,-39.5471"/>
<polygon fill="#ff0000" stroke="#ff0000" stroke-width=".1991" points="153.7517,-38.651 148.2088,-29.6218 146.9113,-40.1369 153.7517,-38.651"/>
</g>
<!-- dtheta&#45;&gt;1 -->
<g id="edge5" class="edge">
<title>dtheta&#45;&gt;1</title>
<path fill="none" stroke="#00ff00" stroke-width="1.5245" d="M146.761,-65.6087C135.3768,-56.4014 117.5334,-41.9702 103.7778,-30.845"/>
<polygon fill="#00ff00" stroke="#00ff00" stroke-width="1.5245" points="105.8118,-27.9886 95.8355,-24.4215 101.4099,-33.4314 105.8118,-27.9886"/>
</g>
</g>
</svg>
