<?xml version="1.0" encoding="UTF-8" standalone="no"?>
<!DOCTYPE svg PUBLIC "-//W3C//DTD SVG 1.1//EN"
 "http://www.w3.org/Graphics/SVG/1.1/DTD/svg11.dtd">
<!-- Generated by graphviz version 2.40.1 (20161225.0304)
 -->
<!-- Title: %3 Pages: 1 -->
<svg width="202pt" height="177pt"
 viewBox="0.00 0.00 202.00 177.20" xmlns="http://www.w3.org/2000/svg" xmlns:xlink="http://www.w3.org/1999/xlink">
<g id="graph0" class="graph" transform="scale(1 1) rotate(0) translate(4 173.196)">
<title>%3</title>
<polygon fill="#ffffff" stroke="transparent" points="-4,4 -4,-173.196 198,-173.196 198,4 -4,4"/>
<!-- dx -->
<g id="node1" class="node">
<title>dx</title>
<polygon fill="#d3d3d3" stroke="#000000" points="137.5,-169.196 111.5,-169.196 111.5,-151.196 137.5,-151.196 137.5,-169.196"/>
<text text-anchor="middle" x="124.5" y="-157.996" font-family="Times,serif" font-size="9.00" fill="#000000">dx</text>
</g>
<!-- 0 -->
<g id="node5" class="node">
<title>0</title>
<ellipse fill="#add8e6" stroke="#000000" cx="68.5" cy="-90.4472" rx="14.7" ry="14.7"/>
<text text-anchor="middle" x="68.5" y="-88.2472" font-family="Times,serif" font-size="9.00" fill="#000000">0</text>
</g>
<!-- dx&#45;&gt;0 -->
<g id="edge4" class="edge">
<title>dx&#45;&gt;0</title>
<path fill="none" stroke="#ff0000" stroke-width=".433" d="M117.179,-151.0775C108.9101,-140.7786 95.205,-123.7086 84.44,-110.3007"/>
<polygon fill="#ff0000" stroke="#ff0000" stroke-width=".433" points="86.867,-107.733 77.8771,-102.1265 81.4086,-112.1155 86.867,-107.733"/>
</g>
<!-- 1868 -->
<g id="node7" class="node">
<title>1868</title>
<ellipse fill="#ffffff" stroke="#000000" cx="126.5" cy="-90.4472" rx="25" ry="25"/>
<text text-anchor="middle" x="126.5" y="-88.2472" font-family="Times,serif" font-size="9.00" fill="#000000">1868</text>
</g>
<!-- dx&#45;&gt;1868 -->
<g id="edge5" class="edge">
<title>dx&#45;&gt;1868</title>
<path fill="none" stroke="#ff0000" stroke-width=".1743" d="M124.7615,-151.0775C124.9512,-144.4608 125.2211,-135.0493 125.4917,-125.6096"/>
<polygon fill="#ff0000" stroke="#ff0000" stroke-width=".1743" points="128.9939,-125.5827 125.782,-115.4865 121.9967,-125.382 128.9939,-125.5827"/>
</g>
<!-- dz -->
<g id="node2" class="node">
<title>dz</title>
<polygon fill="#d3d3d3" stroke="#000000" points="194,-99.4472 169,-99.4472 169,-81.4472 194,-81.4472 194,-99.4472"/>
<text text-anchor="middle" x="181.5" y="-88.2472" font-family="Times,serif" font-size="9.00" fill="#000000">dz</text>
</g>
<!-- 1 -->
<g id="node6" class="node">
<title>1</title>
<ellipse fill="#add8e6" stroke="#000000" cx="153.5" cy="-14.8492" rx="14.7" ry="14.7"/>
<text text-anchor="middle" x="153.5" y="-12.6492" font-family="Times,serif" font-size="9.00" fill="#000000">1</text>
</g>
<!-- dz&#45;&gt;1 -->
<g id="edge3" class="edge">
<title>dz&#45;&gt;1</title>
<path fill="none" stroke="#ff0000" stroke-width=".6631" d="M178.0667,-81.1774C174.1653,-70.6441 167.6467,-53.0444 162.3044,-38.6204"/>
<polygon fill="#ff0000" stroke="#ff0000" stroke-width=".6631" points="165.4318,-36.987 158.6764,-28.8252 158.8676,-39.4183 165.4318,-36.987"/>
</g>
<!-- theta -->
<g id="node3" class="node">
<title>theta</title>
<polygon fill="#d3d3d3" stroke="#000000" points="33,-169.196 0,-169.196 0,-151.196 33,-151.196 33,-169.196"/>
<text text-anchor="middle" x="16.5" y="-157.996" font-family="Times,serif" font-size="9.00" fill="#000000">theta</text>
</g>
<!-- theta&#45;&gt;0 -->
<g id="edge1" class="edge">
<title>theta&#45;&gt;0</title>
<path fill="none" stroke="#ff0000" stroke-width=".3536" d="M23.2981,-151.0775C30.886,-140.8997 43.4038,-124.1094 53.3447,-110.7754"/>
<polygon fill="#ff0000" stroke="#ff0000" stroke-width=".3536" points="56.2563,-112.7256 59.4274,-102.6165 50.6443,-108.5417 56.2563,-112.7256"/>
</g>
<!-- dtheta -->
<g id="node4" class="node">
<title>dtheta</title>
<polygon fill="#d3d3d3" stroke="#000000" points="89.5,-169.196 51.5,-169.196 51.5,-151.196 89.5,-151.196 89.5,-169.196"/>
<text text-anchor="middle" x="70.5" y="-157.996" font-family="Times,serif" font-size="9.00" fill="#000000">dtheta</text>
</g>
<!-- dtheta&#45;&gt;0 -->
<g id="edge2" class="edge">
<title>dtheta&#45;&gt;0</title>
<path fill="none" stroke="#ff0000" stroke-width=".9085" d="M70.2385,-151.0775C69.9814,-142.1097 69.577,-128.0079 69.223,-115.6603"/>
<polygon fill="#ff0000" stroke="#ff0000" stroke-width=".9085" points="72.715,-115.3297 68.9297,-105.4342 65.7179,-115.5304 72.715,-115.3297"/>
</g>
<!-- 1868&#45;&gt;1 -->
<g id="edge6" class="edge">
<title>1868&#45;&gt;1</title>
<path fill="none" stroke="#ff0000" stroke-width=".2269" d="M134.895,-66.9419C138.1342,-57.8723 141.8333,-47.515 145.0754,-38.4375"/>
<polygon fill="#ff0000" stroke="#ff0000" stroke-width=".2269" points="148.4253,-39.464 148.4927,-28.8694 141.8331,-37.1095 148.4253,-39.464"/>
</g>
</g>
</svg>
