<?xml version="1.0" encoding="UTF-8" standalone="no"?>
<!DOCTYPE svg PUBLIC "-//W3C//DTD SVG 1.1//EN"
 "http://www.w3.org/Graphics/SVG/1.1/DTD/svg11.dtd">
<!-- Generated by graphviz version 2.40.1 (20161225.0304)
 -->
<!-- Title: %3 Pages: 1 -->
<svg width="186pt" height="92pt"
 viewBox="0.00 0.00 185.50 91.70" xmlns="http://www.w3.org/2000/svg" xmlns:xlink="http://www.w3.org/1999/xlink">
<g id="graph0" class="graph" transform="scale(1 1) rotate(0) translate(4 87.6985)">
<title>%3</title>
<polygon fill="#ffffff" stroke="transparent" points="-4,4 -4,-87.6985 181.5,-87.6985 181.5,4 -4,4"/>
<!-- dx -->
<g id="node1" class="node">
<title>dx</title>
<polygon fill="#d3d3d3" stroke="#000000" points="77.5,-83.6985 51.5,-83.6985 51.5,-65.6985 77.5,-65.6985 77.5,-83.6985"/>
<text text-anchor="middle" x="64.5" y="-72.4985" font-family="Times,serif" font-size="9.00" fill="#000000">dx</text>
</g>
<!-- 0 -->
<g id="node5" class="node">
<title>0</title>
<ellipse fill="#add8e6" stroke="#000000" cx="64.5" cy="-14.8492" rx="14.7" ry="14.7"/>
<text text-anchor="middle" x="64.5" y="-12.6492" font-family="Times,serif" font-size="9.00" fill="#000000">0</text>
</g>
<!-- dx&#45;&gt;0 -->
<g id="edge7" class="edge">
<title>dx&#45;&gt;0</title>
<path fill="none" stroke="#ff0000" stroke-width=".5569" d="M64.5,-65.6087C64.5,-58.8397 64.5,-49.2471 64.5,-40.2205"/>
<polygon fill="#ff0000" stroke="#ff0000" stroke-width=".5569" points="68.0001,-40.0872 64.5,-30.0872 61.0001,-40.0872 68.0001,-40.0872"/>
</g>
<!-- 1 -->
<g id="node6" class="node">
<title>1</title>
<ellipse fill="#add8e6" stroke="#000000" cx="112.5" cy="-14.8492" rx="14.7" ry="14.7"/>
<text text-anchor="middle" x="112.5" y="-12.6492" font-family="Times,serif" font-size="9.00" fill="#000000">1</text>
</g>
<!-- dx&#45;&gt;1 -->
<g id="edge4" class="edge">
<title>dx&#45;&gt;1</title>
<path fill="none" stroke="#00ff00" stroke-width=".6779" d="M71.7902,-65.6087C78.4123,-57.3518 88.4039,-44.8937 96.831,-34.3863"/>
<polygon fill="#00ff00" stroke="#00ff00" stroke-width=".6779" points="99.6335,-36.4861 103.1597,-26.4953 94.1728,-32.1065 99.6335,-36.4861"/>
</g>
<!-- dz -->
<g id="node2" class="node">
<title>dz</title>
<polygon fill="#d3d3d3" stroke="#000000" points="121,-83.6985 96,-83.6985 96,-65.6985 121,-65.6985 121,-83.6985"/>
<text text-anchor="middle" x="108.5" y="-72.4985" font-family="Times,serif" font-size="9.00" fill="#000000">dz</text>
</g>
<!-- dz&#45;&gt;0 -->
<g id="edge2" class="edge">
<title>dz&#45;&gt;0</title>
<path fill="none" stroke="#ff0000" stroke-width=".918" d="M101.8173,-65.6087C95.8823,-57.5357 86.9946,-45.4467 79.3816,-35.0913"/>
<polygon fill="#ff0000" stroke="#ff0000" stroke-width=".918" points="82.1225,-32.9107 73.3792,-26.9269 76.4826,-37.057 82.1225,-32.9107"/>
</g>
<!-- dz&#45;&gt;1 -->
<g id="edge3" class="edge">
<title>dz&#45;&gt;1</title>
<path fill="none" stroke="#ff0000" stroke-width="1.2713" d="M109.1075,-65.6087C109.5599,-58.8397 110.201,-49.2471 110.8043,-40.2205"/>
<polygon fill="#ff0000" stroke="#ff0000" stroke-width="1.2713" points="114.3068,-40.2984 111.4816,-30.0872 107.3224,-39.8315 114.3068,-40.2984"/>
</g>
<!-- theta -->
<g id="node3" class="node">
<title>theta</title>
<polygon fill="#d3d3d3" stroke="#000000" points="33,-83.6985 0,-83.6985 0,-65.6985 33,-65.6985 33,-83.6985"/>
<text text-anchor="middle" x="16.5" y="-72.4985" font-family="Times,serif" font-size="9.00" fill="#000000">theta</text>
</g>
<!-- theta&#45;&gt;0 -->
<g id="edge6" class="edge">
<title>theta&#45;&gt;0</title>
<path fill="none" stroke="#00ff00" stroke-width=".4585" d="M23.7902,-65.6087C30.4123,-57.3518 40.4039,-44.8937 48.831,-34.3863"/>
<polygon fill="#00ff00" stroke="#00ff00" stroke-width=".4585" points="51.6335,-36.4861 55.1597,-26.4953 46.1728,-32.1065 51.6335,-36.4861"/>
</g>
<!-- dtheta -->
<g id="node4" class="node">
<title>dtheta</title>
<polygon fill="#d3d3d3" stroke="#000000" points="177.5,-83.6985 139.5,-83.6985 139.5,-65.6985 177.5,-65.6985 177.5,-83.6985"/>
<text text-anchor="middle" x="158.5" y="-72.4985" font-family="Times,serif" font-size="9.00" fill="#000000">dtheta</text>
</g>
<!-- dtheta&#45;&gt;0 -->
<g id="edge1" class="edge">
<title>dtheta&#45;&gt;0</title>
<path fill="none" stroke="#ff0000" stroke-width="1.1406" d="M144.2234,-65.6087C128.6534,-55.6953 103.5716,-39.7259 85.7006,-28.3475"/>
<polygon fill="#ff0000" stroke="#ff0000" stroke-width="1.1406" points="87.4162,-25.2907 77.101,-22.8722 83.6566,-31.1954 87.4162,-25.2907"/>
</g>
<!-- dtheta&#45;&gt;1 -->
<g id="edge5" class="edge">
<title>dtheta&#45;&gt;1</title>
<path fill="none" stroke="#00ff00" stroke-width=".2197" d="M151.5136,-65.6087C145.3088,-57.5357 136.0171,-45.4467 128.058,-35.0913"/>
<polygon fill="#00ff00" stroke="#00ff00" stroke-width=".2197" points="130.6519,-32.7227 121.7828,-26.9269 125.1018,-36.9884 130.6519,-32.7227"/>
</g>
</g>
</svg>
