<?xml version="1.0" encoding="UTF-8" standalone="no"?>
<!DOCTYPE svg PUBLIC "-//W3C//DTD SVG 1.1//EN"
 "http://www.w3.org/Graphics/SVG/1.1/DTD/svg11.dtd">
<!-- Generated by graphviz version 2.40.1 (20161225.0304)
 -->
<!-- Title: %3 Pages: 1 -->
<svg width="199pt" height="111pt"
 viewBox="0.00 0.00 198.85 111.50" xmlns="http://www.w3.org/2000/svg" xmlns:xlink="http://www.w3.org/1999/xlink">
<g id="graph0" class="graph" transform="scale(1 1) rotate(0) translate(4 107.4975)">
<title>%3</title>
<polygon fill="#ffffff" stroke="transparent" points="-4,4 -4,-107.4975 194.8492,-107.4975 194.8492,4 -4,4"/>
<!-- dx -->
<g id="node1" class="node">
<title>dx</title>
<polygon fill="#d3d3d3" stroke="#000000" points="26,-103.4975 0,-103.4975 0,-85.4975 26,-85.4975 26,-103.4975"/>
<text text-anchor="middle" x="13" y="-92.2975" font-family="Times,serif" font-size="9.00" fill="#000000">dx</text>
</g>
<!-- 0 -->
<g id="node5" class="node">
<title>0</title>
<ellipse fill="#add8e6" stroke="#000000" cx="60" cy="-24.7487" rx="14.7" ry="14.7"/>
<text text-anchor="middle" x="60" y="-22.5487" font-family="Times,serif" font-size="9.00" fill="#000000">0</text>
</g>
<!-- dx&#45;&gt;0 -->
<g id="edge4" class="edge">
<title>dx&#45;&gt;0</title>
<path fill="none" stroke="#ff0000" stroke-width=".6205" d="M19.1444,-85.379C25.897,-75.3582 36.969,-58.9271 45.8846,-45.6962"/>
<polygon fill="#ff0000" stroke="#ff0000" stroke-width=".6205" points="48.9472,-47.4145 51.6329,-37.1656 43.1422,-43.5027 48.9472,-47.4145"/>
</g>
<!-- dz -->
<g id="node2" class="node">
<title>dz</title>
<polygon fill="#d3d3d3" stroke="#000000" points="188.5,-103.4975 163.5,-103.4975 163.5,-85.4975 188.5,-85.4975 188.5,-103.4975"/>
<text text-anchor="middle" x="176" y="-92.2975" font-family="Times,serif" font-size="9.00" fill="#000000">dz</text>
</g>
<!-- 1 -->
<g id="node6" class="node">
<title>1</title>
<ellipse fill="#add8e6" stroke="#000000" cx="176" cy="-24.7487" rx="14.7" ry="14.7"/>
<text text-anchor="middle" x="176" y="-22.5487" font-family="Times,serif" font-size="9.00" fill="#000000">1</text>
</g>
<!-- dz&#45;&gt;1 -->
<g id="edge3" class="edge">
<title>dz&#45;&gt;1</title>
<path fill="none" stroke="#ff0000" stroke-width="1.4844" d="M176,-85.379C176,-76.4112 176,-62.3094 176,-49.9619"/>
<polygon fill="#ff0000" stroke="#ff0000" stroke-width="1.4844" points="179.5001,-49.7356 176,-39.7357 172.5001,-49.7357 179.5001,-49.7356"/>
</g>
<!-- theta -->
<g id="node3" class="node">
<title>theta</title>
<polygon fill="#d3d3d3" stroke="#000000" points="77.5,-103.4975 44.5,-103.4975 44.5,-85.4975 77.5,-85.4975 77.5,-103.4975"/>
<text text-anchor="middle" x="61" y="-92.2975" font-family="Times,serif" font-size="9.00" fill="#000000">theta</text>
</g>
<!-- theta&#45;&gt;0 -->
<g id="edge2" class="edge">
<title>theta&#45;&gt;0</title>
<path fill="none" stroke="#ff0000" stroke-width=".529" d="M60.8693,-85.379C60.7407,-76.4112 60.5385,-62.3094 60.3615,-49.9619"/>
<polygon fill="#ff0000" stroke="#ff0000" stroke-width=".529" points="63.858,-49.6844 60.2149,-39.7357 56.8587,-49.7849 63.858,-49.6844"/>
</g>
<!-- dtheta -->
<g id="node4" class="node">
<title>dtheta</title>
<polygon fill="#d3d3d3" stroke="#000000" points="136,-103.4975 98,-103.4975 98,-85.4975 136,-85.4975 136,-103.4975"/>
<text text-anchor="middle" x="117" y="-92.2975" font-family="Times,serif" font-size="9.00" fill="#000000">dtheta</text>
</g>
<!-- dtheta&#45;&gt;0 -->
<g id="edge1" class="edge">
<title>dtheta&#45;&gt;0</title>
<path fill="none" stroke="#ff0000" stroke-width=".7229" d="M109.5482,-85.379C101.0516,-74.982 86.9157,-57.6844 75.9124,-44.2201"/>
<polygon fill="#ff0000" stroke="#ff0000" stroke-width=".7229" points="78.5826,-41.9565 69.5445,-36.428 73.1623,-46.386 78.5826,-41.9565"/>
</g>
<!-- 1283 -->
<g id="node7" class="node">
<title>1283</title>
<ellipse fill="none" stroke="#000000" cx="118" cy="-24.7487" rx="25" ry="25"/>
<text text-anchor="middle" x="118" y="-22.5487" font-family="Times,serif" font-size="9.00" fill="#000000">1283</text>
</g>
<!-- dtheta&#45;&gt;1283 -->
<g id="edge5" class="edge">
<title>dtheta&#45;&gt;1283</title>
<path fill="none" stroke="#ff0000" stroke-width=".379" d="M117.1307,-85.379C117.2256,-78.7623 117.3605,-69.3508 117.4959,-59.9112"/>
<polygon fill="#ff0000" stroke="#ff0000" stroke-width=".379" points="120.9972,-59.8372 117.641,-49.788 113.9979,-59.7368 120.9972,-59.8372"/>
</g>
</g>
</svg>
