<?xml version="1.0" encoding="utf-8" standalone="no"?>
<!DOCTYPE svg PUBLIC "-//W3C//DTD SVG 1.1//EN"
  "http://www.w3.org/Graphics/SVG/1.1/DTD/svg11.dtd">
<!-- Created with matplotlib (https://matplotlib.org/) -->
<svg height="345.6pt" version="1.1" viewBox="0 0 460.8 345.6" width="460.8pt" xmlns="http://www.w3.org/2000/svg" xmlns:xlink="http://www.w3.org/1999/xlink">
 <defs>
  <style type="text/css">
*{stroke-linecap:butt;stroke-linejoin:round;}
  </style>
 </defs>
 <g id="figure_1">
  <g id="patch_1">
   <path d="M 0 345.6 
L 460.8 345.6 
L 460.8 0 
L 0 0 
z
" style="fill:#ffffff;"/>
  </g>
  <g id="axes_1">
   <g id="patch_2">
    <path d="M 57.6 307.584 
L 414.72 307.584 
L 414.72 41.472 
L 57.6 41.472 
z
" style="fill:#ffffff;"/>
   </g>
   <g id="PolyCollection_1">
    <path clip-path="url(#pe9a07a7f4b)" d="M 73.832727 182.378582 
L 73.832727 307.584 
L 77.942278 307.584 
L 82.05183 307.584 
L 86.161381 307.584 
L 90.270932 307.584 
L 94.380483 307.584 
L 98.490035 307.584 
L 102.599586 307.584 
L 106.709137 307.584 
L 110.818688 307.584 
L 114.928239 307.584 
L 119.037791 307.584 
L 123.147342 307.584 
L 127.256893 307.584 
L 131.366444 307.584 
L 135.475995 307.584 
L 139.585547 307.584 
L 143.695098 307.584 
L 147.804649 307.584 
L 151.9142 307.584 
L 156.023751 307.584 
L 160.133303 307.584 
L 164.242854 307.584 
L 168.352405 307.584 
L 172.461956 307.584 
L 176.571507 307.584 
L 180.681059 307.584 
L 184.79061 307.584 
L 188.900161 307.584 
L 193.009712 307.584 
L 197.119264 307.584 
L 201.228815 307.584 
L 205.338366 307.584 
L 209.447917 307.584 
L 213.557468 307.584 
L 217.66702 307.584 
L 221.776571 307.584 
L 225.886122 307.584 
L 229.995673 307.584 
L 234.105224 307.584 
L 238.214776 307.584 
L 242.324327 307.584 
L 246.433878 307.584 
L 250.543429 307.584 
L 254.65298 307.584 
L 258.762532 307.584 
L 262.872083 307.584 
L 266.981634 307.584 
L 271.091185 307.584 
L 275.200736 307.584 
L 279.310288 307.584 
L 283.419839 307.584 
L 287.52939 307.584 
L 291.638941 307.584 
L 295.748493 307.584 
L 299.858044 307.584 
L 303.967595 307.584 
L 308.077146 307.584 
L 312.186697 307.584 
L 316.296249 307.584 
L 320.4058 307.584 
L 324.515351 307.584 
L 328.624902 307.584 
L 332.734453 307.584 
L 336.844005 307.584 
L 340.953556 307.584 
L 345.063107 307.584 
L 349.172658 307.584 
L 353.282209 307.584 
L 357.391761 307.584 
L 361.501312 307.584 
L 365.610863 307.584 
L 369.720414 307.584 
L 373.829965 307.584 
L 377.939517 307.584 
L 382.049068 307.584 
L 386.158619 307.584 
L 390.26817 307.584 
L 394.377722 307.584 
L 398.487273 307.584 
L 398.487273 307.584 
L 398.487273 307.584 
L 394.377722 307.584 
L 390.26817 307.584 
L 386.158619 307.584 
L 382.049068 223.777147 
L 377.939517 238.922964 
L 373.829965 233.874359 
L 369.720414 261.136829 
L 365.610863 270.224319 
L 361.501312 277.292367 
L 357.391761 260.127108 
L 353.282209 258.107665 
L 349.172658 248.010454 
L 345.063107 273.253482 
L 340.953556 247.000733 
L 336.844005 268.204876 
L 332.734453 250.029896 
L 328.624902 293.447904 
L 324.515351 283.350693 
L 320.4058 270.224319 
L 316.296249 230.845195 
L 312.186697 248.010454 
L 308.077146 189.446629 
L 303.967595 185.407745 
L 299.858044 194.495235 
L 295.748493 232.864637 
L 291.638941 261.136829 
L 287.52939 241.952127 
L 283.419839 243.97157 
L 279.310288 256.088223 
L 275.200736 267.195155 
L 271.091185 268.204876 
L 266.981634 260.127108 
L 262.872083 284.360414 
L 258.762532 263.156271 
L 254.65298 239.932685 
L 250.543429 257.097944 
L 246.433878 254.068781 
L 242.324327 268.204876 
L 238.214776 248.010454 
L 234.105224 273.253482 
L 229.995673 277.292367 
L 225.886122 269.214598 
L 221.776571 272.243761 
L 217.66702 281.331251 
L 213.557468 282.340972 
L 209.447917 289.40902 
L 205.338366 283.350693 
L 201.228815 273.253482 
L 197.119264 248.010454 
L 193.009712 270.224319 
L 188.900161 264.165992 
L 184.79061 277.292367 
L 180.681059 275.272924 
L 176.571507 259.117386 
L 172.461956 268.204876 
L 168.352405 275.272924 
L 164.242854 244.981291 
L 160.133303 275.272924 
L 156.023751 277.292367 
L 151.9142 283.350693 
L 147.804649 290.418741 
L 143.695098 260.127108 
L 139.585547 254.068781 
L 135.475995 251.039618 
L 131.366444 228.825753 
L 127.256893 289.40902 
L 123.147342 267.195155 
L 119.037791 268.204876 
L 114.928239 285.370135 
L 110.818688 251.039618 
L 106.709137 236.903522 
L 102.599586 265.175713 
L 98.490035 241.952127 
L 94.380483 229.835474 
L 90.270932 255.078502 
L 86.161381 219.738263 
L 82.05183 228.825753 
L 77.942278 216.7091 
L 73.832727 182.378582 
z
" style="fill:#1f77b4;"/>
   </g>
   <g id="PolyCollection_2">
    <path clip-path="url(#pe9a07a7f4b)" d="M 73.832727 149.057785 
L 73.832727 182.378582 
L 77.942278 216.7091 
L 82.05183 228.825753 
L 86.161381 219.738263 
L 90.270932 255.078502 
L 94.380483 229.835474 
L 98.490035 241.952127 
L 102.599586 265.175713 
L 106.709137 236.903522 
L 110.818688 251.039618 
L 114.928239 285.370135 
L 119.037791 268.204876 
L 123.147342 267.195155 
L 127.256893 289.40902 
L 131.366444 228.825753 
L 135.475995 251.039618 
L 139.585547 254.068781 
L 143.695098 260.127108 
L 147.804649 290.418741 
L 151.9142 283.350693 
L 156.023751 277.292367 
L 160.133303 275.272924 
L 164.242854 244.981291 
L 168.352405 275.272924 
L 172.461956 268.204876 
L 176.571507 259.117386 
L 180.681059 275.272924 
L 184.79061 277.292367 
L 188.900161 264.165992 
L 193.009712 270.224319 
L 197.119264 248.010454 
L 201.228815 273.253482 
L 205.338366 283.350693 
L 209.447917 289.40902 
L 213.557468 282.340972 
L 217.66702 281.331251 
L 221.776571 272.243761 
L 225.886122 269.214598 
L 229.995673 277.292367 
L 234.105224 273.253482 
L 238.214776 248.010454 
L 242.324327 268.204876 
L 246.433878 254.068781 
L 250.543429 257.097944 
L 254.65298 239.932685 
L 258.762532 263.156271 
L 262.872083 284.360414 
L 266.981634 260.127108 
L 271.091185 268.204876 
L 275.200736 267.195155 
L 279.310288 256.088223 
L 283.419839 243.97157 
L 287.52939 241.952127 
L 291.638941 261.136829 
L 295.748493 232.864637 
L 299.858044 194.495235 
L 303.967595 185.407745 
L 308.077146 189.446629 
L 312.186697 248.010454 
L 316.296249 230.845195 
L 320.4058 270.224319 
L 324.515351 283.350693 
L 328.624902 293.447904 
L 332.734453 250.029896 
L 336.844005 268.204876 
L 340.953556 247.000733 
L 345.063107 273.253482 
L 349.172658 248.010454 
L 353.282209 258.107665 
L 357.391761 260.127108 
L 361.501312 277.292367 
L 365.610863 270.224319 
L 369.720414 261.136829 
L 373.829965 233.874359 
L 377.939517 238.922964 
L 382.049068 223.777147 
L 386.158619 307.584 
L 390.26817 307.584 
L 394.377722 307.584 
L 398.487273 307.584 
L 398.487273 202.573004 
L 398.487273 202.573004 
L 394.377722 200.553562 
L 390.26817 212.670215 
L 386.158619 198.53412 
L 382.049068 163.19388 
L 377.939517 163.19388 
L 373.829965 134.921689 
L 369.720414 189.446629 
L 365.610863 156.125833 
L 361.501312 136.941131 
L 357.391761 167.232765 
L 353.282209 131.892526 
L 349.172658 140.980016 
L 345.063107 161.174438 
L 340.953556 170.261928 
L 336.844005 175.310534 
L 332.734453 173.291092 
L 328.624902 217.718821 
L 324.515351 209.641052 
L 320.4058 166.223044 
L 316.296249 119.775873 
L 312.186697 142.999458 
L 308.077146 129.873084 
L 303.967595 139.970295 
L 299.858044 152.086948 
L 295.748493 149.057785 
L 291.638941 193.485514 
L 287.52939 180.359139 
L 283.419839 169.252207 
L 279.310288 194.495235 
L 275.200736 214.689657 
L 271.091185 210.650773 
L 266.981634 225.79659 
L 262.872083 216.7091 
L 258.762532 190.456351 
L 254.65298 163.19388 
L 250.543429 179.349418 
L 246.433878 197.524398 
L 242.324327 221.757705 
L 238.214776 185.407745 
L 234.105224 240.942406 
L 229.995673 241.952127 
L 225.886122 219.738263 
L 221.776571 235.893801 
L 217.66702 219.738263 
L 213.557468 242.961849 
L 209.447917 244.981291 
L 205.338366 238.922964 
L 201.228815 242.961849 
L 197.119264 220.747984 
L 193.009712 219.738263 
L 188.900161 216.7091 
L 184.79061 228.825753 
L 180.681059 211.660494 
L 176.571507 220.747984 
L 172.461956 210.650773 
L 168.352405 236.903522 
L 164.242854 215.699378 
L 160.133303 245.991012 
L 156.023751 259.117386 
L 151.9142 232.864637 
L 147.804649 223.777147 
L 143.695098 250.029896 
L 139.585547 205.602167 
L 135.475995 227.816032 
L 131.366444 204.592446 
L 127.256893 221.757705 
L 123.147342 211.660494 
L 119.037791 224.786869 
L 114.928239 210.650773 
L 110.818688 215.699378 
L 106.709137 166.223044 
L 102.599586 191.466072 
L 98.490035 168.242486 
L 94.380483 182.378582 
L 90.270932 178.339697 
L 86.161381 181.368861 
L 82.05183 170.261928 
L 77.942278 130.882805 
L 73.832727 149.057785 
z
" style="fill:#ff7f0e;"/>
   </g>
   <g id="PolyCollection_3">
    <path clip-path="url(#pe9a07a7f4b)" d="M 73.832727 88.474518 
L 73.832727 149.057785 
L 77.942278 130.882805 
L 82.05183 170.261928 
L 86.161381 181.368861 
L 90.270932 178.339697 
L 94.380483 182.378582 
L 98.490035 168.242486 
L 102.599586 191.466072 
L 106.709137 166.223044 
L 110.818688 215.699378 
L 114.928239 210.650773 
L 119.037791 224.786869 
L 123.147342 211.660494 
L 127.256893 221.757705 
L 131.366444 204.592446 
L 135.475995 227.816032 
L 139.585547 205.602167 
L 143.695098 250.029896 
L 147.804649 223.777147 
L 151.9142 232.864637 
L 156.023751 259.117386 
L 160.133303 245.991012 
L 164.242854 215.699378 
L 168.352405 236.903522 
L 172.461956 210.650773 
L 176.571507 220.747984 
L 180.681059 211.660494 
L 184.79061 228.825753 
L 188.900161 216.7091 
L 193.009712 219.738263 
L 197.119264 220.747984 
L 201.228815 242.961849 
L 205.338366 238.922964 
L 209.447917 244.981291 
L 213.557468 242.961849 
L 217.66702 219.738263 
L 221.776571 235.893801 
L 225.886122 219.738263 
L 229.995673 241.952127 
L 234.105224 240.942406 
L 238.214776 185.407745 
L 242.324327 221.757705 
L 246.433878 197.524398 
L 250.543429 179.349418 
L 254.65298 163.19388 
L 258.762532 190.456351 
L 262.872083 216.7091 
L 266.981634 225.79659 
L 271.091185 210.650773 
L 275.200736 214.689657 
L 279.310288 194.495235 
L 283.419839 169.252207 
L 287.52939 180.359139 
L 291.638941 193.485514 
L 295.748493 149.057785 
L 299.858044 152.086948 
L 303.967595 139.970295 
L 308.077146 129.873084 
L 312.186697 142.999458 
L 316.296249 119.775873 
L 320.4058 166.223044 
L 324.515351 209.641052 
L 328.624902 217.718821 
L 332.734453 173.291092 
L 336.844005 175.310534 
L 340.953556 170.261928 
L 345.063107 161.174438 
L 349.172658 140.980016 
L 353.282209 131.892526 
L 357.391761 167.232765 
L 361.501312 136.941131 
L 365.610863 156.125833 
L 369.720414 189.446629 
L 373.829965 134.921689 
L 377.939517 163.19388 
L 382.049068 163.19388 
L 386.158619 198.53412 
L 390.26817 212.670215 
L 394.377722 200.553562 
L 398.487273 202.573004 
L 398.487273 202.573004 
L 398.487273 202.573004 
L 394.377722 200.553562 
L 390.26817 212.670215 
L 386.158619 198.53412 
L 382.049068 163.19388 
L 377.939517 163.19388 
L 373.829965 134.921689 
L 369.720414 189.446629 
L 365.610863 156.125833 
L 361.501312 136.941131 
L 357.391761 167.232765 
L 353.282209 131.892526 
L 349.172658 140.980016 
L 345.063107 161.174438 
L 340.953556 170.261928 
L 336.844005 175.310534 
L 332.734453 173.291092 
L 328.624902 217.718821 
L 324.515351 209.641052 
L 320.4058 166.223044 
L 316.296249 119.775873 
L 312.186697 142.999458 
L 308.077146 129.873084 
L 303.967595 139.970295 
L 299.858044 152.086948 
L 295.748493 149.057785 
L 291.638941 193.485514 
L 287.52939 180.359139 
L 283.419839 169.252207 
L 279.310288 194.495235 
L 275.200736 214.689657 
L 271.091185 210.650773 
L 266.981634 182.378582 
L 262.872083 181.368861 
L 258.762532 164.203602 
L 254.65298 147.038343 
L 250.543429 162.184159 
L 246.433878 172.281371 
L 242.324327 191.466072 
L 238.214776 163.19388 
L 234.105224 207.62161 
L 229.995673 217.718821 
L 225.886122 179.349418 
L 221.776571 207.62161 
L 217.66702 182.378582 
L 213.557468 205.602167 
L 209.447917 206.611888 
L 205.338366 197.524398 
L 201.228815 202.573004 
L 197.119264 165.213323 
L 193.009712 182.378582 
L 188.900161 192.475793 
L 184.79061 202.573004 
L 180.681059 183.388303 
L 176.571507 178.339697 
L 172.461956 164.203602 
L 168.352405 205.602167 
L 164.242854 185.407745 
L 160.133303 209.641052 
L 156.023751 227.816032 
L 151.9142 169.252207 
L 147.804649 180.359139 
L 143.695098 210.650773 
L 139.585547 164.203602 
L 135.475995 188.436908 
L 131.366444 172.281371 
L 127.256893 194.495235 
L 123.147342 172.281371 
L 119.037791 195.504956 
L 114.928239 183.388303 
L 110.818688 174.300813 
L 106.709137 130.882805 
L 102.599586 172.281371 
L 98.490035 156.125833 
L 94.380483 130.882805 
L 90.270932 153.096669 
L 86.161381 145.0189 
L 82.05183 145.0189 
L 77.942278 86.455076 
L 73.832727 88.474518 
z
" style="fill:#2ca02c;"/>
   </g>
   <g id="PolyCollection_4">
    <path clip-path="url(#pe9a07a7f4b)" d="M 73.832727 57.173163 
L 73.832727 88.474518 
L 77.942278 86.455076 
L 82.05183 145.0189 
L 86.161381 145.0189 
L 90.270932 153.096669 
L 94.380483 130.882805 
L 98.490035 156.125833 
L 102.599586 172.281371 
L 106.709137 130.882805 
L 110.818688 174.300813 
L 114.928239 183.388303 
L 119.037791 195.504956 
L 123.147342 172.281371 
L 127.256893 194.495235 
L 131.366444 172.281371 
L 135.475995 188.436908 
L 139.585547 164.203602 
L 143.695098 210.650773 
L 147.804649 180.359139 
L 151.9142 169.252207 
L 156.023751 227.816032 
L 160.133303 209.641052 
L 164.242854 185.407745 
L 168.352405 205.602167 
L 172.461956 164.203602 
L 176.571507 178.339697 
L 180.681059 183.388303 
L 184.79061 202.573004 
L 188.900161 192.475793 
L 193.009712 182.378582 
L 197.119264 165.213323 
L 201.228815 202.573004 
L 205.338366 197.524398 
L 209.447917 206.611888 
L 213.557468 205.602167 
L 217.66702 182.378582 
L 221.776571 207.62161 
L 225.886122 179.349418 
L 229.995673 217.718821 
L 234.105224 207.62161 
L 238.214776 163.19388 
L 242.324327 191.466072 
L 246.433878 172.281371 
L 250.543429 162.184159 
L 254.65298 147.038343 
L 258.762532 164.203602 
L 262.872083 181.368861 
L 266.981634 182.378582 
L 271.091185 210.650773 
L 275.200736 214.689657 
L 279.310288 194.495235 
L 283.419839 169.252207 
L 287.52939 180.359139 
L 291.638941 193.485514 
L 295.748493 149.057785 
L 299.858044 152.086948 
L 303.967595 139.970295 
L 308.077146 129.873084 
L 312.186697 142.999458 
L 316.296249 119.775873 
L 320.4058 166.223044 
L 324.515351 209.641052 
L 328.624902 217.718821 
L 332.734453 173.291092 
L 336.844005 175.310534 
L 340.953556 170.261928 
L 345.063107 161.174438 
L 349.172658 140.980016 
L 353.282209 131.892526 
L 357.391761 167.232765 
L 361.501312 136.941131 
L 365.610863 156.125833 
L 369.720414 189.446629 
L 373.829965 134.921689 
L 377.939517 163.19388 
L 382.049068 163.19388 
L 386.158619 198.53412 
L 390.26817 212.670215 
L 394.377722 200.553562 
L 398.487273 202.573004 
L 398.487273 55.153721 
L 398.487273 55.153721 
L 394.377722 55.153721 
L 390.26817 55.153721 
L 386.158619 55.153721 
L 382.049068 54.144 
L 377.939517 55.153721 
L 373.829965 55.153721 
L 369.720414 148.048064 
L 365.610863 99.58145 
L 361.501312 102.610614 
L 357.391761 135.93141 
L 353.282209 106.649498 
L 349.172658 110.688382 
L 345.063107 130.882805 
L 340.953556 120.785594 
L 336.844005 121.795315 
L 332.734453 133.911968 
L 328.624902 142.999458 
L 324.515351 162.184159 
L 320.4058 120.785594 
L 316.296249 73.328701 
L 312.186697 115.736988 
L 308.077146 113.717546 
L 303.967595 102.610614 
L 299.858044 102.610614 
L 295.748493 94.532845 
L 291.638941 150.067506 
L 287.52939 126.84392 
L 283.419839 133.911968 
L 279.310288 142.999458 
L 275.200736 134.921689 
L 271.091185 133.911968 
L 266.981634 107.659219 
L 262.872083 103.620335 
L 258.762532 119.775873 
L 254.65298 102.610614 
L 250.543429 111.698104 
L 246.433878 145.0189 
L 242.324327 166.223044 
L 238.214776 111.698104 
L 234.105224 136.941131 
L 229.995673 152.086948 
L 225.886122 139.970295 
L 221.776571 165.213323 
L 217.66702 137.950853 
L 213.557468 138.960574 
L 209.447917 181.368861 
L 205.338366 158.145275 
L 201.228815 154.10639 
L 197.119264 115.736988 
L 193.009712 134.921689 
L 188.900161 133.911968 
L 184.79061 134.921689 
L 180.681059 117.75643 
L 176.571507 129.873084 
L 172.461956 137.950853 
L 168.352405 130.882805 
L 164.242854 104.630056 
L 160.133303 132.902247 
L 156.023751 153.096669 
L 151.9142 109.678661 
L 147.804649 140.980016 
L 143.695098 175.310534 
L 139.585547 128.863363 
L 135.475995 138.960574 
L 131.366444 117.75643 
L 127.256893 133.911968 
L 123.147342 133.911968 
L 119.037791 168.242486 
L 114.928239 142.999458 
L 110.818688 126.84392 
L 106.709137 90.49396 
L 102.599586 99.58145 
L 98.490035 101.600892 
L 94.380483 74.338422 
L 90.270932 88.474518 
L 86.161381 82.416191 
L 82.05183 85.445355 
L 77.942278 75.348143 
L 73.832727 57.173163 
z
" style="fill:#d62728;"/>
   </g>
   <g id="PolyCollection_5">
    <path clip-path="url(#pe9a07a7f4b)" d="M 73.832727 55.153721 
L 73.832727 57.173163 
L 77.942278 75.348143 
L 82.05183 85.445355 
L 86.161381 82.416191 
L 90.270932 88.474518 
L 94.380483 74.338422 
L 98.490035 101.600892 
L 102.599586 99.58145 
L 106.709137 90.49396 
L 110.818688 126.84392 
L 114.928239 142.999458 
L 119.037791 168.242486 
L 123.147342 133.911968 
L 127.256893 133.911968 
L 131.366444 117.75643 
L 135.475995 138.960574 
L 139.585547 128.863363 
L 143.695098 175.310534 
L 147.804649 140.980016 
L 151.9142 109.678661 
L 156.023751 153.096669 
L 160.133303 132.902247 
L 164.242854 104.630056 
L 168.352405 130.882805 
L 172.461956 137.950853 
L 176.571507 129.873084 
L 180.681059 117.75643 
L 184.79061 134.921689 
L 188.900161 133.911968 
L 193.009712 134.921689 
L 197.119264 115.736988 
L 201.228815 154.10639 
L 205.338366 158.145275 
L 209.447917 181.368861 
L 213.557468 138.960574 
L 217.66702 137.950853 
L 221.776571 165.213323 
L 225.886122 139.970295 
L 229.995673 152.086948 
L 234.105224 136.941131 
L 238.214776 111.698104 
L 242.324327 166.223044 
L 246.433878 145.0189 
L 250.543429 111.698104 
L 254.65298 102.610614 
L 258.762532 119.775873 
L 262.872083 103.620335 
L 266.981634 107.659219 
L 271.091185 133.911968 
L 275.200736 134.921689 
L 279.310288 142.999458 
L 283.419839 133.911968 
L 287.52939 126.84392 
L 291.638941 150.067506 
L 295.748493 94.532845 
L 299.858044 102.610614 
L 303.967595 102.610614 
L 308.077146 113.717546 
L 312.186697 115.736988 
L 316.296249 73.328701 
L 320.4058 120.785594 
L 324.515351 162.184159 
L 328.624902 142.999458 
L 332.734453 133.911968 
L 336.844005 121.795315 
L 340.953556 120.785594 
L 345.063107 130.882805 
L 349.172658 110.688382 
L 353.282209 106.649498 
L 357.391761 135.93141 
L 361.501312 102.610614 
L 365.610863 99.58145 
L 369.720414 148.048064 
L 373.829965 55.153721 
L 377.939517 55.153721 
L 382.049068 54.144 
L 386.158619 55.153721 
L 390.26817 55.153721 
L 394.377722 55.153721 
L 398.487273 55.153721 
L 398.487273 55.153721 
L 398.487273 55.153721 
L 394.377722 55.153721 
L 390.26817 55.153721 
L 386.158619 55.153721 
L 382.049068 54.144 
L 377.939517 55.153721 
L 373.829965 55.153721 
L 369.720414 148.048064 
L 365.610863 99.58145 
L 361.501312 102.610614 
L 357.391761 135.93141 
L 353.282209 106.649498 
L 349.172658 110.688382 
L 345.063107 130.882805 
L 340.953556 120.785594 
L 336.844005 121.795315 
L 332.734453 133.911968 
L 328.624902 142.999458 
L 324.515351 162.184159 
L 320.4058 120.785594 
L 316.296249 73.328701 
L 312.186697 115.736988 
L 308.077146 113.717546 
L 303.967595 102.610614 
L 299.858044 102.610614 
L 295.748493 94.532845 
L 291.638941 150.067506 
L 287.52939 126.84392 
L 283.419839 133.911968 
L 279.310288 142.999458 
L 275.200736 134.921689 
L 271.091185 133.911968 
L 266.981634 107.659219 
L 262.872083 103.620335 
L 258.762532 119.775873 
L 254.65298 102.610614 
L 250.543429 111.698104 
L 246.433878 145.0189 
L 242.324327 142.999458 
L 238.214776 75.348143 
L 234.105224 92.513402 
L 229.995673 114.727267 
L 225.886122 118.766151 
L 221.776571 133.911968 
L 217.66702 121.795315 
L 213.557468 111.698104 
L 209.447917 153.096669 
L 205.338366 131.892526 
L 201.228815 126.84392 
L 197.119264 89.484239 
L 193.009712 105.639777 
L 188.900161 106.649498 
L 184.79061 115.736988 
L 180.681059 92.513402 
L 176.571507 94.532845 
L 172.461956 113.717546 
L 168.352405 98.571729 
L 164.242854 81.40647 
L 160.133303 97.562008 
L 156.023751 119.775873 
L 151.9142 81.40647 
L 147.804649 80.396749 
L 143.695098 113.717546 
L 139.585547 83.425912 
L 135.475995 105.639777 
L 131.366444 90.49396 
L 127.256893 84.435633 
L 123.147342 83.425912 
L 119.037791 85.445355 
L 114.928239 89.484239 
L 110.818688 89.484239 
L 106.709137 66.260653 
L 102.599586 71.309259 
L 98.490035 77.367586 
L 94.380483 56.163442 
L 90.270932 56.163442 
L 86.161381 55.153721 
L 82.05183 56.163442 
L 77.942278 55.153721 
L 73.832727 55.153721 
z
" style="fill:#9467bd;"/>
   </g>
   <g id="PolyCollection_6">
    <path clip-path="url(#pe9a07a7f4b)" d="M 73.832727 55.153721 
L 73.832727 55.153721 
L 77.942278 55.153721 
L 82.05183 56.163442 
L 86.161381 55.153721 
L 90.270932 56.163442 
L 94.380483 56.163442 
L 98.490035 77.367586 
L 102.599586 71.309259 
L 106.709137 66.260653 
L 110.818688 89.484239 
L 114.928239 89.484239 
L 119.037791 85.445355 
L 123.147342 83.425912 
L 127.256893 84.435633 
L 131.366444 90.49396 
L 135.475995 105.639777 
L 139.585547 83.425912 
L 143.695098 113.717546 
L 147.804649 80.396749 
L 151.9142 81.40647 
L 156.023751 119.775873 
L 160.133303 97.562008 
L 164.242854 81.40647 
L 168.352405 98.571729 
L 172.461956 113.717546 
L 176.571507 94.532845 
L 180.681059 92.513402 
L 184.79061 115.736988 
L 188.900161 106.649498 
L 193.009712 105.639777 
L 197.119264 89.484239 
L 201.228815 126.84392 
L 205.338366 131.892526 
L 209.447917 153.096669 
L 213.557468 111.698104 
L 217.66702 121.795315 
L 221.776571 133.911968 
L 225.886122 118.766151 
L 229.995673 114.727267 
L 234.105224 92.513402 
L 238.214776 75.348143 
L 242.324327 142.999458 
L 246.433878 145.0189 
L 250.543429 111.698104 
L 254.65298 102.610614 
L 258.762532 119.775873 
L 262.872083 103.620335 
L 266.981634 107.659219 
L 271.091185 133.911968 
L 275.200736 134.921689 
L 279.310288 142.999458 
L 283.419839 133.911968 
L 287.52939 126.84392 
L 291.638941 150.067506 
L 295.748493 94.532845 
L 299.858044 102.610614 
L 303.967595 102.610614 
L 308.077146 113.717546 
L 312.186697 115.736988 
L 316.296249 73.328701 
L 320.4058 120.785594 
L 324.515351 162.184159 
L 328.624902 142.999458 
L 332.734453 133.911968 
L 336.844005 121.795315 
L 340.953556 120.785594 
L 345.063107 130.882805 
L 349.172658 110.688382 
L 353.282209 106.649498 
L 357.391761 135.93141 
L 361.501312 102.610614 
L 365.610863 99.58145 
L 369.720414 148.048064 
L 373.829965 55.153721 
L 377.939517 55.153721 
L 382.049068 54.144 
L 386.158619 55.153721 
L 390.26817 55.153721 
L 394.377722 55.153721 
L 398.487273 55.153721 
L 398.487273 55.153721 
L 398.487273 55.153721 
L 394.377722 55.153721 
L 390.26817 55.153721 
L 386.158619 55.153721 
L 382.049068 54.144 
L 377.939517 55.153721 
L 373.829965 55.153721 
L 369.720414 55.153721 
L 365.610863 56.163442 
L 361.501312 56.163442 
L 357.391761 54.144 
L 353.282209 54.144 
L 349.172658 55.153721 
L 345.063107 56.163442 
L 340.953556 56.163442 
L 336.844005 56.163442 
L 332.734453 56.163442 
L 328.624902 55.153721 
L 324.515351 56.163442 
L 320.4058 55.153721 
L 316.296249 55.153721 
L 312.186697 55.153721 
L 308.077146 55.153721 
L 303.967595 56.163442 
L 299.858044 56.163442 
L 295.748493 55.153721 
L 291.638941 55.153721 
L 287.52939 55.153721 
L 283.419839 54.144 
L 279.310288 55.153721 
L 275.200736 55.153721 
L 271.091185 56.163442 
L 266.981634 55.153721 
L 262.872083 55.153721 
L 258.762532 55.153721 
L 254.65298 55.153721 
L 250.543429 56.163442 
L 246.433878 55.153721 
L 242.324327 54.144 
L 238.214776 54.144 
L 234.105224 55.153721 
L 229.995673 54.144 
L 225.886122 55.153721 
L 221.776571 54.144 
L 217.66702 54.144 
L 213.557468 54.144 
L 209.447917 55.153721 
L 205.338366 54.144 
L 201.228815 54.144 
L 197.119264 54.144 
L 193.009712 55.153721 
L 188.900161 55.153721 
L 184.79061 56.163442 
L 180.681059 55.153721 
L 176.571507 55.153721 
L 172.461956 54.144 
L 168.352405 54.144 
L 164.242854 55.153721 
L 160.133303 56.163442 
L 156.023751 57.173163 
L 151.9142 57.173163 
L 147.804649 55.153721 
L 143.695098 55.153721 
L 139.585547 55.153721 
L 135.475995 55.153721 
L 131.366444 55.153721 
L 127.256893 54.144 
L 123.147342 55.153721 
L 119.037791 55.153721 
L 114.928239 54.144 
L 110.818688 56.163442 
L 106.709137 55.153721 
L 102.599586 55.153721 
L 98.490035 56.163442 
L 94.380483 55.153721 
L 90.270932 56.163442 
L 86.161381 55.153721 
L 82.05183 56.163442 
L 77.942278 55.153721 
L 73.832727 55.153721 
z
" style="fill:#8c564b;"/>
   </g>
   <g id="matplotlib.axis_1">
    <g id="xtick_1">
     <g id="line2d_1">
      <defs>
       <path d="M 0 0 
L 0 3.5 
" id="m2389d0db86" style="stroke:#000000;stroke-width:0.8;"/>
      </defs>
      <g>
       <use style="stroke:#000000;stroke-width:0.8;" x="73.832727" xlink:href="#m2389d0db86" y="307.584"/>
      </g>
     </g>
     <g id="text_1">
      <!-- 0 -->
      <defs>
       <path d="M 31.78125 66.40625 
Q 24.171875 66.40625 20.328125 58.90625 
Q 16.5 51.421875 16.5 36.375 
Q 16.5 21.390625 20.328125 13.890625 
Q 24.171875 6.390625 31.78125 6.390625 
Q 39.453125 6.390625 43.28125 13.890625 
Q 47.125 21.390625 47.125 36.375 
Q 47.125 51.421875 43.28125 58.90625 
Q 39.453125 66.40625 31.78125 66.40625 
z
M 31.78125 74.21875 
Q 44.046875 74.21875 50.515625 64.515625 
Q 56.984375 54.828125 56.984375 36.375 
Q 56.984375 17.96875 50.515625 8.265625 
Q 44.046875 -1.421875 31.78125 -1.421875 
Q 19.53125 -1.421875 13.0625 8.265625 
Q 6.59375 17.96875 6.59375 36.375 
Q 6.59375 54.828125 13.0625 64.515625 
Q 19.53125 74.21875 31.78125 74.21875 
z
" id="DejaVuSans-48"/>
      </defs>
      <g transform="translate(70.651477 322.182437)scale(0.1 -0.1)">
       <use xlink:href="#DejaVuSans-48"/>
      </g>
     </g>
    </g>
    <g id="xtick_2">
     <g id="line2d_2">
      <g>
       <use style="stroke:#000000;stroke-width:0.8;" x="114.928239" xlink:href="#m2389d0db86" y="307.584"/>
      </g>
     </g>
     <g id="text_2">
      <!-- 10 -->
      <defs>
       <path d="M 12.40625 8.296875 
L 28.515625 8.296875 
L 28.515625 63.921875 
L 10.984375 60.40625 
L 10.984375 69.390625 
L 28.421875 72.90625 
L 38.28125 72.90625 
L 38.28125 8.296875 
L 54.390625 8.296875 
L 54.390625 0 
L 12.40625 0 
z
" id="DejaVuSans-49"/>
      </defs>
      <g transform="translate(108.565739 322.182437)scale(0.1 -0.1)">
       <use xlink:href="#DejaVuSans-49"/>
       <use x="63.623047" xlink:href="#DejaVuSans-48"/>
      </g>
     </g>
    </g>
    <g id="xtick_3">
     <g id="line2d_3">
      <g>
       <use style="stroke:#000000;stroke-width:0.8;" x="156.023751" xlink:href="#m2389d0db86" y="307.584"/>
      </g>
     </g>
     <g id="text_3">
      <!-- 20 -->
      <defs>
       <path d="M 19.1875 8.296875 
L 53.609375 8.296875 
L 53.609375 0 
L 7.328125 0 
L 7.328125 8.296875 
Q 12.9375 14.109375 22.625 23.890625 
Q 32.328125 33.6875 34.8125 36.53125 
Q 39.546875 41.84375 41.421875 45.53125 
Q 43.3125 49.21875 43.3125 52.78125 
Q 43.3125 58.59375 39.234375 62.25 
Q 35.15625 65.921875 28.609375 65.921875 
Q 23.96875 65.921875 18.8125 64.3125 
Q 13.671875 62.703125 7.8125 59.421875 
L 7.8125 69.390625 
Q 13.765625 71.78125 18.9375 73 
Q 24.125 74.21875 28.421875 74.21875 
Q 39.75 74.21875 46.484375 68.546875 
Q 53.21875 62.890625 53.21875 53.421875 
Q 53.21875 48.921875 51.53125 44.890625 
Q 49.859375 40.875 45.40625 35.40625 
Q 44.1875 33.984375 37.640625 27.21875 
Q 31.109375 20.453125 19.1875 8.296875 
z
" id="DejaVuSans-50"/>
      </defs>
      <g transform="translate(149.661251 322.182437)scale(0.1 -0.1)">
       <use xlink:href="#DejaVuSans-50"/>
       <use x="63.623047" xlink:href="#DejaVuSans-48"/>
      </g>
     </g>
    </g>
    <g id="xtick_4">
     <g id="line2d_4">
      <g>
       <use style="stroke:#000000;stroke-width:0.8;" x="197.119264" xlink:href="#m2389d0db86" y="307.584"/>
      </g>
     </g>
     <g id="text_4">
      <!-- 30 -->
      <defs>
       <path d="M 40.578125 39.3125 
Q 47.65625 37.796875 51.625 33 
Q 55.609375 28.21875 55.609375 21.1875 
Q 55.609375 10.40625 48.1875 4.484375 
Q 40.765625 -1.421875 27.09375 -1.421875 
Q 22.515625 -1.421875 17.65625 -0.515625 
Q 12.796875 0.390625 7.625 2.203125 
L 7.625 11.71875 
Q 11.71875 9.328125 16.59375 8.109375 
Q 21.484375 6.890625 26.8125 6.890625 
Q 36.078125 6.890625 40.9375 10.546875 
Q 45.796875 14.203125 45.796875 21.1875 
Q 45.796875 27.640625 41.28125 31.265625 
Q 36.765625 34.90625 28.71875 34.90625 
L 20.21875 34.90625 
L 20.21875 43.015625 
L 29.109375 43.015625 
Q 36.375 43.015625 40.234375 45.921875 
Q 44.09375 48.828125 44.09375 54.296875 
Q 44.09375 59.90625 40.109375 62.90625 
Q 36.140625 65.921875 28.71875 65.921875 
Q 24.65625 65.921875 20.015625 65.03125 
Q 15.375 64.15625 9.8125 62.3125 
L 9.8125 71.09375 
Q 15.4375 72.65625 20.34375 73.4375 
Q 25.25 74.21875 29.59375 74.21875 
Q 40.828125 74.21875 47.359375 69.109375 
Q 53.90625 64.015625 53.90625 55.328125 
Q 53.90625 49.265625 50.4375 45.09375 
Q 46.96875 40.921875 40.578125 39.3125 
z
" id="DejaVuSans-51"/>
      </defs>
      <g transform="translate(190.756764 322.182437)scale(0.1 -0.1)">
       <use xlink:href="#DejaVuSans-51"/>
       <use x="63.623047" xlink:href="#DejaVuSans-48"/>
      </g>
     </g>
    </g>
    <g id="xtick_5">
     <g id="line2d_5">
      <g>
       <use style="stroke:#000000;stroke-width:0.8;" x="238.214776" xlink:href="#m2389d0db86" y="307.584"/>
      </g>
     </g>
     <g id="text_5">
      <!-- 40 -->
      <defs>
       <path d="M 37.796875 64.3125 
L 12.890625 25.390625 
L 37.796875 25.390625 
z
M 35.203125 72.90625 
L 47.609375 72.90625 
L 47.609375 25.390625 
L 58.015625 25.390625 
L 58.015625 17.1875 
L 47.609375 17.1875 
L 47.609375 0 
L 37.796875 0 
L 37.796875 17.1875 
L 4.890625 17.1875 
L 4.890625 26.703125 
z
" id="DejaVuSans-52"/>
      </defs>
      <g transform="translate(231.852276 322.182437)scale(0.1 -0.1)">
       <use xlink:href="#DejaVuSans-52"/>
       <use x="63.623047" xlink:href="#DejaVuSans-48"/>
      </g>
     </g>
    </g>
    <g id="xtick_6">
     <g id="line2d_6">
      <g>
       <use style="stroke:#000000;stroke-width:0.8;" x="279.310288" xlink:href="#m2389d0db86" y="307.584"/>
      </g>
     </g>
     <g id="text_6">
      <!-- 50 -->
      <defs>
       <path d="M 10.796875 72.90625 
L 49.515625 72.90625 
L 49.515625 64.59375 
L 19.828125 64.59375 
L 19.828125 46.734375 
Q 21.96875 47.46875 24.109375 47.828125 
Q 26.265625 48.1875 28.421875 48.1875 
Q 40.625 48.1875 47.75 41.5 
Q 54.890625 34.8125 54.890625 23.390625 
Q 54.890625 11.625 47.5625 5.09375 
Q 40.234375 -1.421875 26.90625 -1.421875 
Q 22.3125 -1.421875 17.546875 -0.640625 
Q 12.796875 0.140625 7.71875 1.703125 
L 7.71875 11.625 
Q 12.109375 9.234375 16.796875 8.0625 
Q 21.484375 6.890625 26.703125 6.890625 
Q 35.15625 6.890625 40.078125 11.328125 
Q 45.015625 15.765625 45.015625 23.390625 
Q 45.015625 31 40.078125 35.4375 
Q 35.15625 39.890625 26.703125 39.890625 
Q 22.75 39.890625 18.8125 39.015625 
Q 14.890625 38.140625 10.796875 36.28125 
z
" id="DejaVuSans-53"/>
      </defs>
      <g transform="translate(272.947788 322.182437)scale(0.1 -0.1)">
       <use xlink:href="#DejaVuSans-53"/>
       <use x="63.623047" xlink:href="#DejaVuSans-48"/>
      </g>
     </g>
    </g>
    <g id="xtick_7">
     <g id="line2d_7">
      <g>
       <use style="stroke:#000000;stroke-width:0.8;" x="320.4058" xlink:href="#m2389d0db86" y="307.584"/>
      </g>
     </g>
     <g id="text_7">
      <!-- 60 -->
      <defs>
       <path d="M 33.015625 40.375 
Q 26.375 40.375 22.484375 35.828125 
Q 18.609375 31.296875 18.609375 23.390625 
Q 18.609375 15.53125 22.484375 10.953125 
Q 26.375 6.390625 33.015625 6.390625 
Q 39.65625 6.390625 43.53125 10.953125 
Q 47.40625 15.53125 47.40625 23.390625 
Q 47.40625 31.296875 43.53125 35.828125 
Q 39.65625 40.375 33.015625 40.375 
z
M 52.59375 71.296875 
L 52.59375 62.3125 
Q 48.875 64.0625 45.09375 64.984375 
Q 41.3125 65.921875 37.59375 65.921875 
Q 27.828125 65.921875 22.671875 59.328125 
Q 17.53125 52.734375 16.796875 39.40625 
Q 19.671875 43.65625 24.015625 45.921875 
Q 28.375 48.1875 33.59375 48.1875 
Q 44.578125 48.1875 50.953125 41.515625 
Q 57.328125 34.859375 57.328125 23.390625 
Q 57.328125 12.15625 50.6875 5.359375 
Q 44.046875 -1.421875 33.015625 -1.421875 
Q 20.359375 -1.421875 13.671875 8.265625 
Q 6.984375 17.96875 6.984375 36.375 
Q 6.984375 53.65625 15.1875 63.9375 
Q 23.390625 74.21875 37.203125 74.21875 
Q 40.921875 74.21875 44.703125 73.484375 
Q 48.484375 72.75 52.59375 71.296875 
z
" id="DejaVuSans-54"/>
      </defs>
      <g transform="translate(314.0433 322.182437)scale(0.1 -0.1)">
       <use xlink:href="#DejaVuSans-54"/>
       <use x="63.623047" xlink:href="#DejaVuSans-48"/>
      </g>
     </g>
    </g>
    <g id="xtick_8">
     <g id="line2d_8">
      <g>
       <use style="stroke:#000000;stroke-width:0.8;" x="361.501312" xlink:href="#m2389d0db86" y="307.584"/>
      </g>
     </g>
     <g id="text_8">
      <!-- 70 -->
      <defs>
       <path d="M 8.203125 72.90625 
L 55.078125 72.90625 
L 55.078125 68.703125 
L 28.609375 0 
L 18.3125 0 
L 43.21875 64.59375 
L 8.203125 64.59375 
z
" id="DejaVuSans-55"/>
      </defs>
      <g transform="translate(355.138812 322.182437)scale(0.1 -0.1)">
       <use xlink:href="#DejaVuSans-55"/>
       <use x="63.623047" xlink:href="#DejaVuSans-48"/>
      </g>
     </g>
    </g>
    <g id="xtick_9">
     <g id="line2d_9">
      <g>
       <use style="stroke:#000000;stroke-width:0.8;" x="402.596824" xlink:href="#m2389d0db86" y="307.584"/>
      </g>
     </g>
     <g id="text_9">
      <!-- 80 -->
      <defs>
       <path d="M 31.78125 34.625 
Q 24.75 34.625 20.71875 30.859375 
Q 16.703125 27.09375 16.703125 20.515625 
Q 16.703125 13.921875 20.71875 10.15625 
Q 24.75 6.390625 31.78125 6.390625 
Q 38.8125 6.390625 42.859375 10.171875 
Q 46.921875 13.96875 46.921875 20.515625 
Q 46.921875 27.09375 42.890625 30.859375 
Q 38.875 34.625 31.78125 34.625 
z
M 21.921875 38.8125 
Q 15.578125 40.375 12.03125 44.71875 
Q 8.5 49.078125 8.5 55.328125 
Q 8.5 64.0625 14.71875 69.140625 
Q 20.953125 74.21875 31.78125 74.21875 
Q 42.671875 74.21875 48.875 69.140625 
Q 55.078125 64.0625 55.078125 55.328125 
Q 55.078125 49.078125 51.53125 44.71875 
Q 48 40.375 41.703125 38.8125 
Q 48.828125 37.15625 52.796875 32.3125 
Q 56.78125 27.484375 56.78125 20.515625 
Q 56.78125 9.90625 50.3125 4.234375 
Q 43.84375 -1.421875 31.78125 -1.421875 
Q 19.734375 -1.421875 13.25 4.234375 
Q 6.78125 9.90625 6.78125 20.515625 
Q 6.78125 27.484375 10.78125 32.3125 
Q 14.796875 37.15625 21.921875 38.8125 
z
M 18.3125 54.390625 
Q 18.3125 48.734375 21.84375 45.5625 
Q 25.390625 42.390625 31.78125 42.390625 
Q 38.140625 42.390625 41.71875 45.5625 
Q 45.3125 48.734375 45.3125 54.390625 
Q 45.3125 60.0625 41.71875 63.234375 
Q 38.140625 66.40625 31.78125 66.40625 
Q 25.390625 66.40625 21.84375 63.234375 
Q 18.3125 60.0625 18.3125 54.390625 
z
" id="DejaVuSans-56"/>
      </defs>
      <g transform="translate(396.234324 322.182437)scale(0.1 -0.1)">
       <use xlink:href="#DejaVuSans-56"/>
       <use x="63.623047" xlink:href="#DejaVuSans-48"/>
      </g>
     </g>
    </g>
    <g id="text_10">
     <!-- Generations -->
     <defs>
      <path d="M 59.515625 10.40625 
L 59.515625 29.984375 
L 43.40625 29.984375 
L 43.40625 38.09375 
L 69.28125 38.09375 
L 69.28125 6.78125 
Q 63.578125 2.734375 56.6875 0.65625 
Q 49.8125 -1.421875 42 -1.421875 
Q 24.90625 -1.421875 15.25 8.5625 
Q 5.609375 18.5625 5.609375 36.375 
Q 5.609375 54.25 15.25 64.234375 
Q 24.90625 74.21875 42 74.21875 
Q 49.125 74.21875 55.546875 72.453125 
Q 61.96875 70.703125 67.390625 67.28125 
L 67.390625 56.78125 
Q 61.921875 61.421875 55.765625 63.765625 
Q 49.609375 66.109375 42.828125 66.109375 
Q 29.4375 66.109375 22.71875 58.640625 
Q 16.015625 51.171875 16.015625 36.375 
Q 16.015625 21.625 22.71875 14.15625 
Q 29.4375 6.6875 42.828125 6.6875 
Q 48.046875 6.6875 52.140625 7.59375 
Q 56.25 8.5 59.515625 10.40625 
z
" id="DejaVuSans-71"/>
      <path d="M 56.203125 29.59375 
L 56.203125 25.203125 
L 14.890625 25.203125 
Q 15.484375 15.921875 20.484375 11.0625 
Q 25.484375 6.203125 34.421875 6.203125 
Q 39.59375 6.203125 44.453125 7.46875 
Q 49.3125 8.734375 54.109375 11.28125 
L 54.109375 2.78125 
Q 49.265625 0.734375 44.1875 -0.34375 
Q 39.109375 -1.421875 33.890625 -1.421875 
Q 20.796875 -1.421875 13.15625 6.1875 
Q 5.515625 13.8125 5.515625 26.8125 
Q 5.515625 40.234375 12.765625 48.109375 
Q 20.015625 56 32.328125 56 
Q 43.359375 56 49.78125 48.890625 
Q 56.203125 41.796875 56.203125 29.59375 
z
M 47.21875 32.234375 
Q 47.125 39.59375 43.09375 43.984375 
Q 39.0625 48.390625 32.421875 48.390625 
Q 24.90625 48.390625 20.390625 44.140625 
Q 15.875 39.890625 15.1875 32.171875 
z
" id="DejaVuSans-101"/>
      <path d="M 54.890625 33.015625 
L 54.890625 0 
L 45.90625 0 
L 45.90625 32.71875 
Q 45.90625 40.484375 42.875 44.328125 
Q 39.84375 48.1875 33.796875 48.1875 
Q 26.515625 48.1875 22.3125 43.546875 
Q 18.109375 38.921875 18.109375 30.90625 
L 18.109375 0 
L 9.078125 0 
L 9.078125 54.6875 
L 18.109375 54.6875 
L 18.109375 46.1875 
Q 21.34375 51.125 25.703125 53.5625 
Q 30.078125 56 35.796875 56 
Q 45.21875 56 50.046875 50.171875 
Q 54.890625 44.34375 54.890625 33.015625 
z
" id="DejaVuSans-110"/>
      <path d="M 41.109375 46.296875 
Q 39.59375 47.171875 37.8125 47.578125 
Q 36.03125 48 33.890625 48 
Q 26.265625 48 22.1875 43.046875 
Q 18.109375 38.09375 18.109375 28.8125 
L 18.109375 0 
L 9.078125 0 
L 9.078125 54.6875 
L 18.109375 54.6875 
L 18.109375 46.1875 
Q 20.953125 51.171875 25.484375 53.578125 
Q 30.03125 56 36.53125 56 
Q 37.453125 56 38.578125 55.875 
Q 39.703125 55.765625 41.0625 55.515625 
z
" id="DejaVuSans-114"/>
      <path d="M 34.28125 27.484375 
Q 23.390625 27.484375 19.1875 25 
Q 14.984375 22.515625 14.984375 16.5 
Q 14.984375 11.71875 18.140625 8.90625 
Q 21.296875 6.109375 26.703125 6.109375 
Q 34.1875 6.109375 38.703125 11.40625 
Q 43.21875 16.703125 43.21875 25.484375 
L 43.21875 27.484375 
z
M 52.203125 31.203125 
L 52.203125 0 
L 43.21875 0 
L 43.21875 8.296875 
Q 40.140625 3.328125 35.546875 0.953125 
Q 30.953125 -1.421875 24.3125 -1.421875 
Q 15.921875 -1.421875 10.953125 3.296875 
Q 6 8.015625 6 15.921875 
Q 6 25.140625 12.171875 29.828125 
Q 18.359375 34.515625 30.609375 34.515625 
L 43.21875 34.515625 
L 43.21875 35.40625 
Q 43.21875 41.609375 39.140625 45 
Q 35.0625 48.390625 27.6875 48.390625 
Q 23 48.390625 18.546875 47.265625 
Q 14.109375 46.140625 10.015625 43.890625 
L 10.015625 52.203125 
Q 14.9375 54.109375 19.578125 55.046875 
Q 24.21875 56 28.609375 56 
Q 40.484375 56 46.34375 49.84375 
Q 52.203125 43.703125 52.203125 31.203125 
z
" id="DejaVuSans-97"/>
      <path d="M 18.3125 70.21875 
L 18.3125 54.6875 
L 36.8125 54.6875 
L 36.8125 47.703125 
L 18.3125 47.703125 
L 18.3125 18.015625 
Q 18.3125 11.328125 20.140625 9.421875 
Q 21.96875 7.515625 27.59375 7.515625 
L 36.8125 7.515625 
L 36.8125 0 
L 27.59375 0 
Q 17.1875 0 13.234375 3.875 
Q 9.28125 7.765625 9.28125 18.015625 
L 9.28125 47.703125 
L 2.6875 47.703125 
L 2.6875 54.6875 
L 9.28125 54.6875 
L 9.28125 70.21875 
z
" id="DejaVuSans-116"/>
      <path d="M 9.421875 54.6875 
L 18.40625 54.6875 
L 18.40625 0 
L 9.421875 0 
z
M 9.421875 75.984375 
L 18.40625 75.984375 
L 18.40625 64.59375 
L 9.421875 64.59375 
z
" id="DejaVuSans-105"/>
      <path d="M 30.609375 48.390625 
Q 23.390625 48.390625 19.1875 42.75 
Q 14.984375 37.109375 14.984375 27.296875 
Q 14.984375 17.484375 19.15625 11.84375 
Q 23.34375 6.203125 30.609375 6.203125 
Q 37.796875 6.203125 41.984375 11.859375 
Q 46.1875 17.53125 46.1875 27.296875 
Q 46.1875 37.015625 41.984375 42.703125 
Q 37.796875 48.390625 30.609375 48.390625 
z
M 30.609375 56 
Q 42.328125 56 49.015625 48.375 
Q 55.71875 40.765625 55.71875 27.296875 
Q 55.71875 13.875 49.015625 6.21875 
Q 42.328125 -1.421875 30.609375 -1.421875 
Q 18.84375 -1.421875 12.171875 6.21875 
Q 5.515625 13.875 5.515625 27.296875 
Q 5.515625 40.765625 12.171875 48.375 
Q 18.84375 56 30.609375 56 
z
" id="DejaVuSans-111"/>
      <path d="M 44.28125 53.078125 
L 44.28125 44.578125 
Q 40.484375 46.53125 36.375 47.5 
Q 32.28125 48.484375 27.875 48.484375 
Q 21.1875 48.484375 17.84375 46.4375 
Q 14.5 44.390625 14.5 40.28125 
Q 14.5 37.15625 16.890625 35.375 
Q 19.28125 33.59375 26.515625 31.984375 
L 29.59375 31.296875 
Q 39.15625 29.25 43.1875 25.515625 
Q 47.21875 21.78125 47.21875 15.09375 
Q 47.21875 7.46875 41.1875 3.015625 
Q 35.15625 -1.421875 24.609375 -1.421875 
Q 20.21875 -1.421875 15.453125 -0.5625 
Q 10.6875 0.296875 5.421875 2 
L 5.421875 11.28125 
Q 10.40625 8.6875 15.234375 7.390625 
Q 20.0625 6.109375 24.8125 6.109375 
Q 31.15625 6.109375 34.5625 8.28125 
Q 37.984375 10.453125 37.984375 14.40625 
Q 37.984375 18.0625 35.515625 20.015625 
Q 33.0625 21.96875 24.703125 23.78125 
L 21.578125 24.515625 
Q 13.234375 26.265625 9.515625 29.90625 
Q 5.8125 33.546875 5.8125 39.890625 
Q 5.8125 47.609375 11.28125 51.796875 
Q 16.75 56 26.8125 56 
Q 31.78125 56 36.171875 55.265625 
Q 40.578125 54.546875 44.28125 53.078125 
z
" id="DejaVuSans-115"/>
     </defs>
     <g transform="translate(205.662344 335.860562)scale(0.1 -0.1)">
      <use xlink:href="#DejaVuSans-71"/>
      <use x="77.490234" xlink:href="#DejaVuSans-101"/>
      <use x="139.013672" xlink:href="#DejaVuSans-110"/>
      <use x="202.392578" xlink:href="#DejaVuSans-101"/>
      <use x="263.916016" xlink:href="#DejaVuSans-114"/>
      <use x="305.029297" xlink:href="#DejaVuSans-97"/>
      <use x="366.308594" xlink:href="#DejaVuSans-116"/>
      <use x="405.517578" xlink:href="#DejaVuSans-105"/>
      <use x="433.300781" xlink:href="#DejaVuSans-111"/>
      <use x="494.482422" xlink:href="#DejaVuSans-110"/>
      <use x="557.861328" xlink:href="#DejaVuSans-115"/>
     </g>
    </g>
   </g>
   <g id="matplotlib.axis_2">
    <g id="ytick_1">
     <g id="line2d_10">
      <defs>
       <path d="M 0 0 
L -3.5 0 
" id="mf5c9b64532" style="stroke:#000000;stroke-width:0.8;"/>
      </defs>
      <g>
       <use style="stroke:#000000;stroke-width:0.8;" x="57.6" xlink:href="#mf5c9b64532" y="307.584"/>
      </g>
     </g>
     <g id="text_11">
      <!-- 0 -->
      <g transform="translate(44.2375 311.383219)scale(0.1 -0.1)">
       <use xlink:href="#DejaVuSans-48"/>
      </g>
     </g>
    </g>
    <g id="ytick_2">
     <g id="line2d_11">
      <g>
       <use style="stroke:#000000;stroke-width:0.8;" x="57.6" xlink:href="#mf5c9b64532" y="257.097944"/>
      </g>
     </g>
     <g id="text_12">
      <!-- 50 -->
      <g transform="translate(37.875 260.897163)scale(0.1 -0.1)">
       <use xlink:href="#DejaVuSans-53"/>
       <use x="63.623047" xlink:href="#DejaVuSans-48"/>
      </g>
     </g>
    </g>
    <g id="ytick_3">
     <g id="line2d_12">
      <g>
       <use style="stroke:#000000;stroke-width:0.8;" x="57.6" xlink:href="#mf5c9b64532" y="206.611888"/>
      </g>
     </g>
     <g id="text_13">
      <!-- 100 -->
      <g transform="translate(31.5125 210.411107)scale(0.1 -0.1)">
       <use xlink:href="#DejaVuSans-49"/>
       <use x="63.623047" xlink:href="#DejaVuSans-48"/>
       <use x="127.246094" xlink:href="#DejaVuSans-48"/>
      </g>
     </g>
    </g>
    <g id="ytick_4">
     <g id="line2d_13">
      <g>
       <use style="stroke:#000000;stroke-width:0.8;" x="57.6" xlink:href="#mf5c9b64532" y="156.125833"/>
      </g>
     </g>
     <g id="text_14">
      <!-- 150 -->
      <g transform="translate(31.5125 159.925051)scale(0.1 -0.1)">
       <use xlink:href="#DejaVuSans-49"/>
       <use x="63.623047" xlink:href="#DejaVuSans-53"/>
       <use x="127.246094" xlink:href="#DejaVuSans-48"/>
      </g>
     </g>
    </g>
    <g id="ytick_5">
     <g id="line2d_14">
      <g>
       <use style="stroke:#000000;stroke-width:0.8;" x="57.6" xlink:href="#mf5c9b64532" y="105.639777"/>
      </g>
     </g>
     <g id="text_15">
      <!-- 200 -->
      <g transform="translate(31.5125 109.438996)scale(0.1 -0.1)">
       <use xlink:href="#DejaVuSans-50"/>
       <use x="63.623047" xlink:href="#DejaVuSans-48"/>
       <use x="127.246094" xlink:href="#DejaVuSans-48"/>
      </g>
     </g>
    </g>
    <g id="ytick_6">
     <g id="line2d_15">
      <g>
       <use style="stroke:#000000;stroke-width:0.8;" x="57.6" xlink:href="#mf5c9b64532" y="55.153721"/>
      </g>
     </g>
     <g id="text_16">
      <!-- 250 -->
      <g transform="translate(31.5125 58.95294)scale(0.1 -0.1)">
       <use xlink:href="#DejaVuSans-50"/>
       <use x="63.623047" xlink:href="#DejaVuSans-53"/>
       <use x="127.246094" xlink:href="#DejaVuSans-48"/>
      </g>
     </g>
    </g>
    <g id="text_17">
     <!-- Size per Species -->
     <defs>
      <path d="M 53.515625 70.515625 
L 53.515625 60.890625 
Q 47.90625 63.578125 42.921875 64.890625 
Q 37.9375 66.21875 33.296875 66.21875 
Q 25.25 66.21875 20.875 63.09375 
Q 16.5 59.96875 16.5 54.203125 
Q 16.5 49.359375 19.40625 46.890625 
Q 22.3125 44.4375 30.421875 42.921875 
L 36.375 41.703125 
Q 47.40625 39.59375 52.65625 34.296875 
Q 57.90625 29 57.90625 20.125 
Q 57.90625 9.515625 50.796875 4.046875 
Q 43.703125 -1.421875 29.984375 -1.421875 
Q 24.8125 -1.421875 18.96875 -0.25 
Q 13.140625 0.921875 6.890625 3.21875 
L 6.890625 13.375 
Q 12.890625 10.015625 18.65625 8.296875 
Q 24.421875 6.59375 29.984375 6.59375 
Q 38.421875 6.59375 43.015625 9.90625 
Q 47.609375 13.234375 47.609375 19.390625 
Q 47.609375 24.75 44.3125 27.78125 
Q 41.015625 30.8125 33.5 32.328125 
L 27.484375 33.5 
Q 16.453125 35.6875 11.515625 40.375 
Q 6.59375 45.0625 6.59375 53.421875 
Q 6.59375 63.09375 13.40625 68.65625 
Q 20.21875 74.21875 32.171875 74.21875 
Q 37.3125 74.21875 42.625 73.28125 
Q 47.953125 72.359375 53.515625 70.515625 
z
" id="DejaVuSans-83"/>
      <path d="M 5.515625 54.6875 
L 48.1875 54.6875 
L 48.1875 46.484375 
L 14.40625 7.171875 
L 48.1875 7.171875 
L 48.1875 0 
L 4.296875 0 
L 4.296875 8.203125 
L 38.09375 47.515625 
L 5.515625 47.515625 
z
" id="DejaVuSans-122"/>
      <path id="DejaVuSans-32"/>
      <path d="M 18.109375 8.203125 
L 18.109375 -20.796875 
L 9.078125 -20.796875 
L 9.078125 54.6875 
L 18.109375 54.6875 
L 18.109375 46.390625 
Q 20.953125 51.265625 25.265625 53.625 
Q 29.59375 56 35.59375 56 
Q 45.5625 56 51.78125 48.09375 
Q 58.015625 40.1875 58.015625 27.296875 
Q 58.015625 14.40625 51.78125 6.484375 
Q 45.5625 -1.421875 35.59375 -1.421875 
Q 29.59375 -1.421875 25.265625 0.953125 
Q 20.953125 3.328125 18.109375 8.203125 
z
M 48.6875 27.296875 
Q 48.6875 37.203125 44.609375 42.84375 
Q 40.53125 48.484375 33.40625 48.484375 
Q 26.265625 48.484375 22.1875 42.84375 
Q 18.109375 37.203125 18.109375 27.296875 
Q 18.109375 17.390625 22.1875 11.75 
Q 26.265625 6.109375 33.40625 6.109375 
Q 40.53125 6.109375 44.609375 11.75 
Q 48.6875 17.390625 48.6875 27.296875 
z
" id="DejaVuSans-112"/>
      <path d="M 48.78125 52.59375 
L 48.78125 44.1875 
Q 44.96875 46.296875 41.140625 47.34375 
Q 37.3125 48.390625 33.40625 48.390625 
Q 24.65625 48.390625 19.8125 42.84375 
Q 14.984375 37.3125 14.984375 27.296875 
Q 14.984375 17.28125 19.8125 11.734375 
Q 24.65625 6.203125 33.40625 6.203125 
Q 37.3125 6.203125 41.140625 7.25 
Q 44.96875 8.296875 48.78125 10.40625 
L 48.78125 2.09375 
Q 45.015625 0.34375 40.984375 -0.53125 
Q 36.96875 -1.421875 32.421875 -1.421875 
Q 20.0625 -1.421875 12.78125 6.34375 
Q 5.515625 14.109375 5.515625 27.296875 
Q 5.515625 40.671875 12.859375 48.328125 
Q 20.21875 56 33.015625 56 
Q 37.15625 56 41.109375 55.140625 
Q 45.0625 54.296875 48.78125 52.59375 
z
" id="DejaVuSans-99"/>
     </defs>
     <g transform="translate(25.432812 215.520969)rotate(-90)scale(0.1 -0.1)">
      <use xlink:href="#DejaVuSans-83"/>
      <use x="63.476562" xlink:href="#DejaVuSans-105"/>
      <use x="91.259766" xlink:href="#DejaVuSans-122"/>
      <use x="143.75" xlink:href="#DejaVuSans-101"/>
      <use x="205.273438" xlink:href="#DejaVuSans-32"/>
      <use x="237.060547" xlink:href="#DejaVuSans-112"/>
      <use x="300.537109" xlink:href="#DejaVuSans-101"/>
      <use x="362.060547" xlink:href="#DejaVuSans-114"/>
      <use x="403.173828" xlink:href="#DejaVuSans-32"/>
      <use x="434.960938" xlink:href="#DejaVuSans-83"/>
      <use x="498.4375" xlink:href="#DejaVuSans-112"/>
      <use x="561.914062" xlink:href="#DejaVuSans-101"/>
      <use x="623.4375" xlink:href="#DejaVuSans-99"/>
      <use x="678.417969" xlink:href="#DejaVuSans-105"/>
      <use x="706.201172" xlink:href="#DejaVuSans-101"/>
      <use x="767.724609" xlink:href="#DejaVuSans-115"/>
     </g>
    </g>
   </g>
   <g id="patch_3">
    <path d="M 57.6 307.584 
L 57.6 41.472 
" style="fill:none;stroke:#000000;stroke-linecap:square;stroke-linejoin:miter;stroke-width:0.8;"/>
   </g>
   <g id="patch_4">
    <path d="M 414.72 307.584 
L 414.72 41.472 
" style="fill:none;stroke:#000000;stroke-linecap:square;stroke-linejoin:miter;stroke-width:0.8;"/>
   </g>
   <g id="patch_5">
    <path d="M 57.6 307.584 
L 414.72 307.584 
" style="fill:none;stroke:#000000;stroke-linecap:square;stroke-linejoin:miter;stroke-width:0.8;"/>
   </g>
   <g id="patch_6">
    <path d="M 57.6 41.472 
L 414.72 41.472 
" style="fill:none;stroke:#000000;stroke-linecap:square;stroke-linejoin:miter;stroke-width:0.8;"/>
   </g>
   <g id="text_18">
    <!-- Speciation -->
    <g transform="translate(204.714375 35.472)scale(0.12 -0.12)">
     <use xlink:href="#DejaVuSans-83"/>
     <use x="63.476562" xlink:href="#DejaVuSans-112"/>
     <use x="126.953125" xlink:href="#DejaVuSans-101"/>
     <use x="188.476562" xlink:href="#DejaVuSans-99"/>
     <use x="243.457031" xlink:href="#DejaVuSans-105"/>
     <use x="271.240234" xlink:href="#DejaVuSans-97"/>
     <use x="332.519531" xlink:href="#DejaVuSans-116"/>
     <use x="371.728516" xlink:href="#DejaVuSans-105"/>
     <use x="399.511719" xlink:href="#DejaVuSans-111"/>
     <use x="460.693359" xlink:href="#DejaVuSans-110"/>
    </g>
   </g>
  </g>
 </g>
 <defs>
  <clipPath id="pe9a07a7f4b">
   <rect height="266.112" width="357.12" x="57.6" y="41.472"/>
  </clipPath>
 </defs>
</svg>
