<?xml version="1.0" encoding="UTF-8" standalone="no"?>
<!DOCTYPE svg PUBLIC "-//W3C//DTD SVG 1.1//EN"
 "http://www.w3.org/Graphics/SVG/1.1/DTD/svg11.dtd">
<!-- Generated by graphviz version 2.40.1 (20161225.0304)
 -->
<!-- Title: %3 Pages: 1 -->
<svg width="253pt" height="170pt"
 viewBox="0.00 0.00 253.43 170.12" xmlns="http://www.w3.org/2000/svg" xmlns:xlink="http://www.w3.org/1999/xlink">
<g id="graph0" class="graph" transform="scale(1 1) rotate(0) translate(4 166.1249)">
<title>%3</title>
<polygon fill="#ffffff" stroke="transparent" points="-4,4 -4,-166.1249 249.4279,-166.1249 249.4279,4 -4,4"/>
<!-- dx -->
<g id="node1" class="node">
<title>dx</title>
<polygon fill="#d3d3d3" stroke="#000000" points="48.4279,-162.1249 22.4279,-162.1249 22.4279,-144.1249 48.4279,-144.1249 48.4279,-162.1249"/>
<text text-anchor="middle" x="35.4279" y="-150.9249" font-family="Times,serif" font-size="9.00" fill="#000000">dx</text>
</g>
<!-- 0 -->
<g id="node5" class="node">
<title>0</title>
<ellipse fill="#add8e6" stroke="#000000" cx="74.4279" cy="-14.8492" rx="14.7" ry="14.7"/>
<text text-anchor="middle" x="74.4279" y="-12.6492" font-family="Times,serif" font-size="9.00" fill="#000000">0</text>
</g>
<!-- dx&#45;&gt;0 -->
<g id="edge7" class="edge">
<title>dx&#45;&gt;0</title>
<path fill="none" stroke="#00ff00" stroke-width=".1679" stroke-dasharray="1,5" d="M26.931,-143.9772C19.6233,-135.4376 9.6181,-121.9642 5.4279,-108.1249 -.0363,-90.0778 -3.0757,-82.5284 5.4279,-65.6985 14.9309,-46.8905 35.0337,-33.331 51.1016,-24.9685"/>
<polygon fill="#00ff00" stroke="#00ff00" stroke-width=".1679" points="52.9836,-27.9457 60.4539,-20.4327 49.929,-21.6473 52.9836,-27.9457"/>
</g>
<!-- 1 -->
<g id="node6" class="node">
<title>1</title>
<ellipse fill="#add8e6" stroke="#000000" cx="147.4279" cy="-14.8492" rx="14.7" ry="14.7"/>
<text text-anchor="middle" x="147.4279" y="-12.6492" font-family="Times,serif" font-size="9.00" fill="#000000">1</text>
</g>
<!-- dx&#45;&gt;1 -->
<g id="edge5" class="edge">
<title>dx&#45;&gt;1</title>
<path fill="none" stroke="#00ff00" stroke-width=".4132" d="M48.8514,-150.3159C78.3316,-143.8465 147.1653,-126.9952 160.4279,-108.1249 174.9853,-87.4122 167.1769,-57.6319 158.7328,-37.3303"/>
<polygon fill="#00ff00" stroke="#00ff00" stroke-width=".4132" points="161.8018,-35.6215 154.5032,-27.9416 155.4195,-38.4967 161.8018,-35.6215"/>
</g>
<!-- 951 -->
<g id="node7" class="node">
<title>951</title>
<ellipse fill="#ffffff" stroke="#000000" cx="35.4279" cy="-86.9117" rx="21.4286" ry="21.4286"/>
<text text-anchor="middle" x="35.4279" y="-84.7117" font-family="Times,serif" font-size="9.00" fill="#000000">951</text>
</g>
<!-- dx&#45;&gt;951 -->
<g id="edge8" class="edge">
<title>dx&#45;&gt;951</title>
<path fill="none" stroke="#00ff00" stroke-width=".4458" d="M35.4279,-143.9182C35.4279,-137.2572 35.4279,-127.8323 35.4279,-118.5602"/>
<polygon fill="#00ff00" stroke="#00ff00" stroke-width=".4458" points="38.928,-118.312 35.4279,-108.3121 31.928,-118.3121 38.928,-118.312"/>
</g>
<!-- dz -->
<g id="node2" class="node">
<title>dz</title>
<polygon fill="#d3d3d3" stroke="#000000" points="99.9279,-95.9117 74.9279,-95.9117 74.9279,-77.9117 99.9279,-77.9117 99.9279,-95.9117"/>
<text text-anchor="middle" x="87.4279" y="-84.7117" font-family="Times,serif" font-size="9.00" fill="#000000">dz</text>
</g>
<!-- dz&#45;&gt;0 -->
<g id="edge2" class="edge">
<title>dz&#45;&gt;0</title>
<path fill="none" stroke="#ff0000" stroke-width="1.2429" d="M85.7814,-77.7849C84.0563,-68.222 81.2714,-52.7846 78.8916,-39.5927"/>
<polygon fill="#ff0000" stroke="#ff0000" stroke-width="1.2429" points="82.3177,-38.8694 77.0979,-29.6496 75.4289,-40.1122 82.3177,-38.8694"/>
</g>
<!-- dz&#45;&gt;1 -->
<g id="edge6" class="edge">
<title>dz&#45;&gt;1</title>
<path fill="none" stroke="#ff0000" stroke-width=".4668" d="M95.0269,-77.7849C104.0948,-66.8941 119.5064,-48.384 131.2756,-34.2488"/>
<polygon fill="#ff0000" stroke="#ff0000" stroke-width=".4668" points="133.9998,-36.4469 137.7086,-26.5225 128.6203,-31.9679 133.9998,-36.4469"/>
</g>
<!-- theta -->
<g id="node3" class="node">
<title>theta</title>
<polygon fill="#d3d3d3" stroke="#000000" points="150.9279,-95.9117 117.9279,-95.9117 117.9279,-77.9117 150.9279,-77.9117 150.9279,-95.9117"/>
<text text-anchor="middle" x="134.4279" y="-84.7117" font-family="Times,serif" font-size="9.00" fill="#000000">theta</text>
</g>
<!-- theta&#45;&gt;0 -->
<g id="edge3" class="edge">
<title>theta&#45;&gt;0</title>
<path fill="none" stroke="#ff0000" stroke-width=".8183" d="M126.8288,-77.7849C117.761,-66.8941 102.3493,-48.384 90.5802,-34.2488"/>
<polygon fill="#ff0000" stroke="#ff0000" stroke-width=".8183" points="93.2355,-31.9679 84.1471,-26.5225 87.856,-36.4469 93.2355,-31.9679"/>
</g>
<!-- theta&#45;&gt;1 -->
<g id="edge1" class="edge">
<title>theta&#45;&gt;1</title>
<path fill="none" stroke="#00ff00" stroke-width="1.2691" d="M136.0743,-77.7849C137.7995,-68.222 140.5844,-52.7846 142.9642,-39.5927"/>
<polygon fill="#00ff00" stroke="#00ff00" stroke-width="1.2691" points="146.4269,-40.1122 144.7579,-29.6496 139.5381,-38.8694 146.4269,-40.1122"/>
</g>
<!-- dtheta -->
<g id="node4" class="node">
<title>dtheta</title>
<polygon fill="#d3d3d3" stroke="#000000" points="245.4279,-95.9117 207.4279,-95.9117 207.4279,-77.9117 245.4279,-77.9117 245.4279,-95.9117"/>
<text text-anchor="middle" x="226.4279" y="-84.7117" font-family="Times,serif" font-size="9.00" fill="#000000">dtheta</text>
</g>
<!-- dtheta&#45;&gt;1 -->
<g id="edge4" class="edge">
<title>dtheta&#45;&gt;1</title>
<path fill="none" stroke="#00ff00" stroke-width=".288" d="M216.4225,-77.7849C203.8357,-66.3035 181.9658,-46.3541 166.2186,-31.9898"/>
<polygon fill="#00ff00" stroke="#00ff00" stroke-width=".288" points="168.3703,-29.2151 158.6235,-25.0617 163.6528,-34.3868 168.3703,-29.2151"/>
</g>
<!-- 951&#45;&gt;0 -->
<g id="edge9" class="edge">
<title>951&#45;&gt;0</title>
<path fill="none" stroke="#00ff00" stroke-width=".2987" d="M45.6747,-67.9781C50.8055,-58.4977 57.0489,-46.9614 62.4052,-37.0642"/>
<polygon fill="#00ff00" stroke="#00ff00" stroke-width=".2987" points="65.5221,-38.6585 67.2036,-28.1979 59.3658,-35.3267 65.5221,-38.6585"/>
</g>
</g>
</svg>
