<?xml version="1.0" encoding="UTF-8" standalone="no"?>
<!DOCTYPE svg PUBLIC "-//W3C//DTD SVG 1.1//EN"
 "http://www.w3.org/Graphics/SVG/1.1/DTD/svg11.dtd">
<!-- Generated by graphviz version 2.40.1 (20161225.0304)
 -->
<!-- Title: %3 Pages: 1 -->
<svg width="203pt" height="263pt"
 viewBox="0.00 0.00 202.85 262.69" xmlns="http://www.w3.org/2000/svg" xmlns:xlink="http://www.w3.org/1999/xlink">
<g id="graph0" class="graph" transform="scale(1 1) rotate(0) translate(4 258.6934)">
<title>%3</title>
<polygon fill="#ffffff" stroke="transparent" points="-4,4 -4,-258.6934 198.8492,-258.6934 198.8492,4 -4,4"/>
<!-- dx -->
<g id="node1" class="node">
<title>dx</title>
<polygon fill="#d3d3d3" stroke="#000000" points="26,-99.4472 0,-99.4472 0,-81.4472 26,-81.4472 26,-99.4472"/>
<text text-anchor="middle" x="13" y="-88.2472" font-family="Times,serif" font-size="9.00" fill="#000000">dx</text>
</g>
<!-- 1 -->
<g id="node6" class="node">
<title>1</title>
<ellipse fill="#add8e6" stroke="#000000" cx="94" cy="-14.8492" rx="14.7" ry="14.7"/>
<text text-anchor="middle" x="94" y="-12.6492" font-family="Times,serif" font-size="9.00" fill="#000000">1</text>
</g>
<!-- dx&#45;&gt;1 -->
<g id="edge4" class="edge">
<title>dx&#45;&gt;1</title>
<path fill="none" stroke="#00ff00" stroke-width=".7818" d="M20.8682,-81.0126C24.9435,-76.2795 30.0847,-70.539 35,-65.6985 47.5598,-53.3298 62.6271,-40.3725 74.3913,-30.6333"/>
<polygon fill="#00ff00" stroke="#00ff00" stroke-width=".7818" points="76.7711,-33.2083 82.2907,-24.1648 72.3363,-27.7924 76.7711,-33.2083"/>
</g>
<!-- dz -->
<g id="node2" class="node">
<title>dz</title>
<polygon fill="#d3d3d3" stroke="#000000" points="192.5,-99.4472 167.5,-99.4472 167.5,-81.4472 192.5,-81.4472 192.5,-99.4472"/>
<text text-anchor="middle" x="180" y="-88.2472" font-family="Times,serif" font-size="9.00" fill="#000000">dz</text>
</g>
<!-- 0 -->
<g id="node5" class="node">
<title>0</title>
<ellipse fill="#add8e6" stroke="#000000" cx="180" cy="-14.8492" rx="14.7" ry="14.7"/>
<text text-anchor="middle" x="180" y="-12.6492" font-family="Times,serif" font-size="9.00" fill="#000000">0</text>
</g>
<!-- dz&#45;&gt;0 -->
<g id="edge1" class="edge">
<title>dz&#45;&gt;0</title>
<path fill="none" stroke="#ff0000" stroke-width=".7648" d="M180,-81.1774C180,-70.9978 180,-54.2181 180,-40.0834"/>
<polygon fill="#ff0000" stroke="#ff0000" stroke-width=".7648" points="183.5001,-39.9432 180,-29.9433 176.5001,-39.9433 183.5001,-39.9432"/>
</g>
<!-- dz&#45;&gt;1 -->
<g id="edge2" class="edge">
<title>dz&#45;&gt;1</title>
<path fill="none" stroke="#ff0000" stroke-width=".9657" d="M173.0264,-81.3547C169.1226,-76.4979 164.0382,-70.5401 159,-65.6985 145.2344,-52.47 128.1887,-39.2361 115.007,-29.5863"/>
<polygon fill="#ff0000" stroke="#ff0000" stroke-width=".9657" points="116.7465,-26.526 106.5863,-23.5225 112.6559,-32.2064 116.7465,-26.526"/>
</g>
<!-- theta -->
<g id="node3" class="node">
<title>theta</title>
<polygon fill="#d3d3d3" stroke="#000000" points="141.5,-254.6934 108.5,-254.6934 108.5,-236.6934 141.5,-236.6934 141.5,-254.6934"/>
<text text-anchor="middle" x="125" y="-243.4934" font-family="Times,serif" font-size="9.00" fill="#000000">theta</text>
</g>
<!-- 2652 -->
<g id="node8" class="node">
<title>2652</title>
<ellipse fill="#ffffff" stroke="#000000" cx="125" cy="-175.9447" rx="25" ry="25"/>
<text text-anchor="middle" x="125" y="-173.7447" font-family="Times,serif" font-size="9.00" fill="#000000">2652</text>
</g>
<!-- theta&#45;&gt;2652 -->
<g id="edge6" class="edge">
<title>theta&#45;&gt;2652</title>
<path fill="none" stroke="#00ff00" stroke-width=".5141" d="M125,-236.575C125,-229.9583 125,-220.5468 125,-211.1071"/>
<polygon fill="#00ff00" stroke="#00ff00" stroke-width=".5141" points="128.5001,-210.9839 125,-200.984 121.5001,-210.984 128.5001,-210.9839"/>
</g>
<!-- dtheta -->
<g id="node4" class="node">
<title>dtheta</title>
<polygon fill="#d3d3d3" stroke="#000000" points="82,-99.4472 44,-99.4472 44,-81.4472 82,-81.4472 82,-99.4472"/>
<text text-anchor="middle" x="63" y="-88.2472" font-family="Times,serif" font-size="9.00" fill="#000000">dtheta</text>
</g>
<!-- dtheta&#45;&gt;1 -->
<g id="edge3" class="edge">
<title>dtheta&#45;&gt;1</title>
<path fill="none" stroke="#00ff00" stroke-width=".9884" d="M66.8012,-81.1774C71.1625,-70.5419 78.478,-52.702 84.4242,-38.2012"/>
<polygon fill="#00ff00" stroke="#00ff00" stroke-width=".9884" points="87.7132,-39.4055 88.269,-28.8252 81.2365,-36.7496 87.7132,-39.4055"/>
</g>
<!-- 2552 -->
<g id="node7" class="node">
<title>2552</title>
<ellipse fill="#ffffff" stroke="#000000" cx="125" cy="-90.4472" rx="25" ry="25"/>
<text text-anchor="middle" x="125" y="-88.2472" font-family="Times,serif" font-size="9.00" fill="#000000">2552</text>
</g>
<!-- 2552&#45;&gt;1 -->
<g id="edge5" class="edge">
<title>2552&#45;&gt;1</title>
<path fill="none" stroke="#00ff00" stroke-width=".6954" d="M115.5305,-67.3546C111.7646,-58.1708 107.436,-47.6149 103.6522,-38.3876"/>
<polygon fill="#00ff00" stroke="#00ff00" stroke-width=".6954" points="106.8451,-36.9487 99.8127,-29.0243 100.3685,-39.6045 106.8451,-36.9487"/>
</g>
<!-- 2652&#45;&gt;2552 -->
<g id="edge7" class="edge">
<title>2652&#45;&gt;2552</title>
<path fill="none" stroke="#00ff00" stroke-width=".6774" d="M125,-150.7551C125,-142.8408 125,-133.9548 125,-125.4862"/>
<polygon fill="#00ff00" stroke="#00ff00" stroke-width=".6774" points="128.5001,-125.4568 125,-115.4568 121.5001,-125.4569 128.5001,-125.4568"/>
</g>
</g>
</svg>
