<?xml version="1.0" encoding="UTF-8" standalone="no"?>
<!DOCTYPE svg PUBLIC "-//W3C//DTD SVG 1.1//EN"
 "http://www.w3.org/Graphics/SVG/1.1/DTD/svg11.dtd">
<!-- Generated by graphviz version 2.40.1 (20161225.0304)
 -->
<!-- Title: %3 Pages: 1 -->
<svg width="264pt" height="177pt"
 viewBox="0.00 0.00 263.88 177.20" xmlns="http://www.w3.org/2000/svg" xmlns:xlink="http://www.w3.org/1999/xlink">
<g id="graph0" class="graph" transform="scale(1 1) rotate(0) translate(4 173.196)">
<title>%3</title>
<polygon fill="#ffffff" stroke="transparent" points="-4,4 -4,-173.196 259.8846,-173.196 259.8846,4 -4,4"/>
<!-- dx -->
<g id="node1" class="node">
<title>dx</title>
<polygon fill="#d3d3d3" stroke="#000000" points="43.1359,-99.4472 17.1359,-99.4472 17.1359,-81.4472 43.1359,-81.4472 43.1359,-99.4472"/>
<text text-anchor="middle" x="30.1359" y="-88.2472" font-family="Times,serif" font-size="9.00" fill="#000000">dx</text>
</g>
<!-- 0 -->
<g id="node5" class="node">
<title>0</title>
<ellipse fill="#add8e6" stroke="#000000" cx="30.1359" cy="-14.8492" rx="14.7" ry="14.7"/>
<text text-anchor="middle" x="30.1359" y="-12.6492" font-family="Times,serif" font-size="9.00" fill="#000000">0</text>
</g>
<!-- dx&#45;&gt;0 -->
<g id="edge6" class="edge">
<title>dx&#45;&gt;0</title>
<path fill="none" stroke="#00ff00" stroke-width=".1864" d="M30.1359,-81.1774C30.1359,-70.9978 30.1359,-54.2181 30.1359,-40.0834"/>
<polygon fill="#00ff00" stroke="#00ff00" stroke-width=".1864" points="33.636,-39.9432 30.1359,-29.9433 26.636,-39.9433 33.636,-39.9432"/>
</g>
<!-- 1 -->
<g id="node6" class="node">
<title>1</title>
<ellipse fill="#add8e6" stroke="#000000" cx="127.1359" cy="-14.8492" rx="14.7" ry="14.7"/>
<text text-anchor="middle" x="127.1359" y="-12.6492" font-family="Times,serif" font-size="9.00" fill="#000000">1</text>
</g>
<!-- dx&#45;&gt;1 -->
<g id="edge4" class="edge">
<title>dx&#45;&gt;1</title>
<path fill="none" stroke="#00ff00" stroke-width=".4887" d="M37.3766,-81.242C41.4473,-76.3522 46.7764,-70.3988 52.1359,-65.6985 68.7865,-51.0958 89.8053,-37.1761 105.3525,-27.6044"/>
<polygon fill="#00ff00" stroke="#00ff00" stroke-width=".4887" points="107.4865,-30.4045 114.2378,-22.2393 103.8682,-24.4122 107.4865,-30.4045"/>
</g>
<!-- dz -->
<g id="node2" class="node">
<title>dz</title>
<polygon fill="#d3d3d3" stroke="#000000" points="139.6359,-169.196 114.6359,-169.196 114.6359,-151.196 139.6359,-151.196 139.6359,-169.196"/>
<text text-anchor="middle" x="127.1359" y="-157.996" font-family="Times,serif" font-size="9.00" fill="#000000">dz</text>
</g>
<!-- dz&#45;&gt;0 -->
<g id="edge2" class="edge">
<title>dz&#45;&gt;0</title>
<path fill="none" stroke="#ff0000" stroke-width="1.2704" d="M114.3466,-157.2867C86.2609,-150.6119 20.6918,-133.3676 8.1359,-115.196 -8.2026,-91.5499 4.7471,-57.9097 16.5856,-36.2283"/>
<polygon fill="#ff0000" stroke="#ff0000" stroke-width="1.2704" points="19.6816,-37.8663 21.6697,-27.4597 13.6258,-34.3551 19.6816,-37.8663"/>
</g>
<!-- dz&#45;&gt;1 -->
<g id="edge3" class="edge">
<title>dz&#45;&gt;1</title>
<path fill="none" stroke="#ff0000" stroke-width=".7227" stroke-dasharray="1,5" d="M127.1359,-151.1039C127.1359,-129.216 127.1359,-72.9698 127.1359,-39.9895"/>
<polygon fill="#ff0000" stroke="#ff0000" stroke-width=".7227" points="130.636,-39.7801 127.1359,-29.7801 123.636,-39.7801 130.636,-39.7801"/>
</g>
<!-- 1423 -->
<g id="node7" class="node">
<title>1423</title>
<ellipse fill="#ffffff" stroke="#000000" cx="231.1359" cy="-90.4472" rx="25" ry="25"/>
<text text-anchor="middle" x="231.1359" y="-88.2472" font-family="Times,serif" font-size="9.00" fill="#000000">1423</text>
</g>
<!-- dz&#45;&gt;1423 -->
<g id="edge8" class="edge">
<title>dz&#45;&gt;1423</title>
<path fill="none" stroke="#00ff00" stroke-width=".324" d="M139.6409,-152.6812C153.976,-143.9726 178.0792,-129.0413 198.1359,-115.196 199.7714,-114.067 201.44,-112.892 203.1154,-111.6942"/>
<polygon fill="#00ff00" stroke="#00ff00" stroke-width=".324" points="205.4164,-114.3478 211.4268,-105.6228 201.2873,-108.6953 205.4164,-114.3478"/>
</g>
<!-- theta -->
<g id="node3" class="node">
<title>theta</title>
<polygon fill="#d3d3d3" stroke="#000000" points="188.6359,-99.4472 155.6359,-99.4472 155.6359,-81.4472 188.6359,-81.4472 188.6359,-99.4472"/>
<text text-anchor="middle" x="172.1359" y="-88.2472" font-family="Times,serif" font-size="9.00" fill="#000000">theta</text>
</g>
<!-- theta&#45;&gt;1 -->
<g id="edge7" class="edge">
<title>theta&#45;&gt;1</title>
<path fill="none" stroke="#ff0000" stroke-width=".2068" d="M166.618,-81.1774C160.0723,-70.1809 148.942,-51.4826 140.1644,-36.7365"/>
<polygon fill="#ff0000" stroke="#ff0000" stroke-width=".2068" points="142.9303,-34.5403 134.8078,-27.7377 136.9153,-38.1208 142.9303,-34.5403"/>
</g>
<!-- dtheta -->
<g id="node4" class="node">
<title>dtheta</title>
<polygon fill="#d3d3d3" stroke="#000000" points="99.1359,-99.4472 61.1359,-99.4472 61.1359,-81.4472 99.1359,-81.4472 99.1359,-99.4472"/>
<text text-anchor="middle" x="80.1359" y="-88.2472" font-family="Times,serif" font-size="9.00" fill="#000000">dtheta</text>
</g>
<!-- dtheta&#45;&gt;0 -->
<g id="edge1" class="edge">
<title>dtheta&#45;&gt;0</title>
<path fill="none" stroke="#ff0000" stroke-width=".2733" d="M74.0049,-81.1774C66.6194,-70.0108 53.9813,-50.9025 44.1615,-36.0554"/>
<polygon fill="#ff0000" stroke="#ff0000" stroke-width=".2733" points="46.9195,-33.8807 38.4837,-27.4707 41.081,-37.7423 46.9195,-33.8807"/>
</g>
<!-- dtheta&#45;&gt;1 -->
<g id="edge5" class="edge">
<title>dtheta&#45;&gt;1</title>
<path fill="none" stroke="#00ff00" stroke-width="1.5953" d="M85.899,-81.1774C92.8414,-70.0108 104.7212,-50.9025 113.9518,-36.0554"/>
<polygon fill="#00ff00" stroke="#00ff00" stroke-width="1.5953" points="116.9815,-37.8112 119.289,-27.4707 111.0367,-34.1153 116.9815,-37.8112"/>
</g>
<!-- 1423&#45;&gt;1 -->
<g id="edge9" class="edge">
<title>1423&#45;&gt;1</title>
<path fill="none" stroke="#ff0000" stroke-width=".7031" d="M211.295,-75.457C206.9707,-72.2208 202.4102,-68.8312 198.1359,-65.6985 181.3836,-53.4201 162.2289,-39.7215 148.0402,-29.6387"/>
<polygon fill="#ff0000" stroke="#ff0000" stroke-width=".7031" points="149.6898,-26.5176 139.5085,-23.5863 145.6396,-32.2269 149.6898,-26.5176"/>
</g>
</g>
</svg>
