<?xml version="1.0" encoding="UTF-8" standalone="no"?>
<!DOCTYPE svg PUBLIC "-//W3C//DTD SVG 1.1//EN"
 "http://www.w3.org/Graphics/SVG/1.1/DTD/svg11.dtd">
<!-- Generated by graphviz version 2.40.1 (20161225.0304)
 -->
<!-- Title: %3 Pages: 1 -->
<svg width="223pt" height="177pt"
 viewBox="0.00 0.00 223.26 177.20" xmlns="http://www.w3.org/2000/svg" xmlns:xlink="http://www.w3.org/1999/xlink">
<g id="graph0" class="graph" transform="scale(1 1) rotate(0) translate(4 173.196)">
<title>%3</title>
<polygon fill="#ffffff" stroke="transparent" points="-4,4 -4,-173.196 219.2613,-173.196 219.2613,4 -4,4"/>
<!-- dx -->
<g id="node1" class="node">
<title>dx</title>
<polygon fill="#d3d3d3" stroke="#000000" points="200.5,-99.4472 174.5,-99.4472 174.5,-81.4472 200.5,-81.4472 200.5,-99.4472"/>
<text text-anchor="middle" x="187.5" y="-88.2472" font-family="Times,serif" font-size="9.00" fill="#000000">dx</text>
</g>
<!-- 0 -->
<g id="node5" class="node">
<title>0</title>
<ellipse fill="#add8e6" stroke="#000000" cx="187.5" cy="-14.8492" rx="14.7" ry="14.7"/>
<text text-anchor="middle" x="187.5" y="-12.6492" font-family="Times,serif" font-size="9.00" fill="#000000">0</text>
</g>
<!-- dx&#45;&gt;0 -->
<g id="edge5" class="edge">
<title>dx&#45;&gt;0</title>
<path fill="none" stroke="#00ff00" stroke-width=".1864" d="M187.5,-81.1774C187.5,-70.9978 187.5,-54.2181 187.5,-40.0834"/>
<polygon fill="#00ff00" stroke="#00ff00" stroke-width=".1864" points="191.0001,-39.9432 187.5,-29.9433 184.0001,-39.9433 191.0001,-39.9432"/>
</g>
<!-- 1 -->
<g id="node6" class="node">
<title>1</title>
<ellipse fill="#add8e6" stroke="#000000" cx="106.5" cy="-14.8492" rx="14.7" ry="14.7"/>
<text text-anchor="middle" x="106.5" y="-12.6492" font-family="Times,serif" font-size="9.00" fill="#000000">1</text>
</g>
<!-- dx&#45;&gt;1 -->
<g id="edge3" class="edge">
<title>dx&#45;&gt;1</title>
<path fill="none" stroke="#00ff00" stroke-width=".4887" d="M179.6318,-81.0126C175.5565,-76.2795 170.4153,-70.539 165.5,-65.6985 152.9402,-53.3298 137.8729,-40.3725 126.1087,-30.6333"/>
<polygon fill="#00ff00" stroke="#00ff00" stroke-width=".4887" points="128.1637,-27.7924 118.2093,-24.1648 123.7289,-33.2083 128.1637,-27.7924"/>
</g>
<!-- dz -->
<g id="node2" class="node">
<title>dz</title>
<polygon fill="#d3d3d3" stroke="#000000" points="164,-169.196 139,-169.196 139,-151.196 164,-151.196 164,-169.196"/>
<text text-anchor="middle" x="151.5" y="-157.996" font-family="Times,serif" font-size="9.00" fill="#000000">dz</text>
</g>
<!-- dz&#45;&gt;0 -->
<g id="edge2" class="edge">
<title>dz&#45;&gt;0</title>
<path fill="none" stroke="#ff0000" stroke-width="1.2704" d="M164.01,-154.7158C178.0462,-147.7954 200.0815,-134.4243 209.5,-115.196 221.8943,-89.8925 210.6131,-57.6045 200.1571,-36.5886"/>
<polygon fill="#ff0000" stroke="#ff0000" stroke-width="1.2704" points="203.127,-34.7182 195.3488,-27.5244 196.9432,-37.9986 203.127,-34.7182"/>
</g>
<!-- 1423 -->
<g id="node7" class="node">
<title>1423</title>
<ellipse fill="#ffffff" stroke="#000000" cx="75.5" cy="-90.4472" rx="25" ry="25"/>
<text text-anchor="middle" x="75.5" y="-88.2472" font-family="Times,serif" font-size="9.00" fill="#000000">1423</text>
</g>
<!-- dz&#45;&gt;1423 -->
<g id="edge7" class="edge">
<title>dz&#45;&gt;1423</title>
<path fill="none" stroke="#00ff00" stroke-width=".324" d="M141.5643,-151.0775C131.3797,-141.7306 115.1181,-126.8066 101.2776,-114.1045"/>
<polygon fill="#00ff00" stroke="#00ff00" stroke-width=".324" points="103.6256,-111.5088 93.8914,-107.3259 98.8925,-116.6661 103.6256,-111.5088"/>
</g>
<!-- theta -->
<g id="node3" class="node">
<title>theta</title>
<polygon fill="#d3d3d3" stroke="#000000" points="33,-99.4472 0,-99.4472 0,-81.4472 33,-81.4472 33,-99.4472"/>
<text text-anchor="middle" x="16.5" y="-88.2472" font-family="Times,serif" font-size="9.00" fill="#000000">theta</text>
</g>
<!-- theta&#45;&gt;1 -->
<g id="edge6" class="edge">
<title>theta&#45;&gt;1</title>
<path fill="none" stroke="#ff0000" stroke-width=".2068" d="M25.5139,-81.0156C30.1635,-76.2832 36.0003,-70.5425 41.5,-65.6985 55.8266,-53.0798 72.8493,-39.8208 85.88,-30.0069"/>
<polygon fill="#ff0000" stroke="#ff0000" stroke-width=".2068" points="88.2593,-32.5986 94.1812,-23.8133 84.0733,-26.9881 88.2593,-32.5986"/>
</g>
<!-- dtheta -->
<g id="node4" class="node">
<title>dtheta</title>
<polygon fill="#d3d3d3" stroke="#000000" points="156.5,-99.4472 118.5,-99.4472 118.5,-81.4472 156.5,-81.4472 156.5,-99.4472"/>
<text text-anchor="middle" x="137.5" y="-88.2472" font-family="Times,serif" font-size="9.00" fill="#000000">dtheta</text>
</g>
<!-- dtheta&#45;&gt;0 -->
<g id="edge1" class="edge">
<title>dtheta&#45;&gt;0</title>
<path fill="none" stroke="#ff0000" stroke-width=".2733" d="M143.631,-81.1774C151.0165,-70.0108 163.6546,-50.9025 173.4744,-36.0554"/>
<polygon fill="#ff0000" stroke="#ff0000" stroke-width=".2733" points="176.5549,-37.7423 179.1522,-27.4707 170.7164,-33.8807 176.5549,-37.7423"/>
</g>
<!-- dtheta&#45;&gt;1 -->
<g id="edge4" class="edge">
<title>dtheta&#45;&gt;1</title>
<path fill="none" stroke="#00ff00" stroke-width="1.5953" d="M133.6988,-81.1774C129.3375,-70.5419 122.022,-52.702 116.0758,-38.2012"/>
<polygon fill="#00ff00" stroke="#00ff00" stroke-width="1.5953" points="119.2635,-36.7496 112.231,-28.8252 112.7868,-39.4055 119.2635,-36.7496"/>
</g>
<!-- 1423&#45;&gt;1 -->
<g id="edge8" class="edge">
<title>1423&#45;&gt;1</title>
<path fill="none" stroke="#ff0000" stroke-width=".7031" d="M84.9695,-67.3546C88.7354,-58.1708 93.064,-47.6149 96.8478,-38.3876"/>
<polygon fill="#ff0000" stroke="#ff0000" stroke-width=".7031" points="100.1315,-39.6045 100.6873,-29.0243 93.6549,-36.9487 100.1315,-39.6045"/>
</g>
</g>
</svg>
