<?xml version="1.0" encoding="UTF-8" standalone="no"?>
<!DOCTYPE svg PUBLIC "-//W3C//DTD SVG 1.1//EN"
 "http://www.w3.org/Graphics/SVG/1.1/DTD/svg11.dtd">
<!-- Generated by graphviz version 2.40.1 (20161225.0304)
 -->
<!-- Title: %3 Pages: 1 -->
<svg width="239pt" height="170pt"
 viewBox="0.00 0.00 239.21 170.12" xmlns="http://www.w3.org/2000/svg" xmlns:xlink="http://www.w3.org/1999/xlink">
<g id="graph0" class="graph" transform="scale(1 1) rotate(0) translate(4 166.1249)">
<title>%3</title>
<polygon fill="#ffffff" stroke="transparent" points="-4,4 -4,-166.1249 235.2132,-166.1249 235.2132,4 -4,4"/>
<!-- dx -->
<g id="node1" class="node">
<title>dx</title>
<polygon fill="#d3d3d3" stroke="#000000" points="106.2132,-162.1249 80.2132,-162.1249 80.2132,-144.1249 106.2132,-144.1249 106.2132,-162.1249"/>
<text text-anchor="middle" x="93.2132" y="-150.9249" font-family="Times,serif" font-size="9.00" fill="#000000">dx</text>
</g>
<!-- 1 -->
<g id="node6" class="node">
<title>1</title>
<ellipse fill="#add8e6" stroke="#000000" cx="145.2132" cy="-14.8492" rx="14.7" ry="14.7"/>
<text text-anchor="middle" x="145.2132" y="-12.6492" font-family="Times,serif" font-size="9.00" fill="#000000">1</text>
</g>
<!-- dx&#45;&gt;1 -->
<g id="edge5" class="edge">
<title>dx&#45;&gt;1</title>
<path fill="none" stroke="#00ff00" stroke-width=".4132" d="M106.5609,-146.2809C119.4267,-138.8484 138.1021,-125.6521 146.2132,-108.1249 156.256,-86.4236 154.3811,-58.7254 150.9953,-39.1677"/>
<polygon fill="#00ff00" stroke="#00ff00" stroke-width=".4132" points="154.403,-38.3579 149.025,-29.2296 147.5366,-39.7193 154.403,-38.3579"/>
</g>
<!-- 951 -->
<g id="node7" class="node">
<title>951</title>
<ellipse fill="#ffffff" stroke="#000000" cx="21.2132" cy="-86.9117" rx="21.4286" ry="21.4286"/>
<text text-anchor="middle" x="21.2132" y="-84.7117" font-family="Times,serif" font-size="9.00" fill="#000000">951</text>
</g>
<!-- dx&#45;&gt;951 -->
<g id="edge7" class="edge">
<title>dx&#45;&gt;951</title>
<path fill="none" stroke="#00ff00" stroke-width=".4458" d="M83.2019,-143.9182C73.2823,-134.7959 57.7259,-120.4897 44.6791,-108.4915"/>
<polygon fill="#00ff00" stroke="#00ff00" stroke-width=".4458" points="46.6826,-105.5791 36.9527,-101.3862 41.9442,-110.7315 46.6826,-105.5791"/>
</g>
<!-- dz -->
<g id="node2" class="node">
<title>dz</title>
<polygon fill="#d3d3d3" stroke="#000000" points="136.7132,-95.9117 111.7132,-95.9117 111.7132,-77.9117 136.7132,-77.9117 136.7132,-95.9117"/>
<text text-anchor="middle" x="124.2132" y="-84.7117" font-family="Times,serif" font-size="9.00" fill="#000000">dz</text>
</g>
<!-- 0 -->
<g id="node5" class="node">
<title>0</title>
<ellipse fill="#add8e6" stroke="#000000" cx="77.2132" cy="-14.8492" rx="14.7" ry="14.7"/>
<text text-anchor="middle" x="77.2132" y="-12.6492" font-family="Times,serif" font-size="9.00" fill="#000000">0</text>
</g>
<!-- dz&#45;&gt;0 -->
<g id="edge2" class="edge">
<title>dz&#45;&gt;0</title>
<path fill="none" stroke="#ff0000" stroke-width="1.2429" d="M118.2606,-77.7849C111.4523,-67.3462 100.0788,-49.9077 91.0282,-36.031"/>
<polygon fill="#ff0000" stroke="#ff0000" stroke-width="1.2429" points="93.882,-33.9996 85.4874,-27.5357 88.0188,-37.8237 93.882,-33.9996"/>
</g>
<!-- dz&#45;&gt;1 -->
<g id="edge6" class="edge">
<title>dz&#45;&gt;1</title>
<path fill="none" stroke="#ff0000" stroke-width=".4668" d="M126.8729,-77.7849C129.6945,-68.1025 134.271,-52.3978 138.1465,-39.0991"/>
<polygon fill="#ff0000" stroke="#ff0000" stroke-width=".4668" points="141.6196,-39.6906 141.0572,-29.1107 134.8992,-37.7321 141.6196,-39.6906"/>
</g>
<!-- theta -->
<g id="node3" class="node">
<title>theta</title>
<polygon fill="#d3d3d3" stroke="#000000" points="93.7132,-95.9117 60.7132,-95.9117 60.7132,-77.9117 93.7132,-77.9117 93.7132,-95.9117"/>
<text text-anchor="middle" x="77.2132" y="-84.7117" font-family="Times,serif" font-size="9.00" fill="#000000">theta</text>
</g>
<!-- theta&#45;&gt;0 -->
<g id="edge3" class="edge">
<title>theta&#45;&gt;0</title>
<path fill="none" stroke="#ff0000" stroke-width=".8183" d="M77.2132,-77.7849C77.2132,-68.3758 77.2132,-53.2798 77.2132,-40.2312"/>
<polygon fill="#ff0000" stroke="#ff0000" stroke-width=".8183" points="80.7133,-39.9216 77.2132,-29.9216 73.7133,-39.9216 80.7133,-39.9216"/>
</g>
<!-- theta&#45;&gt;1 -->
<g id="edge1" class="edge">
<title>theta&#45;&gt;1</title>
<path fill="none" stroke="#00ff00" stroke-width="1.2691" d="M85.8255,-77.7849C96.319,-66.6645 114.3086,-47.6002 127.7453,-33.3608"/>
<polygon fill="#00ff00" stroke="#00ff00" stroke-width="1.2691" points="130.3476,-35.7027 134.6651,-26.0275 125.2564,-30.8985 130.3476,-35.7027"/>
</g>
<!-- dtheta -->
<g id="node4" class="node">
<title>dtheta</title>
<polygon fill="#d3d3d3" stroke="#000000" points="231.2132,-95.9117 193.2132,-95.9117 193.2132,-77.9117 231.2132,-77.9117 231.2132,-95.9117"/>
<text text-anchor="middle" x="212.2132" y="-84.7117" font-family="Times,serif" font-size="9.00" fill="#000000">dtheta</text>
</g>
<!-- dtheta&#45;&gt;1 -->
<g id="edge4" class="edge">
<title>dtheta&#45;&gt;1</title>
<path fill="none" stroke="#00ff00" stroke-width=".288" d="M203.7276,-77.7849C193.3884,-66.6645 175.6633,-47.6002 162.4243,-33.3608"/>
<polygon fill="#00ff00" stroke="#00ff00" stroke-width=".288" points="164.9786,-30.9679 155.6061,-26.0275 159.852,-35.7343 164.9786,-30.9679"/>
</g>
<!-- 951&#45;&gt;0 -->
<g id="edge8" class="edge">
<title>951&#45;&gt;0</title>
<path fill="none" stroke="#00ff00" stroke-width=".2987" d="M34.4844,-69.8339C42.6512,-59.3246 53.155,-45.8081 61.7044,-34.8064"/>
<polygon fill="#00ff00" stroke="#00ff00" stroke-width=".2987" points="64.6875,-36.6717 68.0599,-26.6279 59.1602,-32.3764 64.6875,-36.6717"/>
</g>
</g>
</svg>
