<?xml version="1.0" encoding="UTF-8" standalone="no"?>
<!DOCTYPE svg PUBLIC "-//W3C//DTD SVG 1.1//EN"
 "http://www.w3.org/Graphics/SVG/1.1/DTD/svg11.dtd">
<!-- Generated by graphviz version 2.40.1 (20161225.0304)
 -->
<!-- Title: %3 Pages: 1 -->
<svg width="186pt" height="92pt"
 viewBox="0.00 0.00 185.50 91.70" xmlns="http://www.w3.org/2000/svg" xmlns:xlink="http://www.w3.org/1999/xlink">
<g id="graph0" class="graph" transform="scale(1 1) rotate(0) translate(4 87.6985)">
<title>%3</title>
<polygon fill="#ffffff" stroke="transparent" points="-4,4 -4,-87.6985 181.5,-87.6985 181.5,4 -4,4"/>
<!-- dx -->
<g id="node1" class="node">
<title>dx</title>
<polygon fill="#d3d3d3" stroke="#000000" points="26,-83.6985 0,-83.6985 0,-65.6985 26,-65.6985 26,-83.6985"/>
<text text-anchor="middle" x="13" y="-72.4985" font-family="Times,serif" font-size="9.00" fill="#000000">dx</text>
</g>
<!-- 1 -->
<g id="node6" class="node">
<title>1</title>
<ellipse fill="#add8e6" stroke="#000000" cx="57" cy="-14.8492" rx="14.7" ry="14.7"/>
<text text-anchor="middle" x="57" y="-12.6492" font-family="Times,serif" font-size="9.00" fill="#000000">1</text>
</g>
<!-- dx&#45;&gt;1 -->
<g id="edge4" class="edge">
<title>dx&#45;&gt;1</title>
<path fill="none" stroke="#00ff00" stroke-width=".5139" d="M19.6827,-65.6087C25.6177,-57.5357 34.5054,-45.4467 42.1184,-35.0913"/>
<polygon fill="#00ff00" stroke="#00ff00" stroke-width=".5139" points="45.0174,-37.057 48.1208,-26.9269 39.3775,-32.9107 45.0174,-37.057"/>
</g>
<!-- dz -->
<g id="node2" class="node">
<title>dz</title>
<polygon fill="#d3d3d3" stroke="#000000" points="69.5,-83.6985 44.5,-83.6985 44.5,-65.6985 69.5,-65.6985 69.5,-83.6985"/>
<text text-anchor="middle" x="57" y="-72.4985" font-family="Times,serif" font-size="9.00" fill="#000000">dz</text>
</g>
<!-- 0 -->
<g id="node5" class="node">
<title>0</title>
<ellipse fill="#add8e6" stroke="#000000" cx="107" cy="-14.8492" rx="14.7" ry="14.7"/>
<text text-anchor="middle" x="107" y="-12.6492" font-family="Times,serif" font-size="9.00" fill="#000000">0</text>
</g>
<!-- dz&#45;&gt;0 -->
<g id="edge2" class="edge">
<title>dz&#45;&gt;0</title>
<path fill="none" stroke="#ff0000" stroke-width=".9945" d="M64.5939,-65.6087C71.492,-57.3518 81.8999,-44.8937 90.6781,-34.3863"/>
<polygon fill="#ff0000" stroke="#ff0000" stroke-width=".9945" points="93.5451,-36.4136 97.2705,-26.4953 88.1731,-31.9256 93.5451,-36.4136"/>
</g>
<!-- dz&#45;&gt;1 -->
<g id="edge3" class="edge">
<title>dz&#45;&gt;1</title>
<path fill="none" stroke="#ff0000" stroke-width=".9937" d="M57,-65.6087C57,-58.8397 57,-49.2471 57,-40.2205"/>
<polygon fill="#ff0000" stroke="#ff0000" stroke-width=".9937" points="60.5001,-40.0872 57,-30.0872 53.5001,-40.0872 60.5001,-40.0872"/>
</g>
<!-- theta -->
<g id="node3" class="node">
<title>theta</title>
<polygon fill="#d3d3d3" stroke="#000000" points="177.5,-83.6985 144.5,-83.6985 144.5,-65.6985 177.5,-65.6985 177.5,-83.6985"/>
<text text-anchor="middle" x="161" y="-72.4985" font-family="Times,serif" font-size="9.00" fill="#000000">theta</text>
</g>
<!-- theta&#45;&gt;0 -->
<g id="edge5" class="edge">
<title>theta&#45;&gt;0</title>
<path fill="none" stroke="#00ff00" stroke-width=".2885" d="M152.7986,-65.6087C145.1809,-57.1658 133.5998,-44.3303 123.9897,-33.6793"/>
<polygon fill="#00ff00" stroke="#00ff00" stroke-width=".2885" points="126.4209,-31.1491 117.1233,-26.0691 121.2237,-35.8383 126.4209,-31.1491"/>
</g>
<!-- dtheta -->
<g id="node4" class="node">
<title>dtheta</title>
<polygon fill="#d3d3d3" stroke="#000000" points="126,-83.6985 88,-83.6985 88,-65.6985 126,-65.6985 126,-83.6985"/>
<text text-anchor="middle" x="107" y="-72.4985" font-family="Times,serif" font-size="9.00" fill="#000000">dtheta</text>
</g>
<!-- dtheta&#45;&gt;0 -->
<g id="edge1" class="edge">
<title>dtheta&#45;&gt;0</title>
<path fill="none" stroke="#ff0000" stroke-width=".7292" d="M107,-65.6087C107,-58.8397 107,-49.2471 107,-40.2205"/>
<polygon fill="#ff0000" stroke="#ff0000" stroke-width=".7292" points="110.5001,-40.0872 107,-30.0872 103.5001,-40.0872 110.5001,-40.0872"/>
</g>
<!-- dtheta&#45;&gt;1 -->
<g id="edge6" class="edge">
<title>dtheta&#45;&gt;1</title>
<path fill="none" stroke="#00ff00" stroke-width=".2326" d="M99.4061,-65.6087C92.508,-57.3518 82.1001,-44.8937 73.3219,-34.3863"/>
<polygon fill="#00ff00" stroke="#00ff00" stroke-width=".2326" points="75.8269,-31.9256 66.7295,-26.4953 70.4549,-36.4136 75.8269,-31.9256"/>
</g>
</g>
</svg>
