<?xml version="1.0" encoding="UTF-8" standalone="no"?>
<!DOCTYPE svg PUBLIC "-//W3C//DTD SVG 1.1//EN"
 "http://www.w3.org/Graphics/SVG/1.1/DTD/svg11.dtd">
<!-- Generated by graphviz version 2.40.1 (20161225.0304)
 -->
<!-- Title: %3 Pages: 1 -->
<svg width="188pt" height="92pt"
 viewBox="0.00 0.00 187.85 91.70" xmlns="http://www.w3.org/2000/svg" xmlns:xlink="http://www.w3.org/1999/xlink">
<g id="graph0" class="graph" transform="scale(1 1) rotate(0) translate(4 87.6985)">
<title>%3</title>
<polygon fill="#ffffff" stroke="transparent" points="-4,4 -4,-87.6985 183.8492,-87.6985 183.8492,4 -4,4"/>
<!-- dx -->
<g id="node1" class="node">
<title>dx</title>
<polygon fill="#d3d3d3" stroke="#000000" points="26,-83.6985 0,-83.6985 0,-65.6985 26,-65.6985 26,-83.6985"/>
<text text-anchor="middle" x="13" y="-72.4985" font-family="Times,serif" font-size="9.00" fill="#000000">dx</text>
</g>
<!-- 1 -->
<g id="node6" class="node">
<title>1</title>
<ellipse fill="#add8e6" stroke="#000000" cx="88" cy="-14.8492" rx="14.7" ry="14.7"/>
<text text-anchor="middle" x="88" y="-12.6492" font-family="Times,serif" font-size="9.00" fill="#000000">1</text>
</g>
<!-- dx&#45;&gt;1 -->
<g id="edge4" class="edge">
<title>dx&#45;&gt;1</title>
<path fill="none" stroke="#00ff00" stroke-width=".7035" d="M24.3909,-65.6087C35.9289,-56.4014 54.0134,-41.9702 67.9549,-30.845"/>
<polygon fill="#00ff00" stroke="#00ff00" stroke-width=".7035" points="70.3713,-33.3946 76.0045,-24.4215 66.0051,-27.9232 70.3713,-33.3946"/>
</g>
<!-- dz -->
<g id="node2" class="node">
<title>dz</title>
<polygon fill="#d3d3d3" stroke="#000000" points="177.5,-83.6985 152.5,-83.6985 152.5,-65.6985 177.5,-65.6985 177.5,-83.6985"/>
<text text-anchor="middle" x="165" y="-72.4985" font-family="Times,serif" font-size="9.00" fill="#000000">dz</text>
</g>
<!-- 0 -->
<g id="node5" class="node">
<title>0</title>
<ellipse fill="#add8e6" stroke="#000000" cx="165" cy="-14.8492" rx="14.7" ry="14.7"/>
<text text-anchor="middle" x="165" y="-12.6492" font-family="Times,serif" font-size="9.00" fill="#000000">0</text>
</g>
<!-- dz&#45;&gt;0 -->
<g id="edge3" class="edge">
<title>dz&#45;&gt;0</title>
<path fill="none" stroke="#ff0000" stroke-width="1.0922" d="M165,-65.6087C165,-58.8397 165,-49.2471 165,-40.2205"/>
<polygon fill="#ff0000" stroke="#ff0000" stroke-width="1.0922" points="168.5001,-40.0872 165,-30.0872 161.5001,-40.0872 168.5001,-40.0872"/>
</g>
<!-- dz&#45;&gt;1 -->
<g id="edge5" class="edge">
<title>dz&#45;&gt;1</title>
<path fill="none" stroke="#ff0000" stroke-width=".4786" d="M153.3054,-65.6087C141.3203,-56.2931 122.4551,-41.6299 108.0762,-30.4537"/>
<polygon fill="#ff0000" stroke="#ff0000" stroke-width=".4786" points="109.8481,-27.3981 99.8047,-24.0246 105.5523,-32.9249 109.8481,-27.3981"/>
</g>
<!-- theta -->
<g id="node3" class="node">
<title>theta</title>
<polygon fill="#d3d3d3" stroke="#000000" points="77.5,-83.6985 44.5,-83.6985 44.5,-65.6985 77.5,-65.6985 77.5,-83.6985"/>
<text text-anchor="middle" x="61" y="-72.4985" font-family="Times,serif" font-size="9.00" fill="#000000">theta</text>
</g>
<!-- theta&#45;&gt;1 -->
<g id="edge1" class="edge">
<title>theta&#45;&gt;1</title>
<path fill="none" stroke="#00ff00" stroke-width="2.1416" d="M65.1007,-65.6087C68.42,-58.2511 73.2442,-47.5575 77.6097,-37.8809"/>
<polygon fill="#00ff00" stroke="#00ff00" stroke-width="2.1416" points="80.8276,-39.2591 81.7495,-28.7044 74.4468,-36.3805 80.8276,-39.2591"/>
</g>
<!-- dtheta -->
<g id="node4" class="node">
<title>dtheta</title>
<polygon fill="#d3d3d3" stroke="#000000" points="134,-83.6985 96,-83.6985 96,-65.6985 134,-65.6985 134,-83.6985"/>
<text text-anchor="middle" x="115" y="-72.4985" font-family="Times,serif" font-size="9.00" fill="#000000">dtheta</text>
</g>
<!-- dtheta&#45;&gt;1 -->
<g id="edge2" class="edge">
<title>dtheta&#45;&gt;1</title>
<path fill="none" stroke="#00ff00" stroke-width=".3253" d="M110.8993,-65.6087C107.58,-58.2511 102.7558,-47.5575 98.3903,-37.8809"/>
<polygon fill="#00ff00" stroke="#00ff00" stroke-width=".3253" points="101.5532,-36.3805 94.2505,-28.7044 95.1724,-39.2591 101.5532,-36.3805"/>
</g>
</g>
</svg>
