<?xml version="1.0" encoding="UTF-8" standalone="no"?>
<!DOCTYPE svg PUBLIC "-//W3C//DTD SVG 1.1//EN"
 "http://www.w3.org/Graphics/SVG/1.1/DTD/svg11.dtd">
<!-- Generated by graphviz version 2.40.1 (20161225.0304)
 -->
<!-- Title: %3 Pages: 1 -->
<svg width="185pt" height="92pt"
 viewBox="0.00 0.00 185.00 91.70" xmlns="http://www.w3.org/2000/svg" xmlns:xlink="http://www.w3.org/1999/xlink">
<g id="graph0" class="graph" transform="scale(1 1) rotate(0) translate(4 87.6985)">
<title>%3</title>
<polygon fill="#ffffff" stroke="transparent" points="-4,4 -4,-87.6985 181,-87.6985 181,4 -4,4"/>
<!-- dx -->
<g id="node1" class="node">
<title>dx</title>
<polygon fill="#d3d3d3" stroke="#000000" points="133.5,-83.6985 107.5,-83.6985 107.5,-65.6985 133.5,-65.6985 133.5,-83.6985"/>
<text text-anchor="middle" x="120.5" y="-72.4985" font-family="Times,serif" font-size="9.00" fill="#000000">dx</text>
</g>
<!-- 0 -->
<g id="node5" class="node">
<title>0</title>
<ellipse fill="#add8e6" stroke="#000000" cx="93.5" cy="-14.8492" rx="14.7" ry="14.7"/>
<text text-anchor="middle" x="93.5" y="-12.6492" font-family="Times,serif" font-size="9.00" fill="#000000">0</text>
</g>
<!-- dx&#45;&gt;0 -->
<g id="edge5" class="edge">
<title>dx&#45;&gt;0</title>
<path fill="none" stroke="#ff0000" stroke-width=".4939" d="M116.3993,-65.6087C113.08,-58.2511 108.2558,-47.5575 103.8903,-37.8809"/>
<polygon fill="#ff0000" stroke="#ff0000" stroke-width=".4939" points="107.0532,-36.3805 99.7505,-28.7044 100.6724,-39.2591 107.0532,-36.3805"/>
</g>
<!-- 1 -->
<g id="node6" class="node">
<title>1</title>
<ellipse fill="#add8e6" stroke="#000000" cx="142.5" cy="-14.8492" rx="14.7" ry="14.7"/>
<text text-anchor="middle" x="142.5" y="-12.6492" font-family="Times,serif" font-size="9.00" fill="#000000">1</text>
</g>
<!-- dx&#45;&gt;1 -->
<g id="edge6" class="edge">
<title>dx&#45;&gt;1</title>
<path fill="none" stroke="#00ff00" stroke-width=".1354" d="M123.8413,-65.6087C126.4821,-58.4248 130.2918,-48.0606 133.7812,-38.5679"/>
<polygon fill="#00ff00" stroke="#00ff00" stroke-width=".1354" points="137.074,-39.7544 137.2392,-29.1609 130.5039,-37.3392 137.074,-39.7544"/>
</g>
<!-- dz -->
<g id="node2" class="node">
<title>dz</title>
<polygon fill="#d3d3d3" stroke="#000000" points="177,-83.6985 152,-83.6985 152,-65.6985 177,-65.6985 177,-83.6985"/>
<text text-anchor="middle" x="164.5" y="-72.4985" font-family="Times,serif" font-size="9.00" fill="#000000">dz</text>
</g>
<!-- dz&#45;&gt;0 -->
<g id="edge2" class="edge">
<title>dz&#45;&gt;0</title>
<path fill="none" stroke="#ff0000" stroke-width=".3072" d="M153.7166,-65.6087C142.897,-56.4883 125.9964,-42.242 112.8506,-31.1607"/>
<polygon fill="#ff0000" stroke="#ff0000" stroke-width=".3072" points="114.7575,-28.1906 104.8557,-24.4215 110.2459,-33.5427 114.7575,-28.1906"/>
</g>
<!-- dz&#45;&gt;1 -->
<g id="edge3" class="edge">
<title>dz&#45;&gt;1</title>
<path fill="none" stroke="#ff0000" stroke-width=".36" d="M161.1587,-65.6087C158.5179,-58.4248 154.7082,-48.0606 151.2188,-38.5679"/>
<polygon fill="#ff0000" stroke="#ff0000" stroke-width=".36" points="154.4961,-37.3392 147.7608,-29.1609 147.926,-39.7544 154.4961,-37.3392"/>
</g>
<!-- theta -->
<g id="node3" class="node">
<title>theta</title>
<polygon fill="#d3d3d3" stroke="#000000" points="33,-83.6985 0,-83.6985 0,-65.6985 33,-65.6985 33,-83.6985"/>
<text text-anchor="middle" x="16.5" y="-72.4985" font-family="Times,serif" font-size="9.00" fill="#000000">theta</text>
</g>
<!-- theta&#45;&gt;0 -->
<g id="edge4" class="edge">
<title>theta&#45;&gt;0</title>
<path fill="none" stroke="#ff0000" stroke-width=".4008" d="M28.1946,-65.6087C40.1797,-56.2931 59.0449,-41.6299 73.4238,-30.4537"/>
<polygon fill="#ff0000" stroke="#ff0000" stroke-width=".4008" points="75.9477,-32.9249 81.6953,-24.0246 71.6519,-27.3981 75.9477,-32.9249"/>
</g>
<!-- dtheta -->
<g id="node4" class="node">
<title>dtheta</title>
<polygon fill="#d3d3d3" stroke="#000000" points="89.5,-83.6985 51.5,-83.6985 51.5,-65.6985 89.5,-65.6985 89.5,-83.6985"/>
<text text-anchor="middle" x="70.5" y="-72.4985" font-family="Times,serif" font-size="9.00" fill="#000000">dtheta</text>
</g>
<!-- dtheta&#45;&gt;0 -->
<g id="edge1" class="edge">
<title>dtheta&#45;&gt;0</title>
<path fill="none" stroke="#ff0000" stroke-width=".8576" d="M73.9932,-65.6087C76.754,-58.4248 80.7369,-48.0606 84.3849,-38.5679"/>
<polygon fill="#ff0000" stroke="#ff0000" stroke-width=".8576" points="87.6798,-39.7509 88.0001,-29.1609 81.1457,-37.2398 87.6798,-39.7509"/>
</g>
</g>
</svg>
