<?xml version="1.0" encoding="UTF-8" standalone="no"?>
<!DOCTYPE svg PUBLIC "-//W3C//DTD SVG 1.1//EN"
 "http://www.w3.org/Graphics/SVG/1.1/DTD/svg11.dtd">
<!-- Generated by graphviz version 2.40.1 (20161225.0304)
 -->
<!-- Title: %3 Pages: 1 -->
<svg width="185pt" height="92pt"
 viewBox="0.00 0.00 184.50 91.70" xmlns="http://www.w3.org/2000/svg" xmlns:xlink="http://www.w3.org/1999/xlink">
<g id="graph0" class="graph" transform="scale(1 1) rotate(0) translate(4 87.6985)">
<title>%3</title>
<polygon fill="#ffffff" stroke="transparent" points="-4,4 -4,-87.6985 180.5,-87.6985 180.5,4 -4,4"/>
<!-- dx -->
<g id="node1" class="node">
<title>dx</title>
<polygon fill="#d3d3d3" stroke="#000000" points="26,-83.6985 0,-83.6985 0,-65.6985 26,-65.6985 26,-83.6985"/>
<text text-anchor="middle" x="13" y="-72.4985" font-family="Times,serif" font-size="9.00" fill="#000000">dx</text>
</g>
<!-- 1 -->
<g id="node6" class="node">
<title>1</title>
<ellipse fill="#add8e6" stroke="#000000" cx="87" cy="-14.8492" rx="14.7" ry="14.7"/>
<text text-anchor="middle" x="87" y="-12.6492" font-family="Times,serif" font-size="9.00" fill="#000000">1</text>
</g>
<!-- dx&#45;&gt;1 -->
<g id="edge6" class="edge">
<title>dx&#45;&gt;1</title>
<path fill="none" stroke="#00ff00" stroke-width=".7374" d="M24.239,-65.6087C35.6232,-56.4014 53.4666,-41.9702 67.2222,-30.845"/>
<polygon fill="#00ff00" stroke="#00ff00" stroke-width=".7374" points="69.5901,-33.4314 75.1645,-24.4215 65.1882,-27.9886 69.5901,-33.4314"/>
</g>
<!-- dz -->
<g id="node2" class="node">
<title>dz</title>
<polygon fill="#d3d3d3" stroke="#000000" points="125.5,-83.6985 100.5,-83.6985 100.5,-65.6985 125.5,-65.6985 125.5,-83.6985"/>
<text text-anchor="middle" x="113" y="-72.4985" font-family="Times,serif" font-size="9.00" fill="#000000">dz</text>
</g>
<!-- 0 -->
<g id="node5" class="node">
<title>0</title>
<ellipse fill="#add8e6" stroke="#000000" cx="136" cy="-14.8492" rx="14.7" ry="14.7"/>
<text text-anchor="middle" x="136" y="-12.6492" font-family="Times,serif" font-size="9.00" fill="#000000">0</text>
</g>
<!-- dz&#45;&gt;0 -->
<g id="edge4" class="edge">
<title>dz&#45;&gt;0</title>
<path fill="none" stroke="#ff0000" stroke-width="1.8543" d="M116.4932,-65.6087C119.254,-58.4248 123.2369,-48.0606 126.8849,-38.5679"/>
<polygon fill="#ff0000" stroke="#ff0000" stroke-width="1.8543" points="130.1798,-39.7509 130.5001,-29.1609 123.6457,-37.2398 130.1798,-39.7509"/>
</g>
<!-- dz&#45;&gt;1 -->
<g id="edge5" class="edge">
<title>dz&#45;&gt;1</title>
<path fill="none" stroke="#ff0000" stroke-width=".8482" d="M109.0512,-65.6087C105.8548,-58.2511 101.2093,-47.5575 97.0055,-37.8809"/>
<polygon fill="#ff0000" stroke="#ff0000" stroke-width=".8482" points="100.2138,-36.4817 93.019,-28.7044 93.7934,-39.2709 100.2138,-36.4817"/>
</g>
<!-- theta -->
<g id="node3" class="node">
<title>theta</title>
<polygon fill="#d3d3d3" stroke="#000000" points="176.5,-83.6985 143.5,-83.6985 143.5,-65.6985 176.5,-65.6985 176.5,-83.6985"/>
<text text-anchor="middle" x="160" y="-72.4985" font-family="Times,serif" font-size="9.00" fill="#000000">theta</text>
</g>
<!-- theta&#45;&gt;0 -->
<g id="edge2" class="edge">
<title>theta&#45;&gt;0</title>
<path fill="none" stroke="#ff0000" stroke-width=".6509" d="M156.3549,-65.6087C153.4352,-58.3277 149.2054,-47.7799 145.3572,-38.1836"/>
<polygon fill="#ff0000" stroke="#ff0000" stroke-width=".6509" points="148.5266,-36.6832 141.556,-28.7044 142.0295,-39.2887 148.5266,-36.6832"/>
</g>
<!-- theta&#45;&gt;1 -->
<g id="edge1" class="edge">
<title>theta&#45;&gt;1</title>
<path fill="none" stroke="#00ff00" stroke-width="1.5188" d="M148.9129,-65.6087C137.6825,-56.4014 120.0803,-41.9702 106.5105,-30.845"/>
<polygon fill="#00ff00" stroke="#00ff00" stroke-width="1.5188" points="108.6279,-28.055 98.6756,-24.4215 104.1898,-33.4683 108.6279,-28.055"/>
</g>
<!-- dtheta -->
<g id="node4" class="node">
<title>dtheta</title>
<polygon fill="#d3d3d3" stroke="#000000" points="82,-83.6985 44,-83.6985 44,-65.6985 82,-65.6985 82,-83.6985"/>
<text text-anchor="middle" x="63" y="-72.4985" font-family="Times,serif" font-size="9.00" fill="#000000">dtheta</text>
</g>
<!-- dtheta&#45;&gt;1 -->
<g id="edge3" class="edge">
<title>dtheta&#45;&gt;1</title>
<path fill="none" stroke="#00ff00" stroke-width=".1908" d="M66.6451,-65.6087C69.5648,-58.3277 73.7946,-47.7799 77.6428,-38.1836"/>
<polygon fill="#00ff00" stroke="#00ff00" stroke-width=".1908" points="80.9705,-39.2887 81.444,-28.7044 74.4734,-36.6832 80.9705,-39.2887"/>
</g>
</g>
</svg>
