<?xml version="1.0" encoding="utf-8" standalone="no"?>
<!DOCTYPE svg PUBLIC "-//W3C//DTD SVG 1.1//EN"
  "http://www.w3.org/Graphics/SVG/1.1/DTD/svg11.dtd">
<!-- Created with matplotlib (https://matplotlib.org/) -->
<svg height="345.6pt" version="1.1" viewBox="0 0 460.8 345.6" width="460.8pt" xmlns="http://www.w3.org/2000/svg" xmlns:xlink="http://www.w3.org/1999/xlink">
 <defs>
  <style type="text/css">
*{stroke-linecap:butt;stroke-linejoin:round;}
  </style>
 </defs>
 <g id="figure_1">
  <g id="patch_1">
   <path d="M 0 345.6 
L 460.8 345.6 
L 460.8 0 
L 0 0 
z
" style="fill:#ffffff;"/>
  </g>
  <g id="axes_1">
   <g id="patch_2">
    <path d="M 57.6 307.584 
L 414.72 307.584 
L 414.72 41.472 
L 57.6 41.472 
z
" style="fill:#ffffff;"/>
   </g>
   <g id="PolyCollection_1">
    <path clip-path="url(#p817dc66931)" d="M 73.832727 182.875429 
L 73.832727 307.584 
L 77.697662 307.584 
L 81.562597 307.584 
L 85.427532 307.584 
L 89.292468 307.584 
L 93.157403 307.584 
L 97.022338 307.584 
L 100.887273 307.584 
L 104.752208 307.584 
L 108.617143 307.584 
L 112.482078 307.584 
L 116.347013 307.584 
L 120.211948 307.584 
L 124.076883 307.584 
L 127.941818 307.584 
L 131.806753 307.584 
L 135.671688 307.584 
L 139.536623 307.584 
L 143.401558 307.584 
L 147.266494 307.584 
L 151.131429 307.584 
L 154.996364 307.584 
L 158.861299 307.584 
L 162.726234 307.584 
L 166.591169 307.584 
L 170.456104 307.584 
L 174.321039 307.584 
L 178.185974 307.584 
L 182.050909 307.584 
L 185.915844 307.584 
L 189.780779 307.584 
L 193.645714 307.584 
L 197.510649 307.584 
L 201.375584 307.584 
L 205.240519 307.584 
L 209.105455 307.584 
L 212.97039 307.584 
L 216.835325 307.584 
L 220.70026 307.584 
L 224.565195 307.584 
L 228.43013 307.584 
L 232.295065 307.584 
L 236.16 307.584 
L 240.024935 307.584 
L 243.88987 307.584 
L 247.754805 307.584 
L 251.61974 307.584 
L 255.484675 307.584 
L 259.34961 307.584 
L 263.214545 307.584 
L 267.079481 307.584 
L 270.944416 307.584 
L 274.809351 307.584 
L 278.674286 307.584 
L 282.539221 307.584 
L 286.404156 307.584 
L 290.269091 307.584 
L 294.134026 307.584 
L 297.998961 307.584 
L 301.863896 307.584 
L 305.728831 307.584 
L 309.593766 307.584 
L 313.458701 307.584 
L 317.323636 307.584 
L 321.188571 307.584 
L 325.053506 307.584 
L 328.918442 307.584 
L 332.783377 307.584 
L 336.648312 307.584 
L 340.513247 307.584 
L 344.378182 307.584 
L 348.243117 307.584 
L 352.108052 307.584 
L 355.972987 307.584 
L 359.837922 307.584 
L 363.702857 307.584 
L 367.567792 307.584 
L 371.432727 307.584 
L 375.297662 307.584 
L 379.162597 307.584 
L 383.027532 307.584 
L 386.892468 307.584 
L 390.757403 307.584 
L 394.622338 307.584 
L 398.487273 307.584 
L 398.487273 307.584 
L 398.487273 307.584 
L 394.622338 307.584 
L 390.757403 307.584 
L 386.892468 307.584 
L 383.027532 307.584 
L 379.162597 307.584 
L 375.297662 307.584 
L 371.432727 307.584 
L 367.567792 307.584 
L 363.702857 307.584 
L 359.837922 307.584 
L 355.972987 307.584 
L 352.108052 307.584 
L 348.243117 307.584 
L 344.378182 307.584 
L 340.513247 307.584 
L 336.648312 307.584 
L 332.783377 307.584 
L 328.918442 307.584 
L 325.053506 307.584 
L 321.188571 307.584 
L 317.323636 307.584 
L 313.458701 307.584 
L 309.593766 307.584 
L 305.728831 307.584 
L 301.863896 307.584 
L 297.998961 307.584 
L 294.134026 307.584 
L 290.269091 307.584 
L 286.404156 307.584 
L 282.539221 307.584 
L 278.674286 307.584 
L 274.809351 307.584 
L 270.944416 307.584 
L 267.079481 307.584 
L 263.214545 307.584 
L 259.34961 307.584 
L 255.484675 307.584 
L 251.61974 307.584 
L 247.754805 307.584 
L 243.88987 307.584 
L 240.024935 307.584 
L 236.16 307.584 
L 232.295065 283.446857 
L 228.43013 282.441143 
L 224.565195 279.424 
L 220.70026 276.406857 
L 216.835325 277.412571 
L 212.97039 273.389714 
L 209.105455 270.372571 
L 205.240519 269.366857 
L 201.375584 270.372571 
L 197.510649 264.338286 
L 193.645714 267.355429 
L 189.780779 263.332571 
L 185.915844 262.326857 
L 182.050909 263.332571 
L 178.185974 264.338286 
L 174.321039 266.349714 
L 170.456104 271.378286 
L 166.591169 266.349714 
L 162.726234 266.349714 
L 158.861299 262.326857 
L 154.996364 264.338286 
L 151.131429 269.366857 
L 147.266494 266.349714 
L 143.401558 265.344 
L 139.536623 265.344 
L 135.671688 267.355429 
L 131.806753 263.332571 
L 127.941818 265.344 
L 124.076883 264.338286 
L 120.211948 259.309714 
L 116.347013 264.338286 
L 112.482078 271.378286 
L 108.617143 286.464 
L 104.752208 269.366857 
L 100.887273 257.298286 
L 97.022338 278.418286 
L 93.157403 261.321143 
L 89.292468 267.355429 
L 85.427532 270.372571 
L 81.562597 275.401143 
L 77.697662 249.252571 
L 73.832727 182.875429 
z
" style="fill:#1f77b4;"/>
   </g>
   <g id="PolyCollection_2">
    <path clip-path="url(#p817dc66931)" d="M 73.832727 149.686857 
L 73.832727 182.875429 
L 77.697662 249.252571 
L 81.562597 275.401143 
L 85.427532 270.372571 
L 89.292468 267.355429 
L 93.157403 261.321143 
L 97.022338 278.418286 
L 100.887273 257.298286 
L 104.752208 269.366857 
L 108.617143 286.464 
L 112.482078 271.378286 
L 116.347013 264.338286 
L 120.211948 259.309714 
L 124.076883 264.338286 
L 127.941818 265.344 
L 131.806753 263.332571 
L 135.671688 267.355429 
L 139.536623 265.344 
L 143.401558 265.344 
L 147.266494 266.349714 
L 151.131429 269.366857 
L 154.996364 264.338286 
L 158.861299 262.326857 
L 162.726234 266.349714 
L 166.591169 266.349714 
L 170.456104 271.378286 
L 174.321039 266.349714 
L 178.185974 264.338286 
L 182.050909 263.332571 
L 185.915844 262.326857 
L 189.780779 263.332571 
L 193.645714 267.355429 
L 197.510649 264.338286 
L 201.375584 270.372571 
L 205.240519 269.366857 
L 209.105455 270.372571 
L 212.97039 273.389714 
L 216.835325 277.412571 
L 220.70026 276.406857 
L 224.565195 279.424 
L 228.43013 282.441143 
L 232.295065 283.446857 
L 236.16 307.584 
L 240.024935 307.584 
L 243.88987 307.584 
L 247.754805 307.584 
L 251.61974 307.584 
L 255.484675 307.584 
L 259.34961 307.584 
L 263.214545 307.584 
L 267.079481 307.584 
L 270.944416 307.584 
L 274.809351 307.584 
L 278.674286 307.584 
L 282.539221 307.584 
L 286.404156 307.584 
L 290.269091 307.584 
L 294.134026 307.584 
L 297.998961 307.584 
L 301.863896 307.584 
L 305.728831 307.584 
L 309.593766 307.584 
L 313.458701 307.584 
L 317.323636 307.584 
L 321.188571 307.584 
L 325.053506 307.584 
L 328.918442 307.584 
L 332.783377 307.584 
L 336.648312 307.584 
L 340.513247 307.584 
L 344.378182 307.584 
L 348.243117 307.584 
L 352.108052 307.584 
L 355.972987 307.584 
L 359.837922 307.584 
L 363.702857 307.584 
L 367.567792 307.584 
L 371.432727 307.584 
L 375.297662 307.584 
L 379.162597 307.584 
L 383.027532 307.584 
L 386.892468 307.584 
L 390.757403 307.584 
L 394.622338 307.584 
L 398.487273 307.584 
L 398.487273 258.304 
L 398.487273 258.304 
L 394.622338 262.326857 
L 390.757403 264.338286 
L 386.892468 278.418286 
L 383.027532 269.366857 
L 379.162597 270.372571 
L 375.297662 261.321143 
L 371.432727 266.349714 
L 367.567792 268.361143 
L 363.702857 276.406857 
L 359.837922 280.429714 
L 355.972987 273.389714 
L 352.108052 279.424 
L 348.243117 277.412571 
L 344.378182 288.475429 
L 340.513247 281.435429 
L 336.648312 276.406857 
L 332.783377 269.366857 
L 328.918442 273.389714 
L 325.053506 270.372571 
L 321.188571 258.304 
L 317.323636 254.281143 
L 313.458701 272.384 
L 309.593766 248.246857 
L 305.728831 280.429714 
L 301.863896 273.389714 
L 297.998961 285.458286 
L 294.134026 272.384 
L 290.269091 257.298286 
L 286.404156 270.372571 
L 282.539221 268.361143 
L 278.674286 272.384 
L 274.809351 270.372571 
L 270.944416 278.418286 
L 267.079481 256.292571 
L 263.214545 262.326857 
L 259.34961 247.241143 
L 255.484675 264.338286 
L 251.61974 281.435429 
L 247.754805 279.424 
L 243.88987 260.315429 
L 240.024935 285.458286 
L 236.16 266.349714 
L 232.295065 232.155429 
L 228.43013 249.252571 
L 224.565195 243.218286 
L 220.70026 259.309714 
L 216.835325 247.241143 
L 212.97039 247.241143 
L 209.105455 207.012571 
L 205.240519 239.195429 
L 201.375584 227.126857 
L 197.510649 195.949714 
L 193.645714 162.761143 
L 189.780779 185.892571 
L 185.915844 187.904 
L 182.050909 170.806857 
L 178.185974 193.938286 
L 174.321039 167.789714 
L 170.456104 205.001143 
L 166.591169 179.858286 
L 162.726234 202.989714 
L 158.861299 192.932571 
L 154.996364 195.949714 
L 151.131429 189.915429 
L 147.266494 192.932571 
L 143.401558 192.932571 
L 139.536623 190.921143 
L 135.671688 189.915429 
L 131.806753 187.904 
L 127.941818 193.938286 
L 124.076883 177.846857 
L 120.211948 170.806857 
L 116.347013 206.006857 
L 112.482078 220.086857 
L 108.617143 206.006857 
L 104.752208 216.064 
L 100.887273 174.829714 
L 97.022338 167.789714 
L 93.157403 161.755429 
L 89.292468 174.829714 
L 85.427532 195.949714 
L 81.562597 168.795429 
L 77.697662 170.806857 
L 73.832727 149.686857 
z
" style="fill:#ff7f0e;"/>
   </g>
   <g id="PolyCollection_3">
    <path clip-path="url(#p817dc66931)" d="M 73.832727 89.344 
L 73.832727 149.686857 
L 77.697662 170.806857 
L 81.562597 168.795429 
L 85.427532 195.949714 
L 89.292468 174.829714 
L 93.157403 161.755429 
L 97.022338 167.789714 
L 100.887273 174.829714 
L 104.752208 216.064 
L 108.617143 206.006857 
L 112.482078 220.086857 
L 116.347013 206.006857 
L 120.211948 170.806857 
L 124.076883 177.846857 
L 127.941818 193.938286 
L 131.806753 187.904 
L 135.671688 189.915429 
L 139.536623 190.921143 
L 143.401558 192.932571 
L 147.266494 192.932571 
L 151.131429 189.915429 
L 154.996364 195.949714 
L 158.861299 192.932571 
L 162.726234 202.989714 
L 166.591169 179.858286 
L 170.456104 205.001143 
L 174.321039 167.789714 
L 178.185974 193.938286 
L 182.050909 170.806857 
L 185.915844 187.904 
L 189.780779 185.892571 
L 193.645714 162.761143 
L 197.510649 195.949714 
L 201.375584 227.126857 
L 205.240519 239.195429 
L 209.105455 207.012571 
L 212.97039 247.241143 
L 216.835325 247.241143 
L 220.70026 259.309714 
L 224.565195 243.218286 
L 228.43013 249.252571 
L 232.295065 232.155429 
L 236.16 266.349714 
L 240.024935 285.458286 
L 243.88987 260.315429 
L 247.754805 279.424 
L 251.61974 281.435429 
L 255.484675 264.338286 
L 259.34961 247.241143 
L 263.214545 262.326857 
L 267.079481 256.292571 
L 270.944416 278.418286 
L 274.809351 270.372571 
L 278.674286 272.384 
L 282.539221 268.361143 
L 286.404156 270.372571 
L 290.269091 257.298286 
L 294.134026 272.384 
L 297.998961 285.458286 
L 301.863896 273.389714 
L 305.728831 280.429714 
L 309.593766 248.246857 
L 313.458701 272.384 
L 317.323636 254.281143 
L 321.188571 258.304 
L 325.053506 270.372571 
L 328.918442 273.389714 
L 332.783377 269.366857 
L 336.648312 276.406857 
L 340.513247 281.435429 
L 344.378182 288.475429 
L 348.243117 277.412571 
L 352.108052 279.424 
L 355.972987 273.389714 
L 359.837922 280.429714 
L 363.702857 276.406857 
L 367.567792 268.361143 
L 371.432727 266.349714 
L 375.297662 261.321143 
L 379.162597 270.372571 
L 383.027532 269.366857 
L 386.892468 278.418286 
L 390.757403 264.338286 
L 394.622338 262.326857 
L 398.487273 258.304 
L 398.487273 217.069714 
L 398.487273 217.069714 
L 394.622338 213.046857 
L 390.757403 234.166857 
L 386.892468 237.184 
L 383.027532 235.172571 
L 379.162597 249.252571 
L 375.297662 236.178286 
L 371.432727 244.224 
L 367.567792 237.184 
L 363.702857 237.184 
L 359.837922 248.246857 
L 355.972987 245.229714 
L 352.108052 254.281143 
L 348.243117 266.349714 
L 344.378182 256.292571 
L 340.513247 251.264 
L 336.648312 270.372571 
L 332.783377 250.258286 
L 328.918442 246.235429 
L 325.053506 241.206857 
L 321.188571 237.184 
L 317.323636 230.144 
L 313.458701 243.218286 
L 309.593766 235.172571 
L 305.728831 252.269714 
L 301.863896 244.224 
L 297.998961 235.172571 
L 294.134026 225.115429 
L 290.269091 224.109714 
L 286.404156 223.104 
L 282.539221 236.178286 
L 278.674286 234.166857 
L 274.809351 233.161143 
L 270.944416 249.252571 
L 267.079481 242.212571 
L 263.214545 227.126857 
L 259.34961 217.069714 
L 255.484675 239.195429 
L 251.61974 245.229714 
L 247.754805 249.252571 
L 243.88987 223.104 
L 240.024935 247.241143 
L 236.16 236.178286 
L 232.295065 215.058286 
L 228.43013 210.029714 
L 224.565195 214.052571 
L 220.70026 246.235429 
L 216.835325 240.201143 
L 212.97039 238.189714 
L 209.105455 176.841143 
L 205.240519 212.041143 
L 201.375584 205.001143 
L 197.510649 163.766857 
L 193.645714 128.566857 
L 189.780779 140.635429 
L 185.915844 137.618286 
L 182.050909 128.566857 
L 178.185974 158.738286 
L 174.321039 134.601143 
L 170.456104 163.766857 
L 166.591169 145.664 
L 162.726234 160.749714 
L 158.861299 147.675429 
L 154.996364 149.686857 
L 151.131429 144.658286 
L 147.266494 145.664 
L 143.401558 146.669714 
L 139.536623 143.652571 
L 135.671688 144.658286 
L 131.806753 142.646857 
L 127.941818 152.704 
L 124.076883 146.669714 
L 120.211948 124.544 
L 116.347013 148.681143 
L 112.482078 165.778286 
L 108.617143 154.715429 
L 104.752208 177.846857 
L 100.887273 145.664 
L 97.022338 131.584 
L 93.157403 121.526857 
L 89.292468 156.726857 
L 85.427532 167.789714 
L 81.562597 145.664 
L 77.697662 164.772571 
L 73.832727 89.344 
z
" style="fill:#2ca02c;"/>
   </g>
   <g id="PolyCollection_4">
    <path clip-path="url(#p817dc66931)" d="M 73.832727 58.166857 
L 73.832727 89.344 
L 77.697662 164.772571 
L 81.562597 145.664 
L 85.427532 167.789714 
L 89.292468 156.726857 
L 93.157403 121.526857 
L 97.022338 131.584 
L 100.887273 145.664 
L 104.752208 177.846857 
L 108.617143 154.715429 
L 112.482078 165.778286 
L 116.347013 148.681143 
L 120.211948 124.544 
L 124.076883 146.669714 
L 127.941818 152.704 
L 131.806753 142.646857 
L 135.671688 144.658286 
L 139.536623 143.652571 
L 143.401558 146.669714 
L 147.266494 145.664 
L 151.131429 144.658286 
L 154.996364 149.686857 
L 158.861299 147.675429 
L 162.726234 160.749714 
L 166.591169 145.664 
L 170.456104 163.766857 
L 174.321039 134.601143 
L 178.185974 158.738286 
L 182.050909 128.566857 
L 185.915844 137.618286 
L 189.780779 140.635429 
L 193.645714 128.566857 
L 197.510649 163.766857 
L 201.375584 205.001143 
L 205.240519 212.041143 
L 209.105455 176.841143 
L 212.97039 238.189714 
L 216.835325 240.201143 
L 220.70026 246.235429 
L 224.565195 214.052571 
L 228.43013 210.029714 
L 232.295065 215.058286 
L 236.16 236.178286 
L 240.024935 247.241143 
L 243.88987 223.104 
L 247.754805 249.252571 
L 251.61974 245.229714 
L 255.484675 239.195429 
L 259.34961 217.069714 
L 263.214545 227.126857 
L 267.079481 242.212571 
L 270.944416 249.252571 
L 274.809351 233.161143 
L 278.674286 234.166857 
L 282.539221 236.178286 
L 286.404156 223.104 
L 290.269091 224.109714 
L 294.134026 225.115429 
L 297.998961 235.172571 
L 301.863896 244.224 
L 305.728831 252.269714 
L 309.593766 235.172571 
L 313.458701 243.218286 
L 317.323636 230.144 
L 321.188571 237.184 
L 325.053506 241.206857 
L 328.918442 246.235429 
L 332.783377 250.258286 
L 336.648312 270.372571 
L 340.513247 251.264 
L 344.378182 256.292571 
L 348.243117 266.349714 
L 352.108052 254.281143 
L 355.972987 245.229714 
L 359.837922 248.246857 
L 363.702857 237.184 
L 367.567792 237.184 
L 371.432727 244.224 
L 375.297662 236.178286 
L 379.162597 249.252571 
L 383.027532 235.172571 
L 386.892468 237.184 
L 390.757403 234.166857 
L 394.622338 213.046857 
L 398.487273 217.069714 
L 398.487273 217.069714 
L 398.487273 217.069714 
L 394.622338 213.046857 
L 390.757403 234.166857 
L 386.892468 237.184 
L 383.027532 235.172571 
L 379.162597 249.252571 
L 375.297662 236.178286 
L 371.432727 244.224 
L 367.567792 237.184 
L 363.702857 237.184 
L 359.837922 248.246857 
L 355.972987 225.115429 
L 352.108052 232.155429 
L 348.243117 246.235429 
L 344.378182 239.195429 
L 340.513247 232.155429 
L 336.648312 249.252571 
L 332.783377 235.172571 
L 328.918442 224.109714 
L 325.053506 214.052571 
L 321.188571 214.052571 
L 317.323636 205.001143 
L 313.458701 216.064 
L 309.593766 199.972571 
L 305.728831 227.126857 
L 301.863896 215.058286 
L 297.998961 201.984 
L 294.134026 195.949714 
L 290.269091 211.035429 
L 286.404156 205.001143 
L 282.539221 222.098286 
L 278.674286 213.046857 
L 274.809351 202.989714 
L 270.944416 216.064 
L 267.079481 217.069714 
L 263.214545 193.938286 
L 259.34961 187.904 
L 255.484675 219.081143 
L 251.61974 212.041143 
L 247.754805 215.058286 
L 243.88987 207.012571 
L 240.024935 214.052571 
L 236.16 212.041143 
L 232.295065 189.915429 
L 228.43013 184.886857 
L 224.565195 170.806857 
L 220.70026 189.915429 
L 216.835325 158.738286 
L 212.97039 168.795429 
L 209.105455 143.652571 
L 205.240519 155.721143 
L 201.375584 189.915429 
L 197.510649 107.446857 
L 193.645714 98.395429 
L 189.780779 102.418286 
L 185.915844 100.406857 
L 182.050909 91.355429 
L 178.185974 98.395429 
L 174.321039 91.355429 
L 170.456104 90.349714 
L 166.591169 90.349714 
L 162.726234 80.292571 
L 158.861299 93.366857 
L 154.996364 89.344 
L 151.131429 92.361143 
L 147.266494 97.389714 
L 143.401558 93.366857 
L 139.536623 96.384 
L 135.671688 95.378286 
L 131.806753 91.355429 
L 127.941818 91.355429 
L 124.076883 85.321143 
L 120.211948 80.292571 
L 116.347013 73.252571 
L 112.482078 82.304 
L 108.617143 79.286857 
L 104.752208 88.338286 
L 100.887273 96.384 
L 97.022338 96.384 
L 93.157403 88.338286 
L 89.292468 91.355429 
L 85.427532 101.412571 
L 81.562597 100.406857 
L 77.697662 83.309714 
L 73.832727 58.166857 
z
" style="fill:#d62728;"/>
   </g>
   <g id="PolyCollection_5">
    <path clip-path="url(#p817dc66931)" d="M 73.832727 56.155429 
L 73.832727 58.166857 
L 77.697662 83.309714 
L 81.562597 100.406857 
L 85.427532 101.412571 
L 89.292468 91.355429 
L 93.157403 88.338286 
L 97.022338 96.384 
L 100.887273 96.384 
L 104.752208 88.338286 
L 108.617143 79.286857 
L 112.482078 82.304 
L 116.347013 73.252571 
L 120.211948 80.292571 
L 124.076883 85.321143 
L 127.941818 91.355429 
L 131.806753 91.355429 
L 135.671688 95.378286 
L 139.536623 96.384 
L 143.401558 93.366857 
L 147.266494 97.389714 
L 151.131429 92.361143 
L 154.996364 89.344 
L 158.861299 93.366857 
L 162.726234 80.292571 
L 166.591169 90.349714 
L 170.456104 90.349714 
L 174.321039 91.355429 
L 178.185974 98.395429 
L 182.050909 91.355429 
L 185.915844 100.406857 
L 189.780779 102.418286 
L 193.645714 98.395429 
L 197.510649 107.446857 
L 201.375584 189.915429 
L 205.240519 155.721143 
L 209.105455 143.652571 
L 212.97039 168.795429 
L 216.835325 158.738286 
L 220.70026 189.915429 
L 224.565195 170.806857 
L 228.43013 184.886857 
L 232.295065 189.915429 
L 236.16 212.041143 
L 240.024935 214.052571 
L 243.88987 207.012571 
L 247.754805 215.058286 
L 251.61974 212.041143 
L 255.484675 219.081143 
L 259.34961 187.904 
L 263.214545 193.938286 
L 267.079481 217.069714 
L 270.944416 216.064 
L 274.809351 202.989714 
L 278.674286 213.046857 
L 282.539221 222.098286 
L 286.404156 205.001143 
L 290.269091 211.035429 
L 294.134026 195.949714 
L 297.998961 201.984 
L 301.863896 215.058286 
L 305.728831 227.126857 
L 309.593766 199.972571 
L 313.458701 216.064 
L 317.323636 205.001143 
L 321.188571 214.052571 
L 325.053506 214.052571 
L 328.918442 224.109714 
L 332.783377 235.172571 
L 336.648312 249.252571 
L 340.513247 232.155429 
L 344.378182 239.195429 
L 348.243117 246.235429 
L 352.108052 232.155429 
L 355.972987 225.115429 
L 359.837922 248.246857 
L 363.702857 237.184 
L 367.567792 237.184 
L 371.432727 244.224 
L 375.297662 236.178286 
L 379.162597 249.252571 
L 383.027532 235.172571 
L 386.892468 237.184 
L 390.757403 234.166857 
L 394.622338 213.046857 
L 398.487273 217.069714 
L 398.487273 217.069714 
L 398.487273 217.069714 
L 394.622338 213.046857 
L 390.757403 234.166857 
L 386.892468 237.184 
L 383.027532 235.172571 
L 379.162597 249.252571 
L 375.297662 236.178286 
L 371.432727 244.224 
L 367.567792 237.184 
L 363.702857 237.184 
L 359.837922 220.086857 
L 355.972987 196.955429 
L 352.108052 201.984 
L 348.243117 212.041143 
L 344.378182 208.018286 
L 340.513247 211.035429 
L 336.648312 223.104 
L 332.783377 209.024 
L 328.918442 192.932571 
L 325.053506 180.864 
L 321.188571 188.909714 
L 317.323636 179.858286 
L 313.458701 196.955429 
L 309.593766 178.852571 
L 305.728831 203.995429 
L 301.863896 194.944 
L 297.998961 174.829714 
L 294.134026 162.761143 
L 290.269091 180.864 
L 286.404156 157.732571 
L 282.539221 173.824 
L 278.674286 163.766857 
L 274.809351 164.772571 
L 270.944416 177.846857 
L 267.079481 159.744 
L 263.214545 168.795429 
L 259.34961 167.789714 
L 255.484675 194.944 
L 251.61974 177.846857 
L 247.754805 178.852571 
L 243.88987 174.829714 
L 240.024935 180.864 
L 236.16 175.835429 
L 232.295065 143.652571 
L 228.43013 140.635429 
L 224.565195 122.532571 
L 220.70026 139.629714 
L 216.835325 128.566857 
L 212.97039 133.595429 
L 209.105455 111.469714 
L 205.240519 121.526857 
L 201.375584 153.709714 
L 197.510649 70.235429 
L 193.645714 56.155429 
L 189.780779 55.149714 
L 185.915844 55.149714 
L 182.050909 55.149714 
L 178.185974 56.155429 
L 174.321039 55.149714 
L 170.456104 56.155429 
L 166.591169 57.161143 
L 162.726234 57.161143 
L 158.861299 57.161143 
L 154.996364 56.155429 
L 151.131429 56.155429 
L 147.266494 56.155429 
L 143.401558 56.155429 
L 139.536623 57.161143 
L 135.671688 57.161143 
L 131.806753 57.161143 
L 127.941818 57.161143 
L 124.076883 56.155429 
L 120.211948 56.155429 
L 116.347013 56.155429 
L 112.482078 56.155429 
L 108.617143 55.149714 
L 104.752208 55.149714 
L 100.887273 57.161143 
L 97.022338 56.155429 
L 93.157403 56.155429 
L 89.292468 56.155429 
L 85.427532 56.155429 
L 81.562597 56.155429 
L 77.697662 56.155429 
L 73.832727 56.155429 
z
" style="fill:#9467bd;"/>
   </g>
   <g id="PolyCollection_6">
    <path clip-path="url(#p817dc66931)" d="M 73.832727 56.155429 
L 73.832727 56.155429 
L 77.697662 56.155429 
L 81.562597 56.155429 
L 85.427532 56.155429 
L 89.292468 56.155429 
L 93.157403 56.155429 
L 97.022338 56.155429 
L 100.887273 57.161143 
L 104.752208 55.149714 
L 108.617143 55.149714 
L 112.482078 56.155429 
L 116.347013 56.155429 
L 120.211948 56.155429 
L 124.076883 56.155429 
L 127.941818 57.161143 
L 131.806753 57.161143 
L 135.671688 57.161143 
L 139.536623 57.161143 
L 143.401558 56.155429 
L 147.266494 56.155429 
L 151.131429 56.155429 
L 154.996364 56.155429 
L 158.861299 57.161143 
L 162.726234 57.161143 
L 166.591169 57.161143 
L 170.456104 56.155429 
L 174.321039 55.149714 
L 178.185974 56.155429 
L 182.050909 55.149714 
L 185.915844 55.149714 
L 189.780779 55.149714 
L 193.645714 56.155429 
L 197.510649 70.235429 
L 201.375584 153.709714 
L 205.240519 121.526857 
L 209.105455 111.469714 
L 212.97039 133.595429 
L 216.835325 128.566857 
L 220.70026 139.629714 
L 224.565195 122.532571 
L 228.43013 140.635429 
L 232.295065 143.652571 
L 236.16 175.835429 
L 240.024935 180.864 
L 243.88987 174.829714 
L 247.754805 178.852571 
L 251.61974 177.846857 
L 255.484675 194.944 
L 259.34961 167.789714 
L 263.214545 168.795429 
L 267.079481 159.744 
L 270.944416 177.846857 
L 274.809351 164.772571 
L 278.674286 163.766857 
L 282.539221 173.824 
L 286.404156 157.732571 
L 290.269091 180.864 
L 294.134026 162.761143 
L 297.998961 174.829714 
L 301.863896 194.944 
L 305.728831 203.995429 
L 309.593766 178.852571 
L 313.458701 196.955429 
L 317.323636 179.858286 
L 321.188571 188.909714 
L 325.053506 180.864 
L 328.918442 192.932571 
L 332.783377 209.024 
L 336.648312 223.104 
L 340.513247 211.035429 
L 344.378182 208.018286 
L 348.243117 212.041143 
L 352.108052 201.984 
L 355.972987 196.955429 
L 359.837922 220.086857 
L 363.702857 237.184 
L 367.567792 237.184 
L 371.432727 244.224 
L 375.297662 236.178286 
L 379.162597 249.252571 
L 383.027532 235.172571 
L 386.892468 237.184 
L 390.757403 234.166857 
L 394.622338 213.046857 
L 398.487273 217.069714 
L 398.487273 217.069714 
L 398.487273 217.069714 
L 394.622338 213.046857 
L 390.757403 193.938286 
L 386.892468 216.064 
L 383.027532 218.075429 
L 379.162597 222.098286 
L 375.297662 197.961143 
L 371.432727 187.904 
L 367.567792 199.972571 
L 363.702857 191.926857 
L 359.837922 188.909714 
L 355.972987 151.698286 
L 352.108052 161.755429 
L 348.243117 174.829714 
L 344.378182 172.818286 
L 340.513247 183.881143 
L 336.648312 193.938286 
L 332.783377 186.898286 
L 328.918442 168.795429 
L 325.053506 163.766857 
L 321.188571 159.744 
L 317.323636 154.715429 
L 313.458701 160.749714 
L 309.593766 151.698286 
L 305.728831 167.789714 
L 301.863896 177.846857 
L 297.998961 156.726857 
L 294.134026 146.669714 
L 290.269091 148.681143 
L 286.404156 133.595429 
L 282.539221 143.652571 
L 278.674286 143.652571 
L 274.809351 135.606857 
L 270.944416 147.675429 
L 267.079481 131.584 
L 263.214545 140.635429 
L 259.34961 148.681143 
L 255.484675 151.698286 
L 251.61974 138.624 
L 247.754805 142.646857 
L 243.88987 132.589714 
L 240.024935 124.544 
L 236.16 117.504 
L 232.295065 110.464 
L 228.43013 109.458286 
L 224.565195 111.469714 
L 220.70026 116.498286 
L 216.835325 106.441143 
L 212.97039 92.361143 
L 209.105455 56.155429 
L 205.240519 56.155429 
L 201.375584 56.155429 
L 197.510649 56.155429 
L 193.645714 56.155429 
L 189.780779 55.149714 
L 185.915844 55.149714 
L 182.050909 55.149714 
L 178.185974 56.155429 
L 174.321039 55.149714 
L 170.456104 56.155429 
L 166.591169 57.161143 
L 162.726234 57.161143 
L 158.861299 57.161143 
L 154.996364 56.155429 
L 151.131429 56.155429 
L 147.266494 56.155429 
L 143.401558 56.155429 
L 139.536623 57.161143 
L 135.671688 57.161143 
L 131.806753 57.161143 
L 127.941818 57.161143 
L 124.076883 56.155429 
L 120.211948 56.155429 
L 116.347013 56.155429 
L 112.482078 56.155429 
L 108.617143 55.149714 
L 104.752208 55.149714 
L 100.887273 57.161143 
L 97.022338 56.155429 
L 93.157403 56.155429 
L 89.292468 56.155429 
L 85.427532 56.155429 
L 81.562597 56.155429 
L 77.697662 56.155429 
L 73.832727 56.155429 
z
" style="fill:#8c564b;"/>
   </g>
   <g id="PolyCollection_7">
    <path clip-path="url(#p817dc66931)" d="M 73.832727 56.155429 
L 73.832727 56.155429 
L 77.697662 56.155429 
L 81.562597 56.155429 
L 85.427532 56.155429 
L 89.292468 56.155429 
L 93.157403 56.155429 
L 97.022338 56.155429 
L 100.887273 57.161143 
L 104.752208 55.149714 
L 108.617143 55.149714 
L 112.482078 56.155429 
L 116.347013 56.155429 
L 120.211948 56.155429 
L 124.076883 56.155429 
L 127.941818 57.161143 
L 131.806753 57.161143 
L 135.671688 57.161143 
L 139.536623 57.161143 
L 143.401558 56.155429 
L 147.266494 56.155429 
L 151.131429 56.155429 
L 154.996364 56.155429 
L 158.861299 57.161143 
L 162.726234 57.161143 
L 166.591169 57.161143 
L 170.456104 56.155429 
L 174.321039 55.149714 
L 178.185974 56.155429 
L 182.050909 55.149714 
L 185.915844 55.149714 
L 189.780779 55.149714 
L 193.645714 56.155429 
L 197.510649 56.155429 
L 201.375584 56.155429 
L 205.240519 56.155429 
L 209.105455 56.155429 
L 212.97039 92.361143 
L 216.835325 106.441143 
L 220.70026 116.498286 
L 224.565195 111.469714 
L 228.43013 109.458286 
L 232.295065 110.464 
L 236.16 117.504 
L 240.024935 124.544 
L 243.88987 132.589714 
L 247.754805 142.646857 
L 251.61974 138.624 
L 255.484675 151.698286 
L 259.34961 148.681143 
L 263.214545 140.635429 
L 267.079481 131.584 
L 270.944416 147.675429 
L 274.809351 135.606857 
L 278.674286 143.652571 
L 282.539221 143.652571 
L 286.404156 133.595429 
L 290.269091 148.681143 
L 294.134026 146.669714 
L 297.998961 156.726857 
L 301.863896 177.846857 
L 305.728831 167.789714 
L 309.593766 151.698286 
L 313.458701 160.749714 
L 317.323636 154.715429 
L 321.188571 159.744 
L 325.053506 163.766857 
L 328.918442 168.795429 
L 332.783377 186.898286 
L 336.648312 193.938286 
L 340.513247 183.881143 
L 344.378182 172.818286 
L 348.243117 174.829714 
L 352.108052 161.755429 
L 355.972987 151.698286 
L 359.837922 188.909714 
L 363.702857 191.926857 
L 367.567792 199.972571 
L 371.432727 187.904 
L 375.297662 197.961143 
L 379.162597 222.098286 
L 383.027532 218.075429 
L 386.892468 216.064 
L 390.757403 193.938286 
L 394.622338 213.046857 
L 398.487273 217.069714 
L 398.487273 180.864 
L 398.487273 180.864 
L 394.622338 174.829714 
L 390.757403 170.806857 
L 386.892468 189.915429 
L 383.027532 188.909714 
L 379.162597 193.938286 
L 375.297662 160.749714 
L 371.432727 144.658286 
L 367.567792 163.766857 
L 363.702857 157.732571 
L 359.837922 158.738286 
L 355.972987 128.566857 
L 352.108052 142.646857 
L 348.243117 153.709714 
L 344.378182 146.669714 
L 340.513247 154.715429 
L 336.648312 166.784 
L 332.783377 163.766857 
L 328.918442 149.686857 
L 325.053506 144.658286 
L 321.188571 131.584 
L 317.323636 127.561143 
L 313.458701 131.584 
L 309.593766 126.555429 
L 305.728831 140.635429 
L 301.863896 149.686857 
L 297.998961 127.561143 
L 294.134026 116.498286 
L 290.269091 119.515429 
L 286.404156 102.418286 
L 282.539221 114.486857 
L 278.674286 117.504 
L 274.809351 109.458286 
L 270.944416 115.492571 
L 267.079481 104.429714 
L 263.214545 111.469714 
L 259.34961 111.469714 
L 255.484675 114.486857 
L 251.61974 105.435429 
L 247.754805 118.509714 
L 243.88987 105.435429 
L 240.024935 105.435429 
L 236.16 88.338286 
L 232.295065 85.321143 
L 228.43013 87.332571 
L 224.565195 87.332571 
L 220.70026 88.338286 
L 216.835325 79.286857 
L 212.97039 65.206857 
L 209.105455 56.155429 
L 205.240519 56.155429 
L 201.375584 56.155429 
L 197.510649 56.155429 
L 193.645714 56.155429 
L 189.780779 55.149714 
L 185.915844 55.149714 
L 182.050909 55.149714 
L 178.185974 56.155429 
L 174.321039 55.149714 
L 170.456104 56.155429 
L 166.591169 57.161143 
L 162.726234 57.161143 
L 158.861299 57.161143 
L 154.996364 56.155429 
L 151.131429 56.155429 
L 147.266494 56.155429 
L 143.401558 56.155429 
L 139.536623 57.161143 
L 135.671688 57.161143 
L 131.806753 57.161143 
L 127.941818 57.161143 
L 124.076883 56.155429 
L 120.211948 56.155429 
L 116.347013 56.155429 
L 112.482078 56.155429 
L 108.617143 55.149714 
L 104.752208 55.149714 
L 100.887273 57.161143 
L 97.022338 56.155429 
L 93.157403 56.155429 
L 89.292468 56.155429 
L 85.427532 56.155429 
L 81.562597 56.155429 
L 77.697662 56.155429 
L 73.832727 56.155429 
z
" style="fill:#e377c2;"/>
   </g>
   <g id="PolyCollection_8">
    <path clip-path="url(#p817dc66931)" d="M 73.832727 56.155429 
L 73.832727 56.155429 
L 77.697662 56.155429 
L 81.562597 56.155429 
L 85.427532 56.155429 
L 89.292468 56.155429 
L 93.157403 56.155429 
L 97.022338 56.155429 
L 100.887273 57.161143 
L 104.752208 55.149714 
L 108.617143 55.149714 
L 112.482078 56.155429 
L 116.347013 56.155429 
L 120.211948 56.155429 
L 124.076883 56.155429 
L 127.941818 57.161143 
L 131.806753 57.161143 
L 135.671688 57.161143 
L 139.536623 57.161143 
L 143.401558 56.155429 
L 147.266494 56.155429 
L 151.131429 56.155429 
L 154.996364 56.155429 
L 158.861299 57.161143 
L 162.726234 57.161143 
L 166.591169 57.161143 
L 170.456104 56.155429 
L 174.321039 55.149714 
L 178.185974 56.155429 
L 182.050909 55.149714 
L 185.915844 55.149714 
L 189.780779 55.149714 
L 193.645714 56.155429 
L 197.510649 56.155429 
L 201.375584 56.155429 
L 205.240519 56.155429 
L 209.105455 56.155429 
L 212.97039 65.206857 
L 216.835325 79.286857 
L 220.70026 88.338286 
L 224.565195 87.332571 
L 228.43013 87.332571 
L 232.295065 85.321143 
L 236.16 88.338286 
L 240.024935 105.435429 
L 243.88987 105.435429 
L 247.754805 118.509714 
L 251.61974 105.435429 
L 255.484675 114.486857 
L 259.34961 111.469714 
L 263.214545 111.469714 
L 267.079481 104.429714 
L 270.944416 115.492571 
L 274.809351 109.458286 
L 278.674286 117.504 
L 282.539221 114.486857 
L 286.404156 102.418286 
L 290.269091 119.515429 
L 294.134026 116.498286 
L 297.998961 127.561143 
L 301.863896 149.686857 
L 305.728831 140.635429 
L 309.593766 126.555429 
L 313.458701 131.584 
L 317.323636 127.561143 
L 321.188571 131.584 
L 325.053506 144.658286 
L 328.918442 149.686857 
L 332.783377 163.766857 
L 336.648312 166.784 
L 340.513247 154.715429 
L 344.378182 146.669714 
L 348.243117 153.709714 
L 352.108052 142.646857 
L 355.972987 128.566857 
L 359.837922 158.738286 
L 363.702857 157.732571 
L 367.567792 163.766857 
L 371.432727 144.658286 
L 375.297662 160.749714 
L 379.162597 193.938286 
L 383.027532 188.909714 
L 386.892468 189.915429 
L 390.757403 170.806857 
L 394.622338 174.829714 
L 398.487273 180.864 
L 398.487273 180.864 
L 398.487273 180.864 
L 394.622338 174.829714 
L 390.757403 127.561143 
L 386.892468 147.675429 
L 383.027532 144.658286 
L 379.162597 148.681143 
L 375.297662 120.521143 
L 371.432727 110.464 
L 367.567792 135.606857 
L 363.702857 121.526857 
L 359.837922 129.572571 
L 355.972987 98.395429 
L 352.108052 111.469714 
L 348.243117 118.509714 
L 344.378182 130.578286 
L 340.513247 115.492571 
L 336.648312 116.498286 
L 332.783377 126.555429 
L 328.918442 109.458286 
L 325.053506 105.435429 
L 321.188571 103.424 
L 317.323636 100.406857 
L 313.458701 104.429714 
L 309.593766 101.412571 
L 305.728831 113.481143 
L 301.863896 120.521143 
L 297.998961 93.366857 
L 294.134026 86.326857 
L 290.269091 87.332571 
L 286.404156 80.292571 
L 282.539221 77.275429 
L 278.674286 82.304 
L 274.809351 81.298286 
L 270.944416 94.372571 
L 267.079481 79.286857 
L 263.214545 78.281143 
L 259.34961 82.304 
L 255.484675 87.332571 
L 251.61974 78.281143 
L 247.754805 87.332571 
L 243.88987 74.258286 
L 240.024935 72.246857 
L 236.16 57.161143 
L 232.295065 57.161143 
L 228.43013 56.155429 
L 224.565195 55.149714 
L 220.70026 54.144 
L 216.835325 55.149714 
L 212.97039 57.161143 
L 209.105455 56.155429 
L 205.240519 56.155429 
L 201.375584 56.155429 
L 197.510649 56.155429 
L 193.645714 56.155429 
L 189.780779 55.149714 
L 185.915844 55.149714 
L 182.050909 55.149714 
L 178.185974 56.155429 
L 174.321039 55.149714 
L 170.456104 56.155429 
L 166.591169 57.161143 
L 162.726234 57.161143 
L 158.861299 57.161143 
L 154.996364 56.155429 
L 151.131429 56.155429 
L 147.266494 56.155429 
L 143.401558 56.155429 
L 139.536623 57.161143 
L 135.671688 57.161143 
L 131.806753 57.161143 
L 127.941818 57.161143 
L 124.076883 56.155429 
L 120.211948 56.155429 
L 116.347013 56.155429 
L 112.482078 56.155429 
L 108.617143 55.149714 
L 104.752208 55.149714 
L 100.887273 57.161143 
L 97.022338 56.155429 
L 93.157403 56.155429 
L 89.292468 56.155429 
L 85.427532 56.155429 
L 81.562597 56.155429 
L 77.697662 56.155429 
L 73.832727 56.155429 
z
" style="fill:#7f7f7f;"/>
   </g>
   <g id="PolyCollection_9">
    <path clip-path="url(#p817dc66931)" d="M 73.832727 56.155429 
L 73.832727 56.155429 
L 77.697662 56.155429 
L 81.562597 56.155429 
L 85.427532 56.155429 
L 89.292468 56.155429 
L 93.157403 56.155429 
L 97.022338 56.155429 
L 100.887273 57.161143 
L 104.752208 55.149714 
L 108.617143 55.149714 
L 112.482078 56.155429 
L 116.347013 56.155429 
L 120.211948 56.155429 
L 124.076883 56.155429 
L 127.941818 57.161143 
L 131.806753 57.161143 
L 135.671688 57.161143 
L 139.536623 57.161143 
L 143.401558 56.155429 
L 147.266494 56.155429 
L 151.131429 56.155429 
L 154.996364 56.155429 
L 158.861299 57.161143 
L 162.726234 57.161143 
L 166.591169 57.161143 
L 170.456104 56.155429 
L 174.321039 55.149714 
L 178.185974 56.155429 
L 182.050909 55.149714 
L 185.915844 55.149714 
L 189.780779 55.149714 
L 193.645714 56.155429 
L 197.510649 56.155429 
L 201.375584 56.155429 
L 205.240519 56.155429 
L 209.105455 56.155429 
L 212.97039 57.161143 
L 216.835325 55.149714 
L 220.70026 54.144 
L 224.565195 55.149714 
L 228.43013 56.155429 
L 232.295065 57.161143 
L 236.16 57.161143 
L 240.024935 72.246857 
L 243.88987 74.258286 
L 247.754805 87.332571 
L 251.61974 78.281143 
L 255.484675 87.332571 
L 259.34961 82.304 
L 263.214545 78.281143 
L 267.079481 79.286857 
L 270.944416 94.372571 
L 274.809351 81.298286 
L 278.674286 82.304 
L 282.539221 77.275429 
L 286.404156 80.292571 
L 290.269091 87.332571 
L 294.134026 86.326857 
L 297.998961 93.366857 
L 301.863896 120.521143 
L 305.728831 113.481143 
L 309.593766 101.412571 
L 313.458701 104.429714 
L 317.323636 100.406857 
L 321.188571 103.424 
L 325.053506 105.435429 
L 328.918442 109.458286 
L 332.783377 126.555429 
L 336.648312 116.498286 
L 340.513247 115.492571 
L 344.378182 130.578286 
L 348.243117 118.509714 
L 352.108052 111.469714 
L 355.972987 98.395429 
L 359.837922 129.572571 
L 363.702857 121.526857 
L 367.567792 135.606857 
L 371.432727 110.464 
L 375.297662 120.521143 
L 379.162597 148.681143 
L 383.027532 144.658286 
L 386.892468 147.675429 
L 390.757403 127.561143 
L 394.622338 174.829714 
L 398.487273 180.864 
L 398.487273 180.864 
L 398.487273 180.864 
L 394.622338 174.829714 
L 390.757403 127.561143 
L 386.892468 147.675429 
L 383.027532 144.658286 
L 379.162597 148.681143 
L 375.297662 120.521143 
L 371.432727 110.464 
L 367.567792 101.412571 
L 363.702857 88.338286 
L 359.837922 100.406857 
L 355.972987 73.252571 
L 352.108052 85.321143 
L 348.243117 102.418286 
L 344.378182 97.389714 
L 340.513247 84.315429 
L 336.648312 94.372571 
L 332.783377 108.452571 
L 328.918442 86.326857 
L 325.053506 82.304 
L 321.188571 83.309714 
L 317.323636 81.298286 
L 313.458701 78.281143 
L 309.593766 74.258286 
L 305.728831 84.315429 
L 301.863896 84.315429 
L 297.998961 64.201143 
L 294.134026 54.144 
L 290.269091 56.155429 
L 286.404156 56.155429 
L 282.539221 56.155429 
L 278.674286 56.155429 
L 274.809351 57.161143 
L 270.944416 57.161143 
L 267.079481 56.155429 
L 263.214545 54.144 
L 259.34961 56.155429 
L 255.484675 58.166857 
L 251.61974 56.155429 
L 247.754805 56.155429 
L 243.88987 56.155429 
L 240.024935 57.161143 
L 236.16 57.161143 
L 232.295065 57.161143 
L 228.43013 56.155429 
L 224.565195 55.149714 
L 220.70026 54.144 
L 216.835325 55.149714 
L 212.97039 57.161143 
L 209.105455 56.155429 
L 205.240519 56.155429 
L 201.375584 56.155429 
L 197.510649 56.155429 
L 193.645714 56.155429 
L 189.780779 55.149714 
L 185.915844 55.149714 
L 182.050909 55.149714 
L 178.185974 56.155429 
L 174.321039 55.149714 
L 170.456104 56.155429 
L 166.591169 57.161143 
L 162.726234 57.161143 
L 158.861299 57.161143 
L 154.996364 56.155429 
L 151.131429 56.155429 
L 147.266494 56.155429 
L 143.401558 56.155429 
L 139.536623 57.161143 
L 135.671688 57.161143 
L 131.806753 57.161143 
L 127.941818 57.161143 
L 124.076883 56.155429 
L 120.211948 56.155429 
L 116.347013 56.155429 
L 112.482078 56.155429 
L 108.617143 55.149714 
L 104.752208 55.149714 
L 100.887273 57.161143 
L 97.022338 56.155429 
L 93.157403 56.155429 
L 89.292468 56.155429 
L 85.427532 56.155429 
L 81.562597 56.155429 
L 77.697662 56.155429 
L 73.832727 56.155429 
z
" style="fill:#bcbd22;"/>
   </g>
   <g id="PolyCollection_10">
    <path clip-path="url(#p817dc66931)" d="M 73.832727 56.155429 
L 73.832727 56.155429 
L 77.697662 56.155429 
L 81.562597 56.155429 
L 85.427532 56.155429 
L 89.292468 56.155429 
L 93.157403 56.155429 
L 97.022338 56.155429 
L 100.887273 57.161143 
L 104.752208 55.149714 
L 108.617143 55.149714 
L 112.482078 56.155429 
L 116.347013 56.155429 
L 120.211948 56.155429 
L 124.076883 56.155429 
L 127.941818 57.161143 
L 131.806753 57.161143 
L 135.671688 57.161143 
L 139.536623 57.161143 
L 143.401558 56.155429 
L 147.266494 56.155429 
L 151.131429 56.155429 
L 154.996364 56.155429 
L 158.861299 57.161143 
L 162.726234 57.161143 
L 166.591169 57.161143 
L 170.456104 56.155429 
L 174.321039 55.149714 
L 178.185974 56.155429 
L 182.050909 55.149714 
L 185.915844 55.149714 
L 189.780779 55.149714 
L 193.645714 56.155429 
L 197.510649 56.155429 
L 201.375584 56.155429 
L 205.240519 56.155429 
L 209.105455 56.155429 
L 212.97039 57.161143 
L 216.835325 55.149714 
L 220.70026 54.144 
L 224.565195 55.149714 
L 228.43013 56.155429 
L 232.295065 57.161143 
L 236.16 57.161143 
L 240.024935 57.161143 
L 243.88987 56.155429 
L 247.754805 56.155429 
L 251.61974 56.155429 
L 255.484675 58.166857 
L 259.34961 56.155429 
L 263.214545 54.144 
L 267.079481 56.155429 
L 270.944416 57.161143 
L 274.809351 57.161143 
L 278.674286 56.155429 
L 282.539221 56.155429 
L 286.404156 56.155429 
L 290.269091 56.155429 
L 294.134026 54.144 
L 297.998961 64.201143 
L 301.863896 84.315429 
L 305.728831 84.315429 
L 309.593766 74.258286 
L 313.458701 78.281143 
L 317.323636 81.298286 
L 321.188571 83.309714 
L 325.053506 82.304 
L 328.918442 86.326857 
L 332.783377 108.452571 
L 336.648312 94.372571 
L 340.513247 84.315429 
L 344.378182 97.389714 
L 348.243117 102.418286 
L 352.108052 85.321143 
L 355.972987 73.252571 
L 359.837922 100.406857 
L 363.702857 88.338286 
L 367.567792 101.412571 
L 371.432727 110.464 
L 375.297662 120.521143 
L 379.162597 148.681143 
L 383.027532 144.658286 
L 386.892468 147.675429 
L 390.757403 127.561143 
L 394.622338 174.829714 
L 398.487273 180.864 
L 398.487273 103.424 
L 398.487273 103.424 
L 394.622338 127.561143 
L 390.757403 93.366857 
L 386.892468 104.429714 
L 383.027532 92.361143 
L 379.162597 97.389714 
L 375.297662 62.189714 
L 371.432727 56.155429 
L 367.567792 57.161143 
L 363.702857 56.155429 
L 359.837922 57.161143 
L 355.972987 57.161143 
L 352.108052 57.161143 
L 348.243117 58.166857 
L 344.378182 56.155429 
L 340.513247 56.155429 
L 336.648312 55.149714 
L 332.783377 57.161143 
L 328.918442 57.161143 
L 325.053506 55.149714 
L 321.188571 57.161143 
L 317.323636 58.166857 
L 313.458701 57.161143 
L 309.593766 56.155429 
L 305.728831 58.166857 
L 301.863896 57.161143 
L 297.998961 57.161143 
L 294.134026 54.144 
L 290.269091 56.155429 
L 286.404156 56.155429 
L 282.539221 56.155429 
L 278.674286 56.155429 
L 274.809351 57.161143 
L 270.944416 57.161143 
L 267.079481 56.155429 
L 263.214545 54.144 
L 259.34961 56.155429 
L 255.484675 58.166857 
L 251.61974 56.155429 
L 247.754805 56.155429 
L 243.88987 56.155429 
L 240.024935 57.161143 
L 236.16 57.161143 
L 232.295065 57.161143 
L 228.43013 56.155429 
L 224.565195 55.149714 
L 220.70026 54.144 
L 216.835325 55.149714 
L 212.97039 57.161143 
L 209.105455 56.155429 
L 205.240519 56.155429 
L 201.375584 56.155429 
L 197.510649 56.155429 
L 193.645714 56.155429 
L 189.780779 55.149714 
L 185.915844 55.149714 
L 182.050909 55.149714 
L 178.185974 56.155429 
L 174.321039 55.149714 
L 170.456104 56.155429 
L 166.591169 57.161143 
L 162.726234 57.161143 
L 158.861299 57.161143 
L 154.996364 56.155429 
L 151.131429 56.155429 
L 147.266494 56.155429 
L 143.401558 56.155429 
L 139.536623 57.161143 
L 135.671688 57.161143 
L 131.806753 57.161143 
L 127.941818 57.161143 
L 124.076883 56.155429 
L 120.211948 56.155429 
L 116.347013 56.155429 
L 112.482078 56.155429 
L 108.617143 55.149714 
L 104.752208 55.149714 
L 100.887273 57.161143 
L 97.022338 56.155429 
L 93.157403 56.155429 
L 89.292468 56.155429 
L 85.427532 56.155429 
L 81.562597 56.155429 
L 77.697662 56.155429 
L 73.832727 56.155429 
z
" style="fill:#17becf;"/>
   </g>
   <g id="PolyCollection_11">
    <path clip-path="url(#p817dc66931)" d="M 73.832727 56.155429 
L 73.832727 56.155429 
L 77.697662 56.155429 
L 81.562597 56.155429 
L 85.427532 56.155429 
L 89.292468 56.155429 
L 93.157403 56.155429 
L 97.022338 56.155429 
L 100.887273 57.161143 
L 104.752208 55.149714 
L 108.617143 55.149714 
L 112.482078 56.155429 
L 116.347013 56.155429 
L 120.211948 56.155429 
L 124.076883 56.155429 
L 127.941818 57.161143 
L 131.806753 57.161143 
L 135.671688 57.161143 
L 139.536623 57.161143 
L 143.401558 56.155429 
L 147.266494 56.155429 
L 151.131429 56.155429 
L 154.996364 56.155429 
L 158.861299 57.161143 
L 162.726234 57.161143 
L 166.591169 57.161143 
L 170.456104 56.155429 
L 174.321039 55.149714 
L 178.185974 56.155429 
L 182.050909 55.149714 
L 185.915844 55.149714 
L 189.780779 55.149714 
L 193.645714 56.155429 
L 197.510649 56.155429 
L 201.375584 56.155429 
L 205.240519 56.155429 
L 209.105455 56.155429 
L 212.97039 57.161143 
L 216.835325 55.149714 
L 220.70026 54.144 
L 224.565195 55.149714 
L 228.43013 56.155429 
L 232.295065 57.161143 
L 236.16 57.161143 
L 240.024935 57.161143 
L 243.88987 56.155429 
L 247.754805 56.155429 
L 251.61974 56.155429 
L 255.484675 58.166857 
L 259.34961 56.155429 
L 263.214545 54.144 
L 267.079481 56.155429 
L 270.944416 57.161143 
L 274.809351 57.161143 
L 278.674286 56.155429 
L 282.539221 56.155429 
L 286.404156 56.155429 
L 290.269091 56.155429 
L 294.134026 54.144 
L 297.998961 57.161143 
L 301.863896 57.161143 
L 305.728831 58.166857 
L 309.593766 56.155429 
L 313.458701 57.161143 
L 317.323636 58.166857 
L 321.188571 57.161143 
L 325.053506 55.149714 
L 328.918442 57.161143 
L 332.783377 57.161143 
L 336.648312 55.149714 
L 340.513247 56.155429 
L 344.378182 56.155429 
L 348.243117 58.166857 
L 352.108052 57.161143 
L 355.972987 57.161143 
L 359.837922 57.161143 
L 363.702857 56.155429 
L 367.567792 57.161143 
L 371.432727 56.155429 
L 375.297662 62.189714 
L 379.162597 97.389714 
L 383.027532 92.361143 
L 386.892468 104.429714 
L 390.757403 93.366857 
L 394.622338 127.561143 
L 398.487273 103.424 
L 398.487273 55.149714 
L 398.487273 55.149714 
L 394.622338 56.155429 
L 390.757403 56.155429 
L 386.892468 56.155429 
L 383.027532 56.155429 
L 379.162597 57.161143 
L 375.297662 56.155429 
L 371.432727 56.155429 
L 367.567792 57.161143 
L 363.702857 56.155429 
L 359.837922 57.161143 
L 355.972987 57.161143 
L 352.108052 57.161143 
L 348.243117 58.166857 
L 344.378182 56.155429 
L 340.513247 56.155429 
L 336.648312 55.149714 
L 332.783377 57.161143 
L 328.918442 57.161143 
L 325.053506 55.149714 
L 321.188571 57.161143 
L 317.323636 58.166857 
L 313.458701 57.161143 
L 309.593766 56.155429 
L 305.728831 58.166857 
L 301.863896 57.161143 
L 297.998961 57.161143 
L 294.134026 54.144 
L 290.269091 56.155429 
L 286.404156 56.155429 
L 282.539221 56.155429 
L 278.674286 56.155429 
L 274.809351 57.161143 
L 270.944416 57.161143 
L 267.079481 56.155429 
L 263.214545 54.144 
L 259.34961 56.155429 
L 255.484675 58.166857 
L 251.61974 56.155429 
L 247.754805 56.155429 
L 243.88987 56.155429 
L 240.024935 57.161143 
L 236.16 57.161143 
L 232.295065 57.161143 
L 228.43013 56.155429 
L 224.565195 55.149714 
L 220.70026 54.144 
L 216.835325 55.149714 
L 212.97039 57.161143 
L 209.105455 56.155429 
L 205.240519 56.155429 
L 201.375584 56.155429 
L 197.510649 56.155429 
L 193.645714 56.155429 
L 189.780779 55.149714 
L 185.915844 55.149714 
L 182.050909 55.149714 
L 178.185974 56.155429 
L 174.321039 55.149714 
L 170.456104 56.155429 
L 166.591169 57.161143 
L 162.726234 57.161143 
L 158.861299 57.161143 
L 154.996364 56.155429 
L 151.131429 56.155429 
L 147.266494 56.155429 
L 143.401558 56.155429 
L 139.536623 57.161143 
L 135.671688 57.161143 
L 131.806753 57.161143 
L 127.941818 57.161143 
L 124.076883 56.155429 
L 120.211948 56.155429 
L 116.347013 56.155429 
L 112.482078 56.155429 
L 108.617143 55.149714 
L 104.752208 55.149714 
L 100.887273 57.161143 
L 97.022338 56.155429 
L 93.157403 56.155429 
L 89.292468 56.155429 
L 85.427532 56.155429 
L 81.562597 56.155429 
L 77.697662 56.155429 
L 73.832727 56.155429 
z
" style="fill:#1f77b4;"/>
   </g>
   <g id="matplotlib.axis_1">
    <g id="xtick_1">
     <g id="line2d_1">
      <defs>
       <path d="M 0 0 
L 0 3.5 
" id="mb5c8a2e434" style="stroke:#000000;stroke-width:0.8;"/>
      </defs>
      <g>
       <use style="stroke:#000000;stroke-width:0.8;" x="73.832727" xlink:href="#mb5c8a2e434" y="307.584"/>
      </g>
     </g>
     <g id="text_1">
      <!-- 0 -->
      <defs>
       <path d="M 31.78125 66.40625 
Q 24.171875 66.40625 20.328125 58.90625 
Q 16.5 51.421875 16.5 36.375 
Q 16.5 21.390625 20.328125 13.890625 
Q 24.171875 6.390625 31.78125 6.390625 
Q 39.453125 6.390625 43.28125 13.890625 
Q 47.125 21.390625 47.125 36.375 
Q 47.125 51.421875 43.28125 58.90625 
Q 39.453125 66.40625 31.78125 66.40625 
z
M 31.78125 74.21875 
Q 44.046875 74.21875 50.515625 64.515625 
Q 56.984375 54.828125 56.984375 36.375 
Q 56.984375 17.96875 50.515625 8.265625 
Q 44.046875 -1.421875 31.78125 -1.421875 
Q 19.53125 -1.421875 13.0625 8.265625 
Q 6.59375 17.96875 6.59375 36.375 
Q 6.59375 54.828125 13.0625 64.515625 
Q 19.53125 74.21875 31.78125 74.21875 
z
" id="DejaVuSans-48"/>
      </defs>
      <g transform="translate(70.651477 322.182437)scale(0.1 -0.1)">
       <use xlink:href="#DejaVuSans-48"/>
      </g>
     </g>
    </g>
    <g id="xtick_2">
     <g id="line2d_2">
      <g>
       <use style="stroke:#000000;stroke-width:0.8;" x="151.131429" xlink:href="#mb5c8a2e434" y="307.584"/>
      </g>
     </g>
     <g id="text_2">
      <!-- 20 -->
      <defs>
       <path d="M 19.1875 8.296875 
L 53.609375 8.296875 
L 53.609375 0 
L 7.328125 0 
L 7.328125 8.296875 
Q 12.9375 14.109375 22.625 23.890625 
Q 32.328125 33.6875 34.8125 36.53125 
Q 39.546875 41.84375 41.421875 45.53125 
Q 43.3125 49.21875 43.3125 52.78125 
Q 43.3125 58.59375 39.234375 62.25 
Q 35.15625 65.921875 28.609375 65.921875 
Q 23.96875 65.921875 18.8125 64.3125 
Q 13.671875 62.703125 7.8125 59.421875 
L 7.8125 69.390625 
Q 13.765625 71.78125 18.9375 73 
Q 24.125 74.21875 28.421875 74.21875 
Q 39.75 74.21875 46.484375 68.546875 
Q 53.21875 62.890625 53.21875 53.421875 
Q 53.21875 48.921875 51.53125 44.890625 
Q 49.859375 40.875 45.40625 35.40625 
Q 44.1875 33.984375 37.640625 27.21875 
Q 31.109375 20.453125 19.1875 8.296875 
z
" id="DejaVuSans-50"/>
      </defs>
      <g transform="translate(144.768929 322.182437)scale(0.1 -0.1)">
       <use xlink:href="#DejaVuSans-50"/>
       <use x="63.623047" xlink:href="#DejaVuSans-48"/>
      </g>
     </g>
    </g>
    <g id="xtick_3">
     <g id="line2d_3">
      <g>
       <use style="stroke:#000000;stroke-width:0.8;" x="228.43013" xlink:href="#mb5c8a2e434" y="307.584"/>
      </g>
     </g>
     <g id="text_3">
      <!-- 40 -->
      <defs>
       <path d="M 37.796875 64.3125 
L 12.890625 25.390625 
L 37.796875 25.390625 
z
M 35.203125 72.90625 
L 47.609375 72.90625 
L 47.609375 25.390625 
L 58.015625 25.390625 
L 58.015625 17.1875 
L 47.609375 17.1875 
L 47.609375 0 
L 37.796875 0 
L 37.796875 17.1875 
L 4.890625 17.1875 
L 4.890625 26.703125 
z
" id="DejaVuSans-52"/>
      </defs>
      <g transform="translate(222.06763 322.182437)scale(0.1 -0.1)">
       <use xlink:href="#DejaVuSans-52"/>
       <use x="63.623047" xlink:href="#DejaVuSans-48"/>
      </g>
     </g>
    </g>
    <g id="xtick_4">
     <g id="line2d_4">
      <g>
       <use style="stroke:#000000;stroke-width:0.8;" x="305.728831" xlink:href="#mb5c8a2e434" y="307.584"/>
      </g>
     </g>
     <g id="text_4">
      <!-- 60 -->
      <defs>
       <path d="M 33.015625 40.375 
Q 26.375 40.375 22.484375 35.828125 
Q 18.609375 31.296875 18.609375 23.390625 
Q 18.609375 15.53125 22.484375 10.953125 
Q 26.375 6.390625 33.015625 6.390625 
Q 39.65625 6.390625 43.53125 10.953125 
Q 47.40625 15.53125 47.40625 23.390625 
Q 47.40625 31.296875 43.53125 35.828125 
Q 39.65625 40.375 33.015625 40.375 
z
M 52.59375 71.296875 
L 52.59375 62.3125 
Q 48.875 64.0625 45.09375 64.984375 
Q 41.3125 65.921875 37.59375 65.921875 
Q 27.828125 65.921875 22.671875 59.328125 
Q 17.53125 52.734375 16.796875 39.40625 
Q 19.671875 43.65625 24.015625 45.921875 
Q 28.375 48.1875 33.59375 48.1875 
Q 44.578125 48.1875 50.953125 41.515625 
Q 57.328125 34.859375 57.328125 23.390625 
Q 57.328125 12.15625 50.6875 5.359375 
Q 44.046875 -1.421875 33.015625 -1.421875 
Q 20.359375 -1.421875 13.671875 8.265625 
Q 6.984375 17.96875 6.984375 36.375 
Q 6.984375 53.65625 15.1875 63.9375 
Q 23.390625 74.21875 37.203125 74.21875 
Q 40.921875 74.21875 44.703125 73.484375 
Q 48.484375 72.75 52.59375 71.296875 
z
" id="DejaVuSans-54"/>
      </defs>
      <g transform="translate(299.366331 322.182437)scale(0.1 -0.1)">
       <use xlink:href="#DejaVuSans-54"/>
       <use x="63.623047" xlink:href="#DejaVuSans-48"/>
      </g>
     </g>
    </g>
    <g id="xtick_5">
     <g id="line2d_5">
      <g>
       <use style="stroke:#000000;stroke-width:0.8;" x="383.027532" xlink:href="#mb5c8a2e434" y="307.584"/>
      </g>
     </g>
     <g id="text_5">
      <!-- 80 -->
      <defs>
       <path d="M 31.78125 34.625 
Q 24.75 34.625 20.71875 30.859375 
Q 16.703125 27.09375 16.703125 20.515625 
Q 16.703125 13.921875 20.71875 10.15625 
Q 24.75 6.390625 31.78125 6.390625 
Q 38.8125 6.390625 42.859375 10.171875 
Q 46.921875 13.96875 46.921875 20.515625 
Q 46.921875 27.09375 42.890625 30.859375 
Q 38.875 34.625 31.78125 34.625 
z
M 21.921875 38.8125 
Q 15.578125 40.375 12.03125 44.71875 
Q 8.5 49.078125 8.5 55.328125 
Q 8.5 64.0625 14.71875 69.140625 
Q 20.953125 74.21875 31.78125 74.21875 
Q 42.671875 74.21875 48.875 69.140625 
Q 55.078125 64.0625 55.078125 55.328125 
Q 55.078125 49.078125 51.53125 44.71875 
Q 48 40.375 41.703125 38.8125 
Q 48.828125 37.15625 52.796875 32.3125 
Q 56.78125 27.484375 56.78125 20.515625 
Q 56.78125 9.90625 50.3125 4.234375 
Q 43.84375 -1.421875 31.78125 -1.421875 
Q 19.734375 -1.421875 13.25 4.234375 
Q 6.78125 9.90625 6.78125 20.515625 
Q 6.78125 27.484375 10.78125 32.3125 
Q 14.796875 37.15625 21.921875 38.8125 
z
M 18.3125 54.390625 
Q 18.3125 48.734375 21.84375 45.5625 
Q 25.390625 42.390625 31.78125 42.390625 
Q 38.140625 42.390625 41.71875 45.5625 
Q 45.3125 48.734375 45.3125 54.390625 
Q 45.3125 60.0625 41.71875 63.234375 
Q 38.140625 66.40625 31.78125 66.40625 
Q 25.390625 66.40625 21.84375 63.234375 
Q 18.3125 60.0625 18.3125 54.390625 
z
" id="DejaVuSans-56"/>
      </defs>
      <g transform="translate(376.665032 322.182437)scale(0.1 -0.1)">
       <use xlink:href="#DejaVuSans-56"/>
       <use x="63.623047" xlink:href="#DejaVuSans-48"/>
      </g>
     </g>
    </g>
    <g id="text_6">
     <!-- Generations -->
     <defs>
      <path d="M 59.515625 10.40625 
L 59.515625 29.984375 
L 43.40625 29.984375 
L 43.40625 38.09375 
L 69.28125 38.09375 
L 69.28125 6.78125 
Q 63.578125 2.734375 56.6875 0.65625 
Q 49.8125 -1.421875 42 -1.421875 
Q 24.90625 -1.421875 15.25 8.5625 
Q 5.609375 18.5625 5.609375 36.375 
Q 5.609375 54.25 15.25 64.234375 
Q 24.90625 74.21875 42 74.21875 
Q 49.125 74.21875 55.546875 72.453125 
Q 61.96875 70.703125 67.390625 67.28125 
L 67.390625 56.78125 
Q 61.921875 61.421875 55.765625 63.765625 
Q 49.609375 66.109375 42.828125 66.109375 
Q 29.4375 66.109375 22.71875 58.640625 
Q 16.015625 51.171875 16.015625 36.375 
Q 16.015625 21.625 22.71875 14.15625 
Q 29.4375 6.6875 42.828125 6.6875 
Q 48.046875 6.6875 52.140625 7.59375 
Q 56.25 8.5 59.515625 10.40625 
z
" id="DejaVuSans-71"/>
      <path d="M 56.203125 29.59375 
L 56.203125 25.203125 
L 14.890625 25.203125 
Q 15.484375 15.921875 20.484375 11.0625 
Q 25.484375 6.203125 34.421875 6.203125 
Q 39.59375 6.203125 44.453125 7.46875 
Q 49.3125 8.734375 54.109375 11.28125 
L 54.109375 2.78125 
Q 49.265625 0.734375 44.1875 -0.34375 
Q 39.109375 -1.421875 33.890625 -1.421875 
Q 20.796875 -1.421875 13.15625 6.1875 
Q 5.515625 13.8125 5.515625 26.8125 
Q 5.515625 40.234375 12.765625 48.109375 
Q 20.015625 56 32.328125 56 
Q 43.359375 56 49.78125 48.890625 
Q 56.203125 41.796875 56.203125 29.59375 
z
M 47.21875 32.234375 
Q 47.125 39.59375 43.09375 43.984375 
Q 39.0625 48.390625 32.421875 48.390625 
Q 24.90625 48.390625 20.390625 44.140625 
Q 15.875 39.890625 15.1875 32.171875 
z
" id="DejaVuSans-101"/>
      <path d="M 54.890625 33.015625 
L 54.890625 0 
L 45.90625 0 
L 45.90625 32.71875 
Q 45.90625 40.484375 42.875 44.328125 
Q 39.84375 48.1875 33.796875 48.1875 
Q 26.515625 48.1875 22.3125 43.546875 
Q 18.109375 38.921875 18.109375 30.90625 
L 18.109375 0 
L 9.078125 0 
L 9.078125 54.6875 
L 18.109375 54.6875 
L 18.109375 46.1875 
Q 21.34375 51.125 25.703125 53.5625 
Q 30.078125 56 35.796875 56 
Q 45.21875 56 50.046875 50.171875 
Q 54.890625 44.34375 54.890625 33.015625 
z
" id="DejaVuSans-110"/>
      <path d="M 41.109375 46.296875 
Q 39.59375 47.171875 37.8125 47.578125 
Q 36.03125 48 33.890625 48 
Q 26.265625 48 22.1875 43.046875 
Q 18.109375 38.09375 18.109375 28.8125 
L 18.109375 0 
L 9.078125 0 
L 9.078125 54.6875 
L 18.109375 54.6875 
L 18.109375 46.1875 
Q 20.953125 51.171875 25.484375 53.578125 
Q 30.03125 56 36.53125 56 
Q 37.453125 56 38.578125 55.875 
Q 39.703125 55.765625 41.0625 55.515625 
z
" id="DejaVuSans-114"/>
      <path d="M 34.28125 27.484375 
Q 23.390625 27.484375 19.1875 25 
Q 14.984375 22.515625 14.984375 16.5 
Q 14.984375 11.71875 18.140625 8.90625 
Q 21.296875 6.109375 26.703125 6.109375 
Q 34.1875 6.109375 38.703125 11.40625 
Q 43.21875 16.703125 43.21875 25.484375 
L 43.21875 27.484375 
z
M 52.203125 31.203125 
L 52.203125 0 
L 43.21875 0 
L 43.21875 8.296875 
Q 40.140625 3.328125 35.546875 0.953125 
Q 30.953125 -1.421875 24.3125 -1.421875 
Q 15.921875 -1.421875 10.953125 3.296875 
Q 6 8.015625 6 15.921875 
Q 6 25.140625 12.171875 29.828125 
Q 18.359375 34.515625 30.609375 34.515625 
L 43.21875 34.515625 
L 43.21875 35.40625 
Q 43.21875 41.609375 39.140625 45 
Q 35.0625 48.390625 27.6875 48.390625 
Q 23 48.390625 18.546875 47.265625 
Q 14.109375 46.140625 10.015625 43.890625 
L 10.015625 52.203125 
Q 14.9375 54.109375 19.578125 55.046875 
Q 24.21875 56 28.609375 56 
Q 40.484375 56 46.34375 49.84375 
Q 52.203125 43.703125 52.203125 31.203125 
z
" id="DejaVuSans-97"/>
      <path d="M 18.3125 70.21875 
L 18.3125 54.6875 
L 36.8125 54.6875 
L 36.8125 47.703125 
L 18.3125 47.703125 
L 18.3125 18.015625 
Q 18.3125 11.328125 20.140625 9.421875 
Q 21.96875 7.515625 27.59375 7.515625 
L 36.8125 7.515625 
L 36.8125 0 
L 27.59375 0 
Q 17.1875 0 13.234375 3.875 
Q 9.28125 7.765625 9.28125 18.015625 
L 9.28125 47.703125 
L 2.6875 47.703125 
L 2.6875 54.6875 
L 9.28125 54.6875 
L 9.28125 70.21875 
z
" id="DejaVuSans-116"/>
      <path d="M 9.421875 54.6875 
L 18.40625 54.6875 
L 18.40625 0 
L 9.421875 0 
z
M 9.421875 75.984375 
L 18.40625 75.984375 
L 18.40625 64.59375 
L 9.421875 64.59375 
z
" id="DejaVuSans-105"/>
      <path d="M 30.609375 48.390625 
Q 23.390625 48.390625 19.1875 42.75 
Q 14.984375 37.109375 14.984375 27.296875 
Q 14.984375 17.484375 19.15625 11.84375 
Q 23.34375 6.203125 30.609375 6.203125 
Q 37.796875 6.203125 41.984375 11.859375 
Q 46.1875 17.53125 46.1875 27.296875 
Q 46.1875 37.015625 41.984375 42.703125 
Q 37.796875 48.390625 30.609375 48.390625 
z
M 30.609375 56 
Q 42.328125 56 49.015625 48.375 
Q 55.71875 40.765625 55.71875 27.296875 
Q 55.71875 13.875 49.015625 6.21875 
Q 42.328125 -1.421875 30.609375 -1.421875 
Q 18.84375 -1.421875 12.171875 6.21875 
Q 5.515625 13.875 5.515625 27.296875 
Q 5.515625 40.765625 12.171875 48.375 
Q 18.84375 56 30.609375 56 
z
" id="DejaVuSans-111"/>
      <path d="M 44.28125 53.078125 
L 44.28125 44.578125 
Q 40.484375 46.53125 36.375 47.5 
Q 32.28125 48.484375 27.875 48.484375 
Q 21.1875 48.484375 17.84375 46.4375 
Q 14.5 44.390625 14.5 40.28125 
Q 14.5 37.15625 16.890625 35.375 
Q 19.28125 33.59375 26.515625 31.984375 
L 29.59375 31.296875 
Q 39.15625 29.25 43.1875 25.515625 
Q 47.21875 21.78125 47.21875 15.09375 
Q 47.21875 7.46875 41.1875 3.015625 
Q 35.15625 -1.421875 24.609375 -1.421875 
Q 20.21875 -1.421875 15.453125 -0.5625 
Q 10.6875 0.296875 5.421875 2 
L 5.421875 11.28125 
Q 10.40625 8.6875 15.234375 7.390625 
Q 20.0625 6.109375 24.8125 6.109375 
Q 31.15625 6.109375 34.5625 8.28125 
Q 37.984375 10.453125 37.984375 14.40625 
Q 37.984375 18.0625 35.515625 20.015625 
Q 33.0625 21.96875 24.703125 23.78125 
L 21.578125 24.515625 
Q 13.234375 26.265625 9.515625 29.90625 
Q 5.8125 33.546875 5.8125 39.890625 
Q 5.8125 47.609375 11.28125 51.796875 
Q 16.75 56 26.8125 56 
Q 31.78125 56 36.171875 55.265625 
Q 40.578125 54.546875 44.28125 53.078125 
z
" id="DejaVuSans-115"/>
     </defs>
     <g transform="translate(205.662344 335.860562)scale(0.1 -0.1)">
      <use xlink:href="#DejaVuSans-71"/>
      <use x="77.490234" xlink:href="#DejaVuSans-101"/>
      <use x="139.013672" xlink:href="#DejaVuSans-110"/>
      <use x="202.392578" xlink:href="#DejaVuSans-101"/>
      <use x="263.916016" xlink:href="#DejaVuSans-114"/>
      <use x="305.029297" xlink:href="#DejaVuSans-97"/>
      <use x="366.308594" xlink:href="#DejaVuSans-116"/>
      <use x="405.517578" xlink:href="#DejaVuSans-105"/>
      <use x="433.300781" xlink:href="#DejaVuSans-111"/>
      <use x="494.482422" xlink:href="#DejaVuSans-110"/>
      <use x="557.861328" xlink:href="#DejaVuSans-115"/>
     </g>
    </g>
   </g>
   <g id="matplotlib.axis_2">
    <g id="ytick_1">
     <g id="line2d_6">
      <defs>
       <path d="M 0 0 
L -3.5 0 
" id="md542d78862" style="stroke:#000000;stroke-width:0.8;"/>
      </defs>
      <g>
       <use style="stroke:#000000;stroke-width:0.8;" x="57.6" xlink:href="#md542d78862" y="307.584"/>
      </g>
     </g>
     <g id="text_7">
      <!-- 0 -->
      <g transform="translate(44.2375 311.383219)scale(0.1 -0.1)">
       <use xlink:href="#DejaVuSans-48"/>
      </g>
     </g>
    </g>
    <g id="ytick_2">
     <g id="line2d_7">
      <g>
       <use style="stroke:#000000;stroke-width:0.8;" x="57.6" xlink:href="#md542d78862" y="257.298286"/>
      </g>
     </g>
     <g id="text_8">
      <!-- 50 -->
      <defs>
       <path d="M 10.796875 72.90625 
L 49.515625 72.90625 
L 49.515625 64.59375 
L 19.828125 64.59375 
L 19.828125 46.734375 
Q 21.96875 47.46875 24.109375 47.828125 
Q 26.265625 48.1875 28.421875 48.1875 
Q 40.625 48.1875 47.75 41.5 
Q 54.890625 34.8125 54.890625 23.390625 
Q 54.890625 11.625 47.5625 5.09375 
Q 40.234375 -1.421875 26.90625 -1.421875 
Q 22.3125 -1.421875 17.546875 -0.640625 
Q 12.796875 0.140625 7.71875 1.703125 
L 7.71875 11.625 
Q 12.109375 9.234375 16.796875 8.0625 
Q 21.484375 6.890625 26.703125 6.890625 
Q 35.15625 6.890625 40.078125 11.328125 
Q 45.015625 15.765625 45.015625 23.390625 
Q 45.015625 31 40.078125 35.4375 
Q 35.15625 39.890625 26.703125 39.890625 
Q 22.75 39.890625 18.8125 39.015625 
Q 14.890625 38.140625 10.796875 36.28125 
z
" id="DejaVuSans-53"/>
      </defs>
      <g transform="translate(37.875 261.097504)scale(0.1 -0.1)">
       <use xlink:href="#DejaVuSans-53"/>
       <use x="63.623047" xlink:href="#DejaVuSans-48"/>
      </g>
     </g>
    </g>
    <g id="ytick_3">
     <g id="line2d_8">
      <g>
       <use style="stroke:#000000;stroke-width:0.8;" x="57.6" xlink:href="#md542d78862" y="207.012571"/>
      </g>
     </g>
     <g id="text_9">
      <!-- 100 -->
      <defs>
       <path d="M 12.40625 8.296875 
L 28.515625 8.296875 
L 28.515625 63.921875 
L 10.984375 60.40625 
L 10.984375 69.390625 
L 28.421875 72.90625 
L 38.28125 72.90625 
L 38.28125 8.296875 
L 54.390625 8.296875 
L 54.390625 0 
L 12.40625 0 
z
" id="DejaVuSans-49"/>
      </defs>
      <g transform="translate(31.5125 210.81179)scale(0.1 -0.1)">
       <use xlink:href="#DejaVuSans-49"/>
       <use x="63.623047" xlink:href="#DejaVuSans-48"/>
       <use x="127.246094" xlink:href="#DejaVuSans-48"/>
      </g>
     </g>
    </g>
    <g id="ytick_4">
     <g id="line2d_9">
      <g>
       <use style="stroke:#000000;stroke-width:0.8;" x="57.6" xlink:href="#md542d78862" y="156.726857"/>
      </g>
     </g>
     <g id="text_10">
      <!-- 150 -->
      <g transform="translate(31.5125 160.526076)scale(0.1 -0.1)">
       <use xlink:href="#DejaVuSans-49"/>
       <use x="63.623047" xlink:href="#DejaVuSans-53"/>
       <use x="127.246094" xlink:href="#DejaVuSans-48"/>
      </g>
     </g>
    </g>
    <g id="ytick_5">
     <g id="line2d_10">
      <g>
       <use style="stroke:#000000;stroke-width:0.8;" x="57.6" xlink:href="#md542d78862" y="106.441143"/>
      </g>
     </g>
     <g id="text_11">
      <!-- 200 -->
      <g transform="translate(31.5125 110.240362)scale(0.1 -0.1)">
       <use xlink:href="#DejaVuSans-50"/>
       <use x="63.623047" xlink:href="#DejaVuSans-48"/>
       <use x="127.246094" xlink:href="#DejaVuSans-48"/>
      </g>
     </g>
    </g>
    <g id="ytick_6">
     <g id="line2d_11">
      <g>
       <use style="stroke:#000000;stroke-width:0.8;" x="57.6" xlink:href="#md542d78862" y="56.155429"/>
      </g>
     </g>
     <g id="text_12">
      <!-- 250 -->
      <g transform="translate(31.5125 59.954647)scale(0.1 -0.1)">
       <use xlink:href="#DejaVuSans-50"/>
       <use x="63.623047" xlink:href="#DejaVuSans-53"/>
       <use x="127.246094" xlink:href="#DejaVuSans-48"/>
      </g>
     </g>
    </g>
    <g id="text_13">
     <!-- Size per Species -->
     <defs>
      <path d="M 53.515625 70.515625 
L 53.515625 60.890625 
Q 47.90625 63.578125 42.921875 64.890625 
Q 37.9375 66.21875 33.296875 66.21875 
Q 25.25 66.21875 20.875 63.09375 
Q 16.5 59.96875 16.5 54.203125 
Q 16.5 49.359375 19.40625 46.890625 
Q 22.3125 44.4375 30.421875 42.921875 
L 36.375 41.703125 
Q 47.40625 39.59375 52.65625 34.296875 
Q 57.90625 29 57.90625 20.125 
Q 57.90625 9.515625 50.796875 4.046875 
Q 43.703125 -1.421875 29.984375 -1.421875 
Q 24.8125 -1.421875 18.96875 -0.25 
Q 13.140625 0.921875 6.890625 3.21875 
L 6.890625 13.375 
Q 12.890625 10.015625 18.65625 8.296875 
Q 24.421875 6.59375 29.984375 6.59375 
Q 38.421875 6.59375 43.015625 9.90625 
Q 47.609375 13.234375 47.609375 19.390625 
Q 47.609375 24.75 44.3125 27.78125 
Q 41.015625 30.8125 33.5 32.328125 
L 27.484375 33.5 
Q 16.453125 35.6875 11.515625 40.375 
Q 6.59375 45.0625 6.59375 53.421875 
Q 6.59375 63.09375 13.40625 68.65625 
Q 20.21875 74.21875 32.171875 74.21875 
Q 37.3125 74.21875 42.625 73.28125 
Q 47.953125 72.359375 53.515625 70.515625 
z
" id="DejaVuSans-83"/>
      <path d="M 5.515625 54.6875 
L 48.1875 54.6875 
L 48.1875 46.484375 
L 14.40625 7.171875 
L 48.1875 7.171875 
L 48.1875 0 
L 4.296875 0 
L 4.296875 8.203125 
L 38.09375 47.515625 
L 5.515625 47.515625 
z
" id="DejaVuSans-122"/>
      <path id="DejaVuSans-32"/>
      <path d="M 18.109375 8.203125 
L 18.109375 -20.796875 
L 9.078125 -20.796875 
L 9.078125 54.6875 
L 18.109375 54.6875 
L 18.109375 46.390625 
Q 20.953125 51.265625 25.265625 53.625 
Q 29.59375 56 35.59375 56 
Q 45.5625 56 51.78125 48.09375 
Q 58.015625 40.1875 58.015625 27.296875 
Q 58.015625 14.40625 51.78125 6.484375 
Q 45.5625 -1.421875 35.59375 -1.421875 
Q 29.59375 -1.421875 25.265625 0.953125 
Q 20.953125 3.328125 18.109375 8.203125 
z
M 48.6875 27.296875 
Q 48.6875 37.203125 44.609375 42.84375 
Q 40.53125 48.484375 33.40625 48.484375 
Q 26.265625 48.484375 22.1875 42.84375 
Q 18.109375 37.203125 18.109375 27.296875 
Q 18.109375 17.390625 22.1875 11.75 
Q 26.265625 6.109375 33.40625 6.109375 
Q 40.53125 6.109375 44.609375 11.75 
Q 48.6875 17.390625 48.6875 27.296875 
z
" id="DejaVuSans-112"/>
      <path d="M 48.78125 52.59375 
L 48.78125 44.1875 
Q 44.96875 46.296875 41.140625 47.34375 
Q 37.3125 48.390625 33.40625 48.390625 
Q 24.65625 48.390625 19.8125 42.84375 
Q 14.984375 37.3125 14.984375 27.296875 
Q 14.984375 17.28125 19.8125 11.734375 
Q 24.65625 6.203125 33.40625 6.203125 
Q 37.3125 6.203125 41.140625 7.25 
Q 44.96875 8.296875 48.78125 10.40625 
L 48.78125 2.09375 
Q 45.015625 0.34375 40.984375 -0.53125 
Q 36.96875 -1.421875 32.421875 -1.421875 
Q 20.0625 -1.421875 12.78125 6.34375 
Q 5.515625 14.109375 5.515625 27.296875 
Q 5.515625 40.671875 12.859375 48.328125 
Q 20.21875 56 33.015625 56 
Q 37.15625 56 41.109375 55.140625 
Q 45.0625 54.296875 48.78125 52.59375 
z
" id="DejaVuSans-99"/>
     </defs>
     <g transform="translate(25.432812 215.520969)rotate(-90)scale(0.1 -0.1)">
      <use xlink:href="#DejaVuSans-83"/>
      <use x="63.476562" xlink:href="#DejaVuSans-105"/>
      <use x="91.259766" xlink:href="#DejaVuSans-122"/>
      <use x="143.75" xlink:href="#DejaVuSans-101"/>
      <use x="205.273438" xlink:href="#DejaVuSans-32"/>
      <use x="237.060547" xlink:href="#DejaVuSans-112"/>
      <use x="300.537109" xlink:href="#DejaVuSans-101"/>
      <use x="362.060547" xlink:href="#DejaVuSans-114"/>
      <use x="403.173828" xlink:href="#DejaVuSans-32"/>
      <use x="434.960938" xlink:href="#DejaVuSans-83"/>
      <use x="498.4375" xlink:href="#DejaVuSans-112"/>
      <use x="561.914062" xlink:href="#DejaVuSans-101"/>
      <use x="623.4375" xlink:href="#DejaVuSans-99"/>
      <use x="678.417969" xlink:href="#DejaVuSans-105"/>
      <use x="706.201172" xlink:href="#DejaVuSans-101"/>
      <use x="767.724609" xlink:href="#DejaVuSans-115"/>
     </g>
    </g>
   </g>
   <g id="patch_3">
    <path d="M 57.6 307.584 
L 57.6 41.472 
" style="fill:none;stroke:#000000;stroke-linecap:square;stroke-linejoin:miter;stroke-width:0.8;"/>
   </g>
   <g id="patch_4">
    <path d="M 414.72 307.584 
L 414.72 41.472 
" style="fill:none;stroke:#000000;stroke-linecap:square;stroke-linejoin:miter;stroke-width:0.8;"/>
   </g>
   <g id="patch_5">
    <path d="M 57.6 307.584 
L 414.72 307.584 
" style="fill:none;stroke:#000000;stroke-linecap:square;stroke-linejoin:miter;stroke-width:0.8;"/>
   </g>
   <g id="patch_6">
    <path d="M 57.6 41.472 
L 414.72 41.472 
" style="fill:none;stroke:#000000;stroke-linecap:square;stroke-linejoin:miter;stroke-width:0.8;"/>
   </g>
   <g id="text_14">
    <!-- Speciation -->
    <g transform="translate(204.714375 35.472)scale(0.12 -0.12)">
     <use xlink:href="#DejaVuSans-83"/>
     <use x="63.476562" xlink:href="#DejaVuSans-112"/>
     <use x="126.953125" xlink:href="#DejaVuSans-101"/>
     <use x="188.476562" xlink:href="#DejaVuSans-99"/>
     <use x="243.457031" xlink:href="#DejaVuSans-105"/>
     <use x="271.240234" xlink:href="#DejaVuSans-97"/>
     <use x="332.519531" xlink:href="#DejaVuSans-116"/>
     <use x="371.728516" xlink:href="#DejaVuSans-105"/>
     <use x="399.511719" xlink:href="#DejaVuSans-111"/>
     <use x="460.693359" xlink:href="#DejaVuSans-110"/>
    </g>
   </g>
  </g>
 </g>
 <defs>
  <clipPath id="p817dc66931">
   <rect height="266.112" width="357.12" x="57.6" y="41.472"/>
  </clipPath>
 </defs>
</svg>
