<?xml version="1.0" encoding="UTF-8" standalone="no"?>
<!DOCTYPE svg PUBLIC "-//W3C//DTD SVG 1.1//EN"
 "http://www.w3.org/Graphics/SVG/1.1/DTD/svg11.dtd">
<!-- Generated by graphviz version 2.40.1 (20161225.0304)
 -->
<!-- Title: %3 Pages: 1 -->
<svg width="479pt" height="368pt"
 viewBox="0.00 0.00 478.74 367.99" xmlns="http://www.w3.org/2000/svg" xmlns:xlink="http://www.w3.org/1999/xlink">
<g id="graph0" class="graph" transform="scale(1 1) rotate(0) translate(4 363.9899)">
<title>%3</title>
<polygon fill="#ffffff" stroke="transparent" points="-4,4 -4,-363.9899 474.7437,-363.9899 474.7437,4 -4,4"/>
<!-- dx -->
<g id="node1" class="node">
<title>dx</title>
<polygon fill="#d3d3d3" stroke="#000000" points="170.7487,-359.9899 144.7487,-359.9899 144.7487,-341.9899 170.7487,-341.9899 170.7487,-359.9899"/>
<text text-anchor="middle" x="157.7487" y="-348.7899" font-family="Times,serif" font-size="9.00" fill="#000000">dx</text>
</g>
<!-- 0 -->
<g id="node5" class="node">
<title>0</title>
<ellipse fill="#add8e6" stroke="#000000" cx="350.7487" cy="-110.2462" rx="14.7" ry="14.7"/>
<text text-anchor="middle" x="350.7487" y="-108.0462" font-family="Times,serif" font-size="9.00" fill="#000000">0</text>
</g>
<!-- dx&#45;&gt;0 -->
<g id="edge4" class="edge">
<title>dx&#45;&gt;0</title>
<path fill="none" stroke="#ff0000" stroke-width=".7521" d="M165.0789,-341.8464C193.3343,-306.6013 295.5679,-179.0775 335.0438,-129.8362"/>
<polygon fill="#ff0000" stroke="#ff0000" stroke-width=".7521" points="337.9219,-131.8417 341.4461,-121.8502 332.4603,-127.4632 337.9219,-131.8417"/>
</g>
<!-- 1 -->
<g id="node6" class="node">
<title>1</title>
<ellipse fill="#add8e6" stroke="#000000" cx="183.7487" cy="-195.7437" rx="14.7" ry="14.7"/>
<text text-anchor="middle" x="183.7487" y="-193.5437" font-family="Times,serif" font-size="9.00" fill="#000000">1</text>
</g>
<!-- dx&#45;&gt;1 -->
<g id="edge14" class="edge">
<title>dx&#45;&gt;1</title>
<path fill="none" stroke="#00ff00" stroke-width=".2731" d="M159.2973,-341.7435C163.2206,-318.3173 173.657,-256.0016 179.5485,-220.8231"/>
<polygon fill="#00ff00" stroke="#00ff00" stroke-width=".2731" points="183.0189,-221.2908 181.2188,-210.85 176.115,-220.1345 183.0189,-221.2908"/>
</g>
<!-- 1191 -->
<g id="node7" class="node">
<title>1191</title>
<ellipse fill="#ffffff" stroke="#000000" cx="331.7487" cy="-281.2412" rx="25" ry="25"/>
<text text-anchor="middle" x="331.7487" y="-279.0412" font-family="Times,serif" font-size="9.00" fill="#000000">1191</text>
</g>
<!-- dx&#45;&gt;1191 -->
<g id="edge7" class="edge">
<title>dx&#45;&gt;1191</title>
<path fill="none" stroke="#00ff00" stroke-width=".435" d="M171.0267,-346.0034C192.64,-337.8498 236.7372,-321.0604 273.7487,-305.9899 282.1297,-302.5773 291.145,-298.7884 299.5114,-295.2219"/>
<polygon fill="#00ff00" stroke="#00ff00" stroke-width=".435" points="301.1453,-298.3296 308.9579,-291.1732 298.3877,-291.8956 301.1453,-298.3296"/>
</g>
<!-- 3211 -->
<g id="node8" class="node">
<title>3211</title>
<ellipse fill="#ffffff" stroke="#000000" cx="130.7487" cy="-281.2412" rx="25" ry="25"/>
<text text-anchor="middle" x="130.7487" y="-279.0412" font-family="Times,serif" font-size="9.00" fill="#000000">3211</text>
</g>
<!-- dx&#45;&gt;3211 -->
<g id="edge17" class="edge">
<title>dx&#45;&gt;3211</title>
<path fill="none" stroke="#00ff00" stroke-width=".5627" d="M154.219,-341.8715C151.4459,-334.7078 147.4046,-324.2681 143.4544,-314.0636"/>
<polygon fill="#00ff00" stroke="#00ff00" stroke-width=".5627" points="146.6134,-312.5286 139.7393,-304.4665 140.0854,-315.0557 146.6134,-312.5286"/>
</g>
<!-- 3021 -->
<g id="node9" class="node">
<title>3021</title>
<ellipse fill="#ffffff" stroke="#000000" cx="24.7487" cy="-110.2462" rx="25" ry="25"/>
<text text-anchor="middle" x="24.7487" y="-108.0462" font-family="Times,serif" font-size="9.00" fill="#000000">3021</text>
</g>
<!-- dx&#45;&gt;3021 -->
<g id="edge15" class="edge">
<title>dx&#45;&gt;3021</title>
<path fill="none" stroke="#ff0000" stroke-width=".1271" d="M144.4714,-348.5521C123.798,-344.025 84.173,-332.2797 63.7487,-305.9899 27.3948,-259.1957 22.207,-187.5731 22.7693,-145.1735"/>
<polygon fill="#ff0000" stroke="#ff0000" stroke-width=".1271" points="26.2711,-145.1404 23.0207,-135.0565 19.2733,-144.9664 26.2711,-145.1404"/>
</g>
<!-- 2192 -->
<g id="node11" class="node">
<title>2192</title>
<ellipse fill="#ffffff" stroke="#000000" cx="77.7487" cy="-24.7487" rx="25" ry="25"/>
<text text-anchor="middle" x="77.7487" y="-22.5487" font-family="Times,serif" font-size="9.00" fill="#000000">2192</text>
</g>
<!-- dx&#45;&gt;2192 -->
<g id="edge11" class="edge">
<title>dx&#45;&gt;2192</title>
<path fill="none" stroke="#00ff00" stroke-width=".3501" stroke-dasharray="1,5" d="M144.5866,-345.4432C130.0515,-338.5405 107.311,-325.2628 96.7487,-305.9899 53.221,-226.5648 62.6989,-114.9907 71.2921,-59.2619"/>
<polygon fill="#00ff00" stroke="#00ff00" stroke-width=".3501" points="74.7767,-59.6386 72.9281,-49.2063 67.8676,-58.5144 74.7767,-59.6386"/>
</g>
<!-- dz -->
<g id="node2" class="node">
<title>dz</title>
<polygon fill="#d3d3d3" stroke="#000000" points="344.2487,-359.9899 319.2487,-359.9899 319.2487,-341.9899 344.2487,-341.9899 344.2487,-359.9899"/>
<text text-anchor="middle" x="331.7487" y="-348.7899" font-family="Times,serif" font-size="9.00" fill="#000000">dz</text>
</g>
<!-- dz&#45;&gt;0 -->
<g id="edge8" class="edge">
<title>dz&#45;&gt;0</title>
<path fill="none" stroke="#ff0000" stroke-width="1.2512" d="M343.6538,-341.8081C367.6078,-322.4834 421.0215,-274.8833 440.7487,-220.4924 448.2495,-199.8118 451.0734,-190.4205 440.7487,-170.9949 426.8479,-144.8409 396.1092,-127.9078 374.4369,-118.7288"/>
<polygon fill="#ff0000" stroke="#ff0000" stroke-width="1.2512" points="375.5107,-115.3892 364.9252,-114.9453 372.9235,-121.8935 375.5107,-115.3892"/>
</g>
<!-- dz&#45;&gt;1 -->
<g id="edge1" class="edge">
<title>dz&#45;&gt;1</title>
<path fill="none" stroke="#ff0000" stroke-width=".8682" d="M322.9339,-341.7435C299.0829,-316.7247 232.945,-247.3487 201.1961,-214.0452"/>
<polygon fill="#ff0000" stroke="#ff0000" stroke-width=".8682" points="203.6963,-211.5955 194.2628,-206.7725 198.6297,-216.4256 203.6963,-211.5955"/>
</g>
<!-- dz&#45;&gt;1191 -->
<g id="edge9" class="edge">
<title>dz&#45;&gt;1191</title>
<path fill="none" stroke="#00ff00" stroke-width=".5337" d="M331.7487,-341.8715C331.7487,-335.2548 331.7487,-325.8432 331.7487,-316.4036"/>
<polygon fill="#00ff00" stroke="#00ff00" stroke-width=".5337" points="335.2488,-316.2804 331.7487,-306.2804 328.2488,-316.2805 335.2488,-316.2804"/>
</g>
<!-- theta -->
<g id="node3" class="node">
<title>theta</title>
<polygon fill="#d3d3d3" stroke="#000000" points="445.2487,-359.9899 412.2487,-359.9899 412.2487,-341.9899 445.2487,-341.9899 445.2487,-359.9899"/>
<text text-anchor="middle" x="428.7487" y="-348.7899" font-family="Times,serif" font-size="9.00" fill="#000000">theta</text>
</g>
<!-- theta&#45;&gt;0 -->
<g id="edge2" class="edge">
<title>theta&#45;&gt;0</title>
<path fill="none" stroke="#ff0000" stroke-width=".4991" d="M434.2367,-341.6104C449.8612,-313.5633 491.3507,-228.7121 457.7487,-170.9949 440.0845,-140.6535 400.9982,-124.2318 375.2772,-116.3627"/>
<polygon fill="#ff0000" stroke="#ff0000" stroke-width=".4991" points="376.0739,-112.9506 365.498,-113.5831 374.1601,-119.6839 376.0739,-112.9506"/>
</g>
<!-- theta&#45;&gt;1191 -->
<g id="edge5" class="edge">
<title>theta&#45;&gt;1191</title>
<path fill="none" stroke="#00ff00" stroke-width="1.3073" d="M416.0677,-341.8715C401.9061,-331.6885 378.539,-314.8862 359.9909,-301.5489"/>
<polygon fill="#00ff00" stroke="#00ff00" stroke-width="1.3073" points="362.0205,-298.6975 351.8582,-295.7011 357.9339,-304.3808 362.0205,-298.6975"/>
</g>
<!-- dtheta -->
<g id="node4" class="node">
<title>dtheta</title>
<polygon fill="#d3d3d3" stroke="#000000" points="431.7487,-204.7437 393.7487,-204.7437 393.7487,-186.7437 431.7487,-186.7437 431.7487,-204.7437"/>
<text text-anchor="middle" x="412.7487" y="-193.5437" font-family="Times,serif" font-size="9.00" fill="#000000">dtheta</text>
</g>
<!-- dtheta&#45;&gt;0 -->
<g id="edge3" class="edge">
<title>dtheta&#45;&gt;0</title>
<path fill="none" stroke="#ff0000" stroke-width="1.1145" d="M406.1137,-186.594C396.537,-173.3878 378.5797,-148.6249 365.711,-130.8791"/>
<polygon fill="#ff0000" stroke="#ff0000" stroke-width="1.1145" points="368.2207,-128.378 359.5167,-122.3372 362.5539,-132.4874 368.2207,-128.378"/>
</g>
<!-- 0&#45;&gt;2192 -->
<g id="edge19" class="edge">
<title>0&#45;&gt;2192</title>
<path fill="none" stroke="#00ff00" stroke-width=".3703" d="M336.4554,-105.7699C294.5563,-92.648 171.2233,-54.0229 111.2531,-35.2416"/>
<polygon fill="#00ff00" stroke="#00ff00" stroke-width=".3703" points="112.0983,-31.8387 101.5093,-32.19 110.0062,-38.5187 112.0983,-31.8387"/>
</g>
<!-- 2010 -->
<g id="node12" class="node">
<title>2010</title>
<ellipse fill="#ffffff" stroke="#000000" cx="183.7487" cy="-110.2462" rx="25" ry="25"/>
<text text-anchor="middle" x="183.7487" y="-108.0462" font-family="Times,serif" font-size="9.00" fill="#000000">2010</text>
</g>
<!-- 1&#45;&gt;2010 -->
<g id="edge10" class="edge">
<title>1&#45;&gt;2010</title>
<path fill="none" stroke="#ff0000" stroke-width=".6534" d="M183.7487,-180.8512C183.7487,-170.9836 183.7487,-157.6086 183.7487,-145.1533"/>
<polygon fill="#ff0000" stroke="#ff0000" stroke-width=".6534" points="187.2488,-145.0043 183.7487,-135.0043 180.2488,-145.0044 187.2488,-145.0043"/>
</g>
<!-- 1191&#45;&gt;0 -->
<g id="edge6" class="edge">
<title>1191&#45;&gt;0</title>
<path fill="none" stroke="#ff0000" stroke-width="1.7439" d="M323.3202,-257.6965C316.471,-235.1566 309.0954,-200.34 316.7487,-170.9949 320.4661,-156.7417 328.3499,-142.2912 335.5907,-131.0617"/>
<polygon fill="#ff0000" stroke="#ff0000" stroke-width="1.7439" points="338.7057,-132.7038 341.416,-122.4615 332.9101,-128.7781 338.7057,-132.7038"/>
</g>
<!-- 2351 -->
<g id="node10" class="node">
<title>2351</title>
<ellipse fill="#ffffff" stroke="#000000" cx="350.7487" cy="-195.7437" rx="25" ry="25"/>
<text text-anchor="middle" x="350.7487" y="-193.5437" font-family="Times,serif" font-size="9.00" fill="#000000">2351</text>
</g>
<!-- 1191&#45;&gt;2351 -->
<g id="edge12" class="edge">
<title>1191&#45;&gt;2351</title>
<path fill="none" stroke="#ff0000" stroke-width=".1737" d="M337.1426,-256.9697C339.0078,-248.5763 341.1346,-239.006 343.1436,-229.966"/>
<polygon fill="#ff0000" stroke="#ff0000" stroke-width=".1737" points="346.5886,-230.597 345.3414,-220.0758 339.7553,-229.0784 346.5886,-230.597"/>
</g>
<!-- 3211&#45;&gt;1 -->
<g id="edge18" class="edge">
<title>3211&#45;&gt;1</title>
<path fill="none" stroke="#00ff00" stroke-width=".3175" d="M143.8499,-260.1069C151.9406,-247.0553 162.2926,-230.3559 170.4244,-217.2379"/>
<polygon fill="#00ff00" stroke="#00ff00" stroke-width=".3175" points="173.5951,-218.7659 175.8892,-208.4224 167.6456,-215.0777 173.5951,-218.7659"/>
</g>
<!-- 3021&#45;&gt;2192 -->
<g id="edge16" class="edge">
<title>3021&#45;&gt;2192</title>
<path fill="none" stroke="#00ff00" stroke-width="1.0244" d="M37.8499,-89.112C44.2838,-78.733 52.1478,-66.0471 59.1881,-54.69"/>
<polygon fill="#00ff00" stroke="#00ff00" stroke-width="1.0244" points="62.3206,-56.2796 64.6146,-45.9361 56.371,-52.5915 62.3206,-56.2796"/>
</g>
<!-- 2351&#45;&gt;0 -->
<g id="edge13" class="edge">
<title>2351&#45;&gt;0</title>
<path fill="none" stroke="#ff0000" stroke-width=".712" d="M350.7487,-170.5541C350.7487,-159.4712 350.7487,-146.4825 350.7487,-135.4034"/>
<polygon fill="#ff0000" stroke="#ff0000" stroke-width=".712" points="354.2488,-135.1021 350.7487,-125.1021 347.2488,-135.1021 354.2488,-135.1021"/>
</g>
</g>
</svg>
