<?xml version="1.0" encoding="UTF-8" standalone="no"?>
<!DOCTYPE svg PUBLIC "-//W3C//DTD SVG 1.1//EN"
 "http://www.w3.org/Graphics/SVG/1.1/DTD/svg11.dtd">
<!-- Generated by graphviz version 2.40.1 (20161225.0304)
 -->
<!-- Title: %3 Pages: 1 -->
<svg width="429pt" height="368pt"
 viewBox="0.00 0.00 429.11 367.99" xmlns="http://www.w3.org/2000/svg" xmlns:xlink="http://www.w3.org/1999/xlink">
<g id="graph0" class="graph" transform="scale(1 1) rotate(0) translate(4 363.9899)">
<title>%3</title>
<polygon fill="#ffffff" stroke="transparent" points="-4,4 -4,-363.9899 425.1134,-363.9899 425.1134,4 -4,4"/>
<!-- dx -->
<g id="node1" class="node">
<title>dx</title>
<polygon fill="#d3d3d3" stroke="#000000" points="126.7487,-359.9899 100.7487,-359.9899 100.7487,-341.9899 126.7487,-341.9899 126.7487,-359.9899"/>
<text text-anchor="middle" x="113.7487" y="-348.7899" font-family="Times,serif" font-size="9.00" fill="#000000">dx</text>
</g>
<!-- 0 -->
<g id="node5" class="node">
<title>0</title>
<ellipse fill="#add8e6" stroke="#000000" cx="265.7487" cy="-110.2462" rx="14.7" ry="14.7"/>
<text text-anchor="middle" x="265.7487" y="-108.0462" font-family="Times,serif" font-size="9.00" fill="#000000">0</text>
</g>
<!-- dx&#45;&gt;0 -->
<g id="edge4" class="edge">
<title>dx&#45;&gt;0</title>
<path fill="none" stroke="#ff0000" stroke-width=".7521" d="M119.5217,-341.8464C141.5244,-306.9977 220.4865,-181.9343 252.3125,-131.5271"/>
<polygon fill="#ff0000" stroke="#ff0000" stroke-width=".7521" points="255.3029,-133.3466 257.6822,-123.0223 249.384,-129.6094 255.3029,-133.3466"/>
</g>
<!-- 1 -->
<g id="node6" class="node">
<title>1</title>
<ellipse fill="#add8e6" stroke="#000000" cx="108.7487" cy="-195.7437" rx="14.7" ry="14.7"/>
<text text-anchor="middle" x="108.7487" y="-193.5437" font-family="Times,serif" font-size="9.00" fill="#000000">1</text>
</g>
<!-- dx&#45;&gt;1 -->
<g id="edge13" class="edge">
<title>dx&#45;&gt;1</title>
<path fill="none" stroke="#00ff00" stroke-width=".2731" d="M113.4509,-341.7435C112.6997,-318.4183 110.7067,-256.5381 109.5712,-221.2795"/>
<polygon fill="#00ff00" stroke="#00ff00" stroke-width=".2731" points="113.0554,-220.7321 109.2353,-210.85 106.0591,-220.9575 113.0554,-220.7321"/>
</g>
<!-- 1191 -->
<g id="node7" class="node">
<title>1191</title>
<ellipse fill="#ffffff" stroke="#000000" cx="280.7487" cy="-281.2412" rx="25" ry="25"/>
<text text-anchor="middle" x="280.7487" y="-279.0412" font-family="Times,serif" font-size="9.00" fill="#000000">1191</text>
</g>
<!-- dx&#45;&gt;1191 -->
<g id="edge7" class="edge">
<title>dx&#45;&gt;1191</title>
<path fill="none" stroke="#00ff00" stroke-width=".435" d="M126.8529,-345.5168C152.828,-334.6682 211.5213,-310.1545 248.4509,-294.7306"/>
<polygon fill="#00ff00" stroke="#00ff00" stroke-width=".435" points="249.9123,-297.9133 257.7909,-290.8297 247.2145,-291.454 249.9123,-297.9133"/>
</g>
<!-- 3211 -->
<g id="node8" class="node">
<title>3211</title>
<ellipse fill="#ffffff" stroke="#000000" cx="60.7487" cy="-281.2412" rx="25" ry="25"/>
<text text-anchor="middle" x="60.7487" y="-279.0412" font-family="Times,serif" font-size="9.00" fill="#000000">3211</text>
</g>
<!-- dx&#45;&gt;3211 -->
<g id="edge16" class="edge">
<title>dx&#45;&gt;3211</title>
<path fill="none" stroke="#00ff00" stroke-width=".5627" d="M106.8199,-341.8715C100.543,-333.611 90.9561,-320.9945 82.15,-309.4055"/>
<polygon fill="#00ff00" stroke="#00ff00" stroke-width=".5627" points="84.7712,-307.07 75.9342,-301.2254 79.1977,-311.3051 84.7712,-307.07"/>
</g>
<!-- 3021 -->
<g id="node11" class="node">
<title>3021</title>
<ellipse fill="none" stroke="#000000" cx="24.7487" cy="-110.2462" rx="25" ry="25"/>
<text text-anchor="middle" x="24.7487" y="-108.0462" font-family="Times,serif" font-size="9.00" fill="#000000">3021</text>
</g>
<!-- dx&#45;&gt;3021 -->
<g id="edge14" class="edge">
<title>dx&#45;&gt;3021</title>
<path fill="none" stroke="#ff0000" stroke-width=".1271" d="M100.5401,-348.5638C80.5101,-344.0983 43.063,-332.4899 26.7487,-305.9899 -3.8013,-256.366 5.6762,-185.4014 15.2661,-143.947"/>
<polygon fill="#ff0000" stroke="#ff0000" stroke-width=".1271" points="18.7047,-144.6199 17.6824,-134.0745 11.9053,-142.9557 18.7047,-144.6199"/>
</g>
<!-- dz -->
<g id="node2" class="node">
<title>dz</title>
<polygon fill="#d3d3d3" stroke="#000000" points="240.2487,-359.9899 215.2487,-359.9899 215.2487,-341.9899 240.2487,-341.9899 240.2487,-359.9899"/>
<text text-anchor="middle" x="227.7487" y="-348.7899" font-family="Times,serif" font-size="9.00" fill="#000000">dz</text>
</g>
<!-- dz&#45;&gt;0 -->
<g id="edge8" class="edge">
<title>dz&#45;&gt;0</title>
<path fill="none" stroke="#ff0000" stroke-width="1.2512" d="M229.192,-341.8464C234.5584,-307.8482 253.4781,-187.985 261.7865,-135.3487"/>
<polygon fill="#ff0000" stroke="#ff0000" stroke-width="1.2512" points="265.2876,-135.6156 263.3896,-125.1921 258.3732,-134.5241 265.2876,-135.6156"/>
</g>
<!-- dz&#45;&gt;1 -->
<g id="edge1" class="edge">
<title>dz&#45;&gt;1</title>
<path fill="none" stroke="#ff0000" stroke-width=".8682" d="M220.6611,-341.7435C201.8292,-317.1755 150.2106,-249.8345 124.1839,-215.8802"/>
<polygon fill="#ff0000" stroke="#ff0000" stroke-width=".8682" points="126.7227,-213.4391 117.8612,-207.6318 121.1671,-217.6977 126.7227,-213.4391"/>
</g>
<!-- dz&#45;&gt;1191 -->
<g id="edge9" class="edge">
<title>dz&#45;&gt;1191</title>
<path fill="none" stroke="#00ff00" stroke-width=".5337" d="M234.6776,-341.8715C240.9545,-333.611 250.5413,-320.9945 259.3475,-309.4055"/>
<polygon fill="#00ff00" stroke="#00ff00" stroke-width=".5337" points="262.2998,-311.3051 265.5633,-301.2254 256.7263,-307.07 262.2998,-311.3051"/>
</g>
<!-- theta -->
<g id="node3" class="node">
<title>theta</title>
<polygon fill="#d3d3d3" stroke="#000000" points="370.2487,-359.9899 337.2487,-359.9899 337.2487,-341.9899 370.2487,-341.9899 370.2487,-359.9899"/>
<text text-anchor="middle" x="353.7487" y="-348.7899" font-family="Times,serif" font-size="9.00" fill="#000000">theta</text>
</g>
<!-- theta&#45;&gt;0 -->
<g id="edge2" class="edge">
<title>theta&#45;&gt;0</title>
<path fill="none" stroke="#ff0000" stroke-width=".4991" d="M361.4521,-341.9858C384.1702,-314.2924 446.9741,-228.7653 408.7487,-170.9949 382.424,-131.2102 324.221,-117.4022 290.7508,-112.6672"/>
<polygon fill="#ff0000" stroke="#ff0000" stroke-width=".4991" points="291.1814,-109.1938 280.8246,-111.4272 290.3136,-116.1398 291.1814,-109.1938"/>
</g>
<!-- theta&#45;&gt;1191 -->
<g id="edge5" class="edge">
<title>theta&#45;&gt;1191</title>
<path fill="none" stroke="#00ff00" stroke-width="1.3073" d="M344.2053,-341.8715C334.5778,-332.6728 319.2971,-318.0726 306.1432,-305.5046"/>
<polygon fill="#00ff00" stroke="#00ff00" stroke-width="1.3073" points="308.3511,-302.7734 298.703,-298.3957 303.5153,-307.8346 308.3511,-302.7734"/>
</g>
<!-- dtheta -->
<g id="node4" class="node">
<title>dtheta</title>
<polygon fill="#d3d3d3" stroke="#000000" points="331.7487,-204.7437 293.7487,-204.7437 293.7487,-186.7437 331.7487,-186.7437 331.7487,-204.7437"/>
<text text-anchor="middle" x="312.7487" y="-193.5437" font-family="Times,serif" font-size="9.00" fill="#000000">dtheta</text>
</g>
<!-- dtheta&#45;&gt;0 -->
<g id="edge3" class="edge">
<title>dtheta&#45;&gt;0</title>
<path fill="none" stroke="#ff0000" stroke-width="1.1145" d="M307.7189,-186.594C300.6856,-173.7997 287.6895,-150.1585 278.015,-132.5596"/>
<polygon fill="#ff0000" stroke="#ff0000" stroke-width="1.1145" points="280.9254,-130.5885 273.0409,-123.5114 274.7912,-133.9607 280.9254,-130.5885"/>
</g>
<!-- 2192 -->
<g id="node12" class="node">
<title>2192</title>
<ellipse fill="none" stroke="#000000" cx="136.7487" cy="-24.7487" rx="25" ry="25"/>
<text text-anchor="middle" x="136.7487" y="-22.5487" font-family="Times,serif" font-size="9.00" fill="#000000">2192</text>
</g>
<!-- 0&#45;&gt;2192 -->
<g id="edge18" class="edge">
<title>0&#45;&gt;2192</title>
<path fill="none" stroke="#00ff00" stroke-width=".3703" d="M252.9081,-101.7358C232.7813,-88.3964 193.2872,-62.2208 165.9768,-44.1202"/>
<polygon fill="#00ff00" stroke="#00ff00" stroke-width=".3703" points="167.8469,-41.1608 157.5778,-38.5537 163.9797,-46.9956 167.8469,-41.1608"/>
</g>
<!-- 2010 -->
<g id="node10" class="node">
<title>2010</title>
<ellipse fill="none" stroke="#000000" cx="108.7487" cy="-110.2462" rx="25" ry="25"/>
<text text-anchor="middle" x="108.7487" y="-108.0462" font-family="Times,serif" font-size="9.00" fill="#000000">2010</text>
</g>
<!-- 1&#45;&gt;2010 -->
<g id="edge10" class="edge">
<title>1&#45;&gt;2010</title>
<path fill="none" stroke="#ff0000" stroke-width=".6534" d="M108.7487,-180.8512C108.7487,-170.9836 108.7487,-157.6086 108.7487,-145.1533"/>
<polygon fill="#ff0000" stroke="#ff0000" stroke-width=".6534" points="112.2488,-145.0043 108.7487,-135.0043 105.2488,-145.0044 112.2488,-145.0043"/>
</g>
<!-- 1191&#45;&gt;0 -->
<g id="edge6" class="edge">
<title>1191&#45;&gt;0</title>
<path fill="none" stroke="#ff0000" stroke-width="1.7439" d="M278.5676,-256.377C275.7351,-224.0878 270.8174,-168.0273 267.9669,-135.5325"/>
<polygon fill="#ff0000" stroke="#ff0000" stroke-width="1.7439" points="271.446,-135.1401 267.0854,-125.4843 264.4728,-135.7519 271.446,-135.1401"/>
</g>
<!-- 2351 -->
<g id="node9" class="node">
<title>2351</title>
<ellipse fill="#ffffff" stroke="#000000" cx="374.7487" cy="-195.7437" rx="25" ry="25"/>
<text text-anchor="middle" x="374.7487" y="-193.5437" font-family="Times,serif" font-size="9.00" fill="#000000">2351</text>
</g>
<!-- 1191&#45;&gt;2351 -->
<g id="edge11" class="edge">
<title>1191&#45;&gt;2351</title>
<path fill="none" stroke="#ff0000" stroke-width=".1737" d="M299.3201,-264.3496C313.3534,-251.5856 332.803,-233.8954 348.437,-219.6754"/>
<polygon fill="#ff0000" stroke="#ff0000" stroke-width=".1737" points="351.1732,-221.918 356.2159,-212.6001 346.4632,-216.7395 351.1732,-221.918"/>
</g>
<!-- 3211&#45;&gt;1 -->
<g id="edge17" class="edge">
<title>3211&#45;&gt;1</title>
<path fill="none" stroke="#00ff00" stroke-width=".3175" d="M73.1099,-259.2234C80.1932,-246.6068 89.0611,-230.8113 96.1789,-218.133"/>
<polygon fill="#00ff00" stroke="#00ff00" stroke-width=".3175" points="99.3788,-219.5829 101.2224,-209.1497 93.2749,-216.156 99.3788,-219.5829"/>
</g>
<!-- 2351&#45;&gt;0 -->
<g id="edge12" class="edge">
<title>2351&#45;&gt;0</title>
<path fill="none" stroke="#ff0000" stroke-width=".712" d="M355.2617,-180.4585C335.6321,-165.0614 305.4936,-141.4213 285.7002,-125.8958"/>
<polygon fill="#ff0000" stroke="#ff0000" stroke-width=".712" points="287.6886,-123.0072 277.6602,-119.5893 283.3684,-128.515 287.6886,-123.0072"/>
</g>
<!-- 3021&#45;&gt;2192 -->
<g id="edge15" class="edge">
<title>3021&#45;&gt;2192</title>
<path fill="none" stroke="#00ff00" stroke-width="1.0244" d="M44.5143,-95.1578C62.3177,-81.5672 88.684,-61.44 108.6719,-46.1818"/>
<polygon fill="#00ff00" stroke="#00ff00" stroke-width="1.0244" points="110.9791,-48.8238 116.8041,-39.9739 106.7316,-43.2597 110.9791,-48.8238"/>
</g>
</g>
</svg>
